<svg width="3324" height="3276" viewBox="0 0 3324 3276" fill="none" xmlns="http://www.w3.org/2000/svg">
<path fill-rule="evenodd" clip-rule="evenodd" d="M1615.75 389.214C1501.65 392.061 1374.36 411.275 1265.75 442.047C1234.23 450.976 1187.91 466.01 1154.25 478.235C1076.14 506.6 984.643 550.607 909.747 595.824C841.185 637.217 767.939 690.403 711.818 739.545C705.532 745.049 696.082 753.326 690.818 757.938C659.906 785.017 610.987 834.192 577.343 872.002C540.63 913.263 498.52 966.276 473.243 1003.05C417.564 1084.07 383.408 1143.01 343.744 1226.55C310.941 1295.64 283.022 1369.85 260.384 1448.12C253.585 1471.62 242.268 1516.82 239.368 1532.05C239.106 1533.43 237.082 1543.59 234.869 1554.64C229.165 1583.11 223.367 1617.77 220.244 1642.05C218.196 1657.97 217.811 1660.88 217.258 1664.55C215.701 1674.9 211.42 1724.71 209.566 1754.05C207.587 1785.36 207.896 1880.64 210.084 1914.05C215.458 1996.11 225.289 2068.82 241.859 2149.05C258.72 2230.7 288.444 2325.22 321.26 2401.55C336.246 2436.41 344.312 2453.81 360.901 2487.05C376.688 2518.69 400.67 2561.69 420.587 2594.05C437.707 2621.88 474.707 2677.18 476.65 2677.85C477.482 2678.13 481.565 2673.69 518.621 2632.15C548.03 2599.18 551.016 2595.48 577.893 2558.55C583.498 2550.85 597.148 2532.4 608.226 2517.55C633.216 2484.05 675.516 2426.75 678.725 2422.05C687.581 2409.08 701.436 2398.94 717.747 2393.49C723.958 2391.42 736.529 2391.03 751.317 2392.45L760.386 2393.33L762.581 2390.54C763.789 2389 765.848 2384.1 767.157 2379.65C768.467 2375.2 771.169 2365.93 773.162 2359.05C778.644 2340.14 783.41 2331.14 792.818 2321.92C801.333 2313.57 801.614 2312.97 804.16 2297.55C804.977 2292.6 806.982 2280.9 808.615 2271.55C810.248 2262.2 813.22 2245.1 815.219 2233.55C830.672 2144.26 842.592 2088.53 856.392 2041.05C874.109 1980.1 892.631 1932.24 922.756 1869.55C935.402 1843.24 941.706 1829.1 942.893 1824.39C944.356 1818.58 943.383 1813.05 936.813 1789.88C930.931 1769.14 922.442 1734.78 919.437 1719.55C917.292 1708.68 917.265 1707.24 917.17 1597.05C917.117 1535.73 916.76 1482.85 916.378 1479.55C913.756 1456.94 912.286 1449.49 907.674 1435.46C903.998 1424.27 902.664 1413.27 903.829 1403.73C905.052 1393.73 904.599 1395.3 917.248 1357.05C948.189 1263.49 963.541 1221.51 975.816 1196.9C999.345 1149.74 1034.56 1111.13 1079.65 1083.05C1131.92 1050.52 1179.72 1014.58 1213.22 982.665C1218.95 977.198 1267.3 933.545 1273.77 927.99C1298.3 906.924 1333.72 880.607 1358.75 864.838C1375.69 854.164 1428.22 824.39 1441.25 818.079C1457.45 810.226 1478.02 803.304 1504.87 796.664C1527.79 790.998 1531.65 790.141 1568.75 782.498C1600.5 775.955 1612.62 776.382 1629.54 784.645C1643.47 791.446 1658.23 809.399 1670.16 834.053C1677.27 848.735 1679.23 856.06 1679.15 867.553C1679 887.825 1669 909.293 1649.37 931.47C1646 935.274 1635.37 945.447 1625.75 954.075C1601.7 975.635 1594.34 983.346 1587.34 994.319C1582.76 1001.5 1583.2 1001.75 1597.01 999.914C1610.66 998.099 1663.67 998.066 1676.75 999.865C1709.47 1004.37 1741.86 1012.7 1768.75 1023.55C1792.62 1033.18 1801.12 1035.37 1814.75 1035.38C1825.78 1035.39 1830.76 1034.32 1840.75 1029.78C1846.45 1027.19 1856.12 1018.7 1857.09 1015.43C1857.39 1014.4 1859.03 1005.53 1860.72 995.729C1870.95 936.559 1886.09 879.314 1908.26 816.053C1911.14 807.819 1911.83 804.58 1911.42 801.042C1911.13 798.561 1907.55 787.761 1903.46 777.042C1893.77 751.65 1891.57 743.238 1891.65 732.042C1891.74 721.044 1893.17 714.209 1896.99 706.553C1907.81 684.885 1933.64 672.108 1958.79 675.984C1989.89 680.778 2013.27 697 2043.18 734.553C2049.91 743.002 2055.65 753.765 2059.18 764.553C2063.14 776.666 2069.19 815.381 2070.27 835.553C2072.26 872.543 2072.85 880.685 2074.27 890.053C2078.3 916.689 2086.58 945.302 2104.21 993.456C2108.41 1004.95 2112.79 1017.1 2113.94 1020.46C2115.09 1023.81 2116.86 1027.75 2117.89 1029.21C2121.79 1034.78 2190.55 1088.41 2195.53 1089.77C2199.62 1090.89 2206.8 1090.6 2221.75 1088.71C2303.63 1078.36 2394.67 1101.27 2446.49 1145.26C2487.47 1180.05 2509.83 1225.93 2512.65 1281.03C2513.36 1294.84 2513.57 1295.93 2516.6 1301.59C2518.36 1304.87 2523.81 1313.18 2528.71 1320.05C2546.63 1345.22 2557.53 1361.22 2563.63 1371.35C2583.59 1404.46 2601.99 1456.84 2611.64 1508.05C2617.35 1538.34 2619.58 1562.76 2620.39 1604.05C2621.95 1683.26 2613.01 1743.35 2590.72 1803.55C2572.41 1852.97 2546.54 1895.37 2512.5 1931.68C2507.8 1936.7 2503.42 1941.8 2502.77 1943.01C2500.93 1946.45 2499.13 1953.22 2495.3 1971.05C2482.73 2029.66 2466.69 2060.46 2437.14 2082.72C2429.72 2088.31 2427.68 2091.43 2425.79 2100.05C2423.66 2109.7 2425.13 2122.73 2429.34 2131.64C2431.75 2136.75 2439.91 2145.2 2460.28 2163.69C2480.12 2181.71 2488.49 2191.3 2497.87 2206.79C2512.52 2230.96 2520.29 2256.98 2521.42 2285.68C2522.51 2312.99 2518.18 2334.68 2506.97 2358.05C2499.9 2372.79 2491.36 2384.56 2477.21 2399.05C2455.77 2421.01 2442.58 2443.58 2438.05 2466.05C2437.22 2470.18 2436.16 2475.35 2435.7 2477.55C2434.21 2484.72 2427.66 2506.33 2424.05 2516.05C2405.33 2566.33 2377.84 2603.69 2337.28 2634.03C2289.92 2669.44 2232.84 2689.93 2163.25 2696.5C2151.9 2697.58 2147.2 2697.92 2128.25 2699.1C2117.8 2699.74 2109.12 2700.39 2108.96 2700.53C2108.51 2700.94 2090.72 2784.16 2085.22 2811.55C2083.9 2818.15 2080.98 2832.33 2078.73 2843.05C2074.19 2864.72 2074.13 2868.5 2078.21 2879.41C2083.54 2893.64 2093.16 2923.3 2102.11 2953.05C2117.99 3005.84 2134.38 3075.64 2144.24 3132.55C2149.53 3163.04 2153.02 3183.49 2153.91 3189.15C2154.48 3192.78 2155.27 3196.28 2155.67 3196.93C2156.45 3198.19 2169 3194.04 2200.75 3182.01C2280.08 3151.96 2382.26 3098.66 2458.25 3047.69C2506.62 3015.24 2539.61 2990.54 2587.22 2951.11C2618.65 2925.1 2647.08 2898.92 2682.77 2863.15C2745.87 2799.91 2791.66 2745.68 2845.4 2670.55C2866.33 2641.29 2900.83 2586.91 2919.94 2553.05C2996.46 2417.47 3048.35 2278.31 3079.16 2126.05C3092.88 2058.23 3102.99 1975.7 3105.25 1913.05C3105.56 1904.53 3106.03 1895.85 3106.3 1893.76C3106.83 1889.61 3106.84 1790.63 3106.31 1782.55C3106.12 1779.8 3105.66 1769.68 3105.26 1760.05C3104.87 1750.43 3104.42 1742.33 3104.26 1742.05C3104.1 1741.78 3103.66 1735.48 3103.27 1728.06C3102.89 1720.65 3102.44 1714.35 3102.28 1714.06C3102.12 1713.78 3101.68 1709.28 3101.3 1704.05C3097.91 1656.92 3086.36 1581.62 3074.23 1527.55C3068.88 1503.71 3067.91 1499.6 3063.14 1480.55C3048.06 1420.39 3031.17 1367.64 3008.24 1309.05C2987.08 1255 2963.84 1204.68 2935.97 1152.55C2904.27 1093.27 2865.33 1031.81 2825.42 978.053C2799.55 943.211 2798.85 942.32 2771.13 909.078C2734.52 865.176 2693.15 821.409 2647.23 778.019C2629.28 761.063 2582.91 720.941 2566.36 708.053C2563.18 705.578 2557.13 700.821 2552.91 697.481C2472.44 633.74 2369.76 570.303 2278.75 528.095C2236.06 508.298 2212.4 498.074 2183.75 487.032C2144.21 471.799 2084.52 452.107 2044.75 441.176C1947.94 414.57 1848.32 398.141 1740.25 390.961C1716.6 389.39 1647.53 388.421 1615.75 389.214ZM1960.72 742.82C1963.16 750.642 1964.19 753.142 1969.27 763.553C1975.98 777.294 1977.26 783.133 1977.15 799.553C1977.05 815.253 1978.32 810.303 1963.26 853.553C1944.26 908.082 1931.74 956.965 1924.82 1003.55C1922.06 1022.18 1918.62 1034.24 1912.25 1047.69C1903.75 1065.63 1896.97 1074.38 1888.97 1077.73C1887.17 1078.48 1880.65 1080.42 1874.47 1082.03C1868.3 1083.65 1857.17 1086.91 1849.75 1089.29C1831.59 1095.11 1831.64 1095.48 1851.75 1102.98C1889.55 1117.1 1912.9 1130.53 1934.64 1150.66C1953.34 1167.98 1977.52 1204.96 1985.02 1227.71C1988.66 1238.76 1990.17 1252.33 1988.88 1262.54C1988.33 1266.93 1988.04 1270.68 1988.23 1270.87C1988.42 1271.06 1995.02 1268.2 2002.91 1264.51C2010.79 1260.82 2019.95 1256.56 2023.25 1255.04C2026.55 1253.52 2033.68 1250.2 2039.09 1247.67C2044.5 1245.13 2049.05 1243.05 2049.2 1243.05C2049.35 1243.05 2057.44 1239.21 2067.18 1234.52C2088.69 1224.14 2139.43 1200.55 2149.75 1196.12C2153.87 1194.35 2159.72 1191.76 2162.75 1190.36C2178.63 1183 2200.28 1175.79 2215.75 1172.7C2234.45 1168.96 2239.48 1168.55 2265.75 1168.62C2296.26 1168.7 2307.8 1170.09 2338.25 1177.33C2354.48 1181.19 2356.21 1181.81 2355.9 1183.58C2355.71 1184.67 2355.49 1185.62 2355.4 1185.69C2355.32 1185.77 2351.2 1185.22 2346.25 1184.47C2313.55 1179.53 2290.68 1180.39 2258 1187.78C2255 1188.46 2255.15 1189.69 2258.32 1190.48C2263.28 1191.73 2275.54 1198.29 2281.18 1202.72C2284.31 1205.17 2288.68 1209.97 2290.88 1213.37L2294.89 1219.55L2291.81 1219.87C2289.8 1220.07 2286.31 1218.97 2281.81 1216.72C2272.37 1212 2262.81 1210.45 2252.29 1211.94C2242.13 1213.37 2234.81 1216.96 2227.98 1223.86C2221.46 1230.44 2217.21 1238.69 2214.27 1250.49C2210.28 1266.52 2207.69 1270.76 2200.16 1273.64C2195.36 1275.47 2189.74 1275.13 2180.75 1272.47C2165.57 1267.97 2156.07 1256.87 2153.66 1240.84C2153.06 1236.83 2152.27 1231.57 2151.9 1229.15L2151.25 1224.74L2143.44 1231.03C2134.64 1238.1 2123.89 1250.09 2118.93 1258.36C2111.34 1270.97 2107.73 1289.78 2110.79 1300.71C2112.38 1306.38 2118 1312.38 2124.24 1315.05C2129.07 1317.12 2167.07 1326.07 2181.25 1328.48C2206.31 1332.73 2232.47 1332.62 2254.24 1328.18L2263.24 1326.34L2260.28 1328.45C2258.65 1329.61 2255.31 1332.4 2252.86 1334.67C2248.7 1338.49 2248.37 1339.19 2247.99 1344.67C2247.52 1351.46 2248.34 1353.29 2259.18 1369.96C2262.87 1375.62 2265.66 1380.47 2265.39 1380.74C2264.87 1381.26 2249.82 1373.93 2236.27 1366.54C2215.27 1355.09 2190.79 1347.04 2177.05 1347.07C2155.44 1347.1 2136.74 1361.62 2131.28 1382.59C2129.51 1389.39 2129.3 1398.9 2130.8 1404.3L2131.84 1408.05H2143.23C2149.5 1408.05 2154.82 1408.39 2155.06 1408.8C2155.44 1409.45 2144.67 1453.52 2141.87 1462.79C2141.33 1464.57 2141.23 1466.23 2141.64 1466.49C2142.04 1466.74 2145.95 1464.89 2150.31 1462.38C2165.25 1453.79 2171.77 1451.05 2177.33 1451.05C2181.55 1451.05 2182.95 1451.53 2185.11 1453.69C2186.56 1455.14 2188.21 1458.05 2188.78 1460.16C2191.03 1468.52 2188.53 1476.11 2171.19 1513.65C2157.76 1542.71 2155.5 1547.88 2151.79 1557.93C2149.36 1564.53 2149.04 1566.23 2150.17 1566.66C2150.95 1566.96 2160.28 1561.38 2171.25 1554.05C2182.07 1546.82 2191.17 1541.14 2191.45 1541.42C2192.47 1542.45 2177.23 1569.8 2151.52 1613.05C2113.73 1676.63 2059.17 1735.68 2001.52 1775.39C1963.81 1801.37 1917.54 1824.66 1874.75 1839.22C1850.86 1847.35 1806.03 1857.69 1776.25 1861.95C1737.25 1867.53 1709.71 1869.04 1646.75 1869.06C1572.07 1869.09 1518.65 1871.19 1492.25 1875.14C1427.36 1884.83 1387.73 1915.99 1365.66 1974.67C1359.11 1992.09 1355.65 2008.04 1350.25 2045.76C1348.3 2059.32 1346.5 2070.63 1346.24 2070.89C1345.98 2071.15 1345.09 2069.72 1344.25 2067.71C1335.97 2047.89 1334.23 2002.85 1340.66 1974.83C1344.06 1960.03 1352.66 1940.87 1362.11 1927.05C1368.2 1918.16 1381.63 1903.87 1390.85 1896.49C1423.37 1870.44 1473.6 1853.95 1538.25 1848.09C1544.3 1847.54 1560.72 1846.4 1574.75 1845.57C1617.45 1843.02 1638.18 1841.15 1664.25 1837.49C1703.55 1831.97 1747.88 1820.86 1774.5 1809.86C1780.49 1807.39 1781.75 1806.47 1781.75 1804.59V1802.32L1756 1802.61C1728.81 1802.91 1713.54 1802.18 1692.25 1799.53C1679.37 1797.93 1650.63 1792.69 1646.61 1791.2C1644.82 1790.53 1646.33 1789.12 1657.39 1781.07C1667.61 1773.62 1677.91 1766.25 1680.57 1764.46C1680.74 1764.34 1680.29 1763.28 1679.57 1762.09C1678.72 1760.72 1677.52 1760.09 1676.25 1760.35C1675.15 1760.58 1654.35 1766.23 1630.04 1772.91C1605.73 1779.59 1584.92 1785.05 1583.79 1785.05C1578.63 1785.05 1583.54 1781.58 1607.01 1768.63C1620.89 1760.97 1647.1 1746.3 1665.25 1736.03C1683.4 1725.76 1702.84 1714.8 1708.46 1711.67C1719.31 1705.63 1720 1705.08 1718.93 1703.36C1718.45 1702.59 1714.27 1702.95 1704.75 1704.58C1658.27 1712.51 1625.91 1717.98 1623.77 1718.24C1622.14 1718.45 1621.19 1718.01 1620.98 1716.96C1620.77 1715.92 1624.71 1712.35 1632.45 1706.57C1649.48 1693.86 1676.61 1672.65 1676.69 1671.99C1676.72 1671.69 1676.18 1670.73 1675.5 1669.87C1674.38 1668.47 1673.2 1668.65 1664.25 1671.66C1658.75 1673.51 1653.33 1675.21 1652.21 1675.43C1651.09 1675.66 1640.96 1678.81 1629.69 1682.45C1618.41 1686.08 1608.75 1689.05 1608.22 1689.04C1607.68 1689.04 1609.5 1687.6 1612.25 1685.85C1615 1684.11 1629.62 1674.48 1644.75 1664.45C1674.81 1644.52 1689.08 1633.8 1704 1619.96C1713.76 1610.9 1730.23 1593.21 1729.55 1592.52C1729.35 1592.32 1720.01 1595.1 1708.8 1598.71L1688.41 1605.26L1686.6 1602.91C1685.61 1601.61 1684.78 1600.06 1684.77 1599.45C1684.76 1598.85 1688.68 1594.62 1693.5 1590.06C1698.31 1585.5 1711.02 1573.17 1721.75 1562.65C1732.47 1552.13 1745.63 1539.42 1751 1534.4C1759.47 1526.46 1762.24 1523.05 1760.2 1523.05C1759.9 1523.05 1744.09 1528.7 1725.07 1535.59C1706.06 1542.49 1690.27 1547.91 1689.99 1547.63C1689.71 1547.35 1694.92 1541.9 1701.56 1535.53C1725.17 1512.87 1745.46 1487.1 1760.3 1460.95C1762.83 1456.51 1764.71 1452.69 1764.5 1452.47C1764.28 1452.25 1758.06 1455.7 1750.67 1460.14C1743.29 1464.58 1728.02 1473.63 1716.75 1480.25C1705.47 1486.87 1694.78 1493.18 1693 1494.26C1691.21 1495.33 1689.75 1495.76 1689.75 1495.2C1689.75 1493.53 1719.33 1460.96 1751.22 1427.55C1761.19 1417.1 1771.57 1406.08 1774.28 1403.05C1804.68 1369.14 1840.08 1339.16 1873.75 1318.83C1887.13 1310.75 1916.81 1296.54 1926.36 1293.64C1927.53 1293.29 1929.23 1292.17 1930.15 1291.16C1931.75 1289.4 1931.61 1289.26 1927.15 1288.13C1916.9 1285.55 1910.55 1280.24 1906.1 1270.52C1904.81 1267.71 1902.18 1258.63 1900.25 1250.36C1889.03 1202.22 1871.56 1168.55 1841.77 1137.68C1821.61 1116.78 1802.91 1103.25 1774.8 1089.2C1742.93 1073.27 1715.88 1064.75 1680.17 1059.38C1663.01 1056.8 1613.89 1056.79 1594.75 1059.37C1574.69 1062.07 1552.85 1066.49 1528.75 1072.72C1516.92 1075.78 1504.63 1078.95 1501.44 1079.77C1498.24 1080.59 1495.45 1081.09 1495.25 1080.89C1494.48 1080.12 1493.73 1074.3 1493.12 1064.55C1492.46 1053.73 1492.95 1051.11 1498.97 1033.55C1509.69 1002.3 1525.63 973.892 1547.74 946.635C1553.13 939.99 1566.86 925.328 1578.25 914.053C1599.08 893.435 1615.96 875.669 1619.07 871.08C1621.17 867.991 1621.23 861.888 1619.21 857.979C1615.91 851.597 1606.68 838.242 1605.17 837.663C1601.34 836.193 1593.8 837.525 1563.97 844.94C1518.99 856.124 1507.4 858.843 1497.75 860.487C1490.3 861.754 1486.46 863.338 1466.81 873.244C1414.55 899.59 1370.88 927.276 1340.19 953.521C1333.27 959.443 1324.71 966.906 1283.81 1002.68C1207.9 1069.06 1161.44 1105 1106.79 1139.6C1086.88 1152.22 1074.82 1161.71 1066.35 1171.45C1040.9 1200.72 1024.23 1237.1 990.732 1336.55C984.804 1354.15 978.341 1372.97 976.37 1378.37C968.335 1400.38 967.965 1413.96 974.842 1434.45C983.661 1460.74 982.974 1449.27 983.275 1575.05C983.444 1645.71 983.948 1691.37 984.65 1699.71C987.009 1727.7 991.764 1748.69 1008.83 1806.43C1012.4 1818.51 1012.73 1828.87 1009.83 1837.31C1008.78 1840.37 1004.42 1849.1 1000.15 1856.71C982.705 1887.81 961.453 1933.41 948.264 1968.05C920.646 2040.59 892.002 2152.25 876.824 2246.55C869.996 2288.97 869.255 2294.21 862.799 2345.55C860.895 2360.7 856.752 2405.61 854.774 2432.55C852.406 2464.8 851.852 2470.27 850.771 2472.01C849.359 2474.3 846.484 2455.74 845.277 2436.55C844.966 2431.6 844.505 2424.4 844.254 2420.55C844.002 2416.7 843.496 2407.7 843.13 2400.55C841.43 2367.38 841.349 2366.59 839.558 2366.25C838.25 2366 837.412 2367.47 835.848 2372.74C829.843 2392.98 821.472 2427.8 817.244 2450.11C816.989 2451.45 816.557 2453.68 816.284 2455.05C815.468 2459.17 814.909 2462.65 811.797 2483.05C803.787 2535.56 800.748 2587.19 802.703 2637.56C803.301 2652.96 803.968 2666.69 804.185 2668.06C804.403 2669.43 804.875 2674.6 805.234 2679.55C807.017 2704.1 813.597 2748.71 820.351 2782.05C825.93 2809.59 839.202 2858.72 846.694 2879.58L847.763 2882.55L845.374 2879.89C841.914 2876.02 827.137 2851.59 819.466 2837.05C796.679 2793.86 778.513 2740.23 765.953 2679.05L765.029 2674.55L763.346 2678.37C756.907 2692.98 751.187 2729.46 749.129 2769.05C748.771 2775.93 748.327 2781.73 748.141 2781.94C746.395 2783.95 739.7 2748.53 737.977 2728.17C737.575 2723.43 737.287 2706.05 737.335 2689.55C737.411 2663.7 738.025 2649.37 740.228 2622.05C743.119 2586.22 744.134 2565.35 742.927 2566.55C742.375 2567.1 738.089 2573.89 733.402 2581.64C718.382 2606.47 704.836 2635.31 685.783 2683.02C682.387 2691.52 679.172 2699.17 678.638 2700.02C677.716 2701.48 678.198 2680.17 679.226 2674.05C679.457 2672.68 679.92 2668.85 680.254 2665.55C681.98 2648.51 686.525 2623.84 691.859 2602.55C695.121 2589.54 706.636 2555.07 722.758 2510.05C728.372 2494.38 733.552 2479.75 734.269 2477.55C734.987 2475.35 737.186 2469.09 739.156 2463.63C741.127 2458.18 742.569 2453.54 742.361 2453.33C742.031 2453 722.015 2477.87 700.331 2505.55C696.453 2510.5 685.598 2524.23 676.208 2536.05C666.818 2547.88 653.288 2564.98 646.141 2574.05C624.474 2601.57 572.463 2667.22 554.242 2690.05C529.059 2721.62 521.747 2731.07 521.747 2732.08C521.747 2733.37 555.932 2774.63 564.847 2784.1C565.617 2784.91 569.839 2789.63 574.228 2794.57C578.618 2799.51 584.292 2805.8 586.837 2808.55C589.382 2811.3 594.537 2816.93 598.292 2821.05C613.212 2837.44 669.485 2892.82 690.138 2911.44C803.712 3013.84 921.184 3091.33 1057.1 3153.52C1120.3 3182.43 1189.84 3208 1261.25 3228.57C1276.25 3232.89 1320.22 3244.37 1325.75 3245.41C1327.12 3245.67 1336.57 3247.75 1346.75 3250.03C1386.78 3258.99 1418.72 3265.06 1456.75 3270.92C1489.57 3275.98 1491.75 3276.28 1491.75 3275.66C1491.75 3273.74 1483.67 3246.78 1470.45 3204.55C1457.12 3161.99 1440.14 3105.69 1432.76 3079.55C1430.43 3071.3 1427.24 3060.05 1425.67 3054.55C1400.01 2964.49 1381.45 2894.46 1365.23 2826.55C1352.2 2771.97 1343.75 2743.92 1329.24 2707.05C1303.22 2640.93 1273.36 2587.82 1224.1 2520.05C1213.1 2504.93 1200.18 2486.93 1195.38 2480.05C1190.58 2473.18 1179.42 2457.2 1170.57 2444.55C1161.72 2431.9 1146.13 2409.4 1135.92 2394.55C1125.71 2379.7 1114.61 2363.73 1111.25 2359.05C1107.89 2354.38 1102.28 2345.94 1098.78 2340.3C1095.28 2334.66 1092.24 2330.22 1092.03 2330.44C1091.49 2330.97 1096.44 2361.4 1098.87 2372.55C1111.22 2429.12 1127.47 2474.44 1161 2545.82C1173.66 2572.76 1172.48 2572.87 1152.83 2546.63C1090.16 2462.95 1047.05 2374.84 1025.09 2285.55C1007.84 2215.42 1000.97 2157.01 1000.04 2072.66C999.483 2022.78 1000.13 2003.59 1003.79 1960.62C1007.24 1920.23 1010.97 1889.64 1020.84 1821.05C1027.25 1776.49 1029.81 1762.96 1036.15 1740.05C1050.93 1686.64 1075.21 1636.97 1107.77 1593.55C1136.89 1554.73 1169.52 1523.28 1219.75 1485.64C1229.92 1478.01 1239.4 1470.71 1240.8 1469.41C1243.89 1466.56 1244.92 1466.48 1247.15 1468.95C1248.8 1470.77 1248.61 1471.16 1242.54 1478.2C1184.39 1545.8 1145.43 1626.91 1127.35 1718.05C1123.97 1735.1 1119.41 1768.44 1118.26 1784.55C1116.86 1804.29 1116.72 1805.05 1114.64 1805.05C1113.56 1805.05 1112.49 1804.49 1112.26 1803.8C1112.03 1803.12 1110.68 1782.3 1109.27 1757.55C1107.86 1732.8 1106.51 1710.98 1106.26 1709.05C1106.02 1707.13 1105.81 1702.07 1105.78 1697.8C1105.76 1693.54 1105.36 1690.05 1104.88 1690.05C1102.22 1690.05 1090.82 1719.2 1086.16 1737.9C1080.17 1761.97 1079.39 1772.19 1080.11 1817.55C1080.46 1839.55 1081.03 1865.47 1081.38 1875.15C1081.93 1890.48 1081.81 1892.81 1080.46 1893.33C1078.61 1894.04 1079.08 1896.13 1066.75 1833.05C1061.76 1807.48 1057.39 1785.88 1057.05 1785.05C1055.76 1781.9 1048.91 1822.34 1046.72 1846.05C1046.13 1852.38 1045.48 1858.08 1045.26 1858.72C1043.97 1862.58 1042.92 1910.49 1043.66 1932.05C1046.71 2021.56 1075.11 2121.26 1117.72 2192.05C1144.08 2235.85 1188.75 2296.05 1225.3 2337.05C1243.48 2357.45 1269.24 2383.64 1281.75 2394.46C1295.41 2406.28 1317.85 2420.87 1320.8 2419.86C1321.72 2419.54 1315.35 2409.83 1286.8 2368.05C1250.07 2314.31 1243.36 2303.89 1244.4 2302.24C1244.94 2301.38 1245.86 2300.52 1246.43 2300.32C1247.01 2300.13 1251.74 2305.06 1256.95 2311.26C1272.35 2329.63 1275.14 2332.64 1295.66 2353.05C1338.07 2395.24 1384.06 2428.2 1438.63 2455.48C1494.69 2483.53 1548.69 2502.01 1605.25 2512.53C1615.15 2514.37 1625.95 2516.17 1629.25 2516.52C1632.55 2516.87 1636.37 2517.36 1637.75 2517.6L1640.25 2518.04L1637.8 2516.3C1636.46 2515.34 1621.09 2503.98 1603.64 2491.05C1586.2 2478.13 1567.39 2464.26 1561.84 2460.24C1556.29 2456.22 1551.76 2452.62 1551.78 2452.24C1551.8 2451.86 1552.47 2450.68 1553.28 2449.61C1554.7 2447.73 1556.12 2448.34 1592.5 2466.29C1633.18 2486.37 1638.12 2488.63 1656.48 2495.5C1687.4 2507.06 1714.9 2512.88 1742.75 2513.75C1752.49 2514.06 1759.88 2513.92 1759.43 2513.44C1758.61 2512.58 1739.62 2502.8 1698 2481.8C1677.82 2471.62 1674.11 2469.18 1676.54 2467.68C1676.97 2467.41 1692.61 2468.04 1711.29 2469.08C1729.97 2470.12 1750.2 2471.23 1756.25 2471.54C1762.3 2471.86 1769.16 2472.36 1771.5 2472.65C1775.55 2473.15 1775.75 2473.05 1775.75 2470.56C1775.75 2467.17 1773.91 2466.33 1711.75 2441.49C1668.52 2424.22 1640.2 2412.7 1628.25 2407.55C1618.96 2403.54 1584.23 2385.74 1571.75 2378.59C1544.97 2363.24 1512.15 2340.24 1492.51 2323.04C1480.07 2312.15 1455.56 2287.08 1445.6 2275.05C1429.84 2256.03 1419.1 2240.18 1401.26 2209.61C1394.3 2197.69 1394.05 2197.05 1396.35 2197.05C1398.63 2197.05 1404.83 2202.08 1422.79 2218.49C1425.83 2221.28 1432.81 2227.6 1438.29 2232.54C1443.76 2237.48 1451.4 2244.5 1455.25 2248.14C1468.85 2261.01 1519.37 2305.45 1528.25 2312.36C1550.12 2329.39 1576.35 2344.36 1601.9 2354.42C1626.56 2364.13 1650.29 2369.17 1682.39 2371.52C1712.43 2373.72 1727.6 2376.67 1755.25 2385.71C1775.41 2392.3 1793.28 2400.54 1829.92 2420.15C1873.66 2443.55 1903.81 2458.64 1909.52 2459.96C1913.51 2460.89 1937.93 2464.03 1938.4 2463.67C1938.49 2463.61 1938.71 2462.71 1938.9 2461.67C1939.17 2460.21 1933.25 2455.5 1912.25 2440.47C1887.47 2422.74 1885.22 2420.89 1884.92 2417.96L1884.6 2414.76L1887.92 2416.98C1896.14 2422.48 1912.02 2429.27 1921 2431.12C1944.97 2436.06 1964.59 2432 2006.75 2413.34C2018.57 2408.1 2031.4 2402.74 2035.25 2401.43C2046.15 2397.71 2045.48 2398.05 2043.75 2397.1C2042.92 2396.64 2036.03 2393.96 2028.44 2391.15C2010.98 2384.66 2001.58 2379.86 1990.25 2371.61C1973.97 2359.78 1956.67 2352.17 1936.43 2347.94C1924.44 2345.43 1909.2 2345.13 1861.72 2346.48C1830.1 2347.38 1815.57 2346.71 1796.25 2343.45C1781.3 2340.93 1773.01 2338.54 1729.25 2324.08C1706.15 2316.46 1678.47 2307.43 1667.75 2304.02C1634.51 2293.47 1591.29 2278.93 1590.3 2277.97C1589.7 2277.39 1589.78 2276.62 1590.52 2275.88C1591.41 2274.99 1593.41 2275.12 1598.97 2276.42C1602.97 2277.36 1607.37 2278.53 1608.75 2279.02C1610.12 2279.51 1618.45 2282.17 1627.25 2284.93C1702.05 2308.39 1740.16 2317.03 1787.25 2321.2C1795.1 2321.9 1827.97 2322.46 1870.25 2322.63C1929.78 2322.86 1941.37 2323.13 1947.75 2324.49C1962.45 2327.61 1976.11 2333.53 1991.68 2343.51C2009.98 2355.24 2026.17 2362.35 2045.01 2366.95C2063.46 2371.44 2120.75 2383.27 2139.25 2386.4C2140.9 2386.68 2144.72 2387.4 2147.75 2388.01C2150.77 2388.62 2154.6 2389.29 2156.25 2389.51C2159.19 2389.89 2219.1 2401.67 2223.5 2402.73C2226.51 2403.45 2226.33 2404.59 2223 2405.87C2218.58 2407.57 2215.24 2407.91 2196.75 2408.53C2187.12 2408.86 2176.55 2409.32 2173.25 2409.56C2169.95 2409.79 2160.27 2410.25 2151.75 2410.56C2143.22 2410.88 2134 2411.33 2131.25 2411.56C2128.5 2411.79 2120.17 2412.24 2112.75 2412.55C2088.45 2413.58 2068.12 2416.09 2056.46 2419.5C2033.37 2426.24 2013.69 2441.27 2005.05 2458.75C2001.6 2465.74 2001.25 2467.19 2001.25 2474.5C2001.25 2481.48 2001.67 2483.42 2004.38 2489.05C2010.19 2501.1 2019.9 2507.85 2034.69 2510.12C2044.45 2511.62 2054.66 2510.31 2078.29 2504.5C2088.25 2502.06 2096.71 2500.05 2097.07 2500.05C2097.44 2500.05 2097.75 2504.23 2097.75 2509.34C2097.75 2520.5 2100.06 2526.26 2105.73 2529.23C2112.64 2532.84 2120.31 2531.57 2161.23 2520.01C2173.11 2516.66 2183.24 2514.06 2183.75 2514.23C2184.25 2514.41 2181.1 2519.73 2176.74 2526.05C2172.39 2532.38 2167.92 2539.02 2166.82 2540.8L2164.81 2544.05H2175.15C2199.83 2544.05 2226.21 2535.76 2252.47 2519.75L2261.69 2514.13L2263.22 2516.32C2264.06 2517.52 2264.72 2518.96 2264.68 2519.53C2264.62 2520.36 2230.97 2551.8 2213.75 2567.12C2209.8 2570.63 2208.92 2572.42 2210.62 2573.48C2211.1 2573.77 2215.49 2572.43 2220.37 2570.49C2225.25 2568.54 2238.47 2563.4 2249.75 2559.06C2261.02 2554.72 2273.14 2550.03 2276.67 2548.62C2280.2 2547.22 2283.28 2546.25 2283.5 2546.47C2284.65 2547.62 2280.79 2551.77 2273.65 2557.06C2229.36 2589.9 2176.09 2605.6 2115.31 2603.72C2078.53 2602.58 2052.04 2597.97 1978.75 2579.94C1941.9 2570.87 1919.32 2564.78 1864.25 2549.05C1826.67 2538.31 1817.93 2536.14 1811.25 2535.87C1804.71 2535.61 1803.25 2535.82 1803.25 2537.03C1803.25 2537.86 1811.03 2543.37 1821.06 2549.64C1830.85 2555.76 1839.3 2561.21 1839.83 2561.74C1840.46 2562.36 1836.29 2565.17 1828.1 2569.63C1810.13 2579.43 1802.41 2586.95 1800.3 2596.77C1799.43 2600.76 1797.29 2600.28 1830.22 2603.57C1844.5 2604.99 1856.33 2606.31 1856.51 2606.49C1858.01 2607.99 1813.61 2614.72 1785.75 2617.23C1767.36 2618.88 1707.89 2618.88 1689.75 2617.22C1635.8 2612.31 1586.05 2603.26 1532.82 2588.69C1527.64 2587.27 1523.81 2586.5 1524.32 2586.98C1525.88 2588.45 1557.81 2611.01 1572.43 2620.96C1604.09 2642.52 1613.73 2649.34 1622.7 2656.51C1656.53 2683.54 1679.15 2712.03 1695.02 2747.55C1711.02 2783.39 1716.54 2815.55 1720.72 2897.55C1722.58 2933.93 1722.78 2937.43 1723.89 2953.55C1724.5 2962.35 1725.28 2970.1 1725.63 2970.76C1725.99 2971.42 1729.39 2964.89 1733.21 2956.26C1763.81 2886.92 1788.41 2835.07 1799.38 2816.79C1818.19 2785.43 1842.46 2752.2 1861.21 2732.16C1866.78 2726.2 1878.87 2715.85 1879.51 2716.49C1879.74 2716.71 1875.19 2733.02 1869.42 2752.72C1849.68 2820.05 1840.66 2855.54 1832.84 2896.55C1816.08 2984.43 1816.2 2983.58 1820.75 2982.79C1821.6 2982.64 1824.27 2977.81 1826.95 2971.54C1829.54 2965.5 1832.79 2958.08 1834.16 2955.05C1835.54 2952.03 1839.55 2943.03 1843.06 2935.05C1872 2869.42 1916.06 2784.08 1949.69 2728.55C1958.17 2714.55 1989.63 2667.05 1990.43 2667.05C1991.93 2667.05 1980.98 2732.61 1973.24 2770.05C1971.93 2776.38 1970.61 2782.99 1970.3 2784.75C1969.05 2791.84 1960.36 2829.88 1955.26 2850.55C1947.03 2883.9 1928.17 2950.37 1916.95 2985.55C1913.49 2996.4 1913.4 2997.25 1915.7 2996.88C1916.92 2996.68 1922.44 2990.57 1929.56 2981.55C1936.07 2973.3 1942.04 2966.43 1942.84 2966.27C1943.63 2966.12 1945.04 2966.57 1945.97 2967.27C1947.51 2968.45 1947.08 2970.41 1940.67 2991.55C1936.83 3004.2 1928.96 3030.53 1923.17 3050.05C1911.1 3090.81 1910.17 3093.95 1904.83 3111.55C1902.66 3118.7 1897.88 3134.68 1894.2 3147.05C1890.52 3159.43 1884.24 3180.35 1880.24 3193.55C1876.23 3206.75 1870.17 3227 1866.75 3238.55C1863.34 3250.1 1859.72 3262.03 1858.72 3265.05L1856.91 3270.55L1859.66 3270.85C1865.05 3271.44 1923.28 3261.72 1957.25 3254.56C2014.13 3242.57 2082.55 3224.81 2090.3 3220.02C2097.1 3215.82 2097.93 3210.85 2095.21 3190.84C2081.89 3092.9 2057.8 2994.56 2024.24 2901.05C2017.02 2880.93 2015.2 2871.68 2016.05 2859.26C2016.38 2854.47 2019.85 2835.03 2023.77 2816.05C2033.93 2766.94 2044.97 2711.03 2050.82 2679.05C2057.78 2641.05 2058.58 2638.26 2063.56 2634.55C2066.07 2632.69 2067.39 2632.59 2083.25 2633.03C2120.53 2634.07 2157.75 2633.51 2170.75 2631.71C2213.03 2625.85 2253.01 2613.03 2281.25 2596.27C2299.43 2585.49 2325.31 2562.44 2339.15 2544.72C2358.68 2519.71 2373.65 2488.88 2379.82 2460.98C2382.86 2447.25 2383.55 2422.56 2381.29 2409.03C2380.35 2403.4 2378.5 2395.5 2377.18 2391.46C2375.87 2387.42 2375.02 2383.51 2375.3 2382.77C2375.58 2382.04 2381.99 2379.51 2389.53 2377.16C2424.41 2366.29 2443.48 2351.72 2455.2 2326.96C2461.43 2313.83 2463.08 2305.67 2463.08 2288.05C2463.08 2269.69 2461.36 2261.77 2454.29 2247.55C2446.43 2231.75 2437.07 2221.43 2399.75 2187.36C2366.03 2156.59 2363.43 2152.35 2364.93 2130.46C2365.72 2118.92 2369.91 2083.51 2372.29 2068.28C2374.61 2053.35 2379.34 2046.55 2394.4 2036.42C2410.69 2025.47 2421.85 2011.55 2428.37 1994.05C2430.12 1989.38 2434.28 1973.16 2437.62 1958C2448.61 1908.16 2449.55 1905.97 2467.64 1888.05C2500.6 1855.4 2521.46 1821.34 2538.9 1771.68C2562.72 1703.85 2569.28 1629.92 2558.65 1549.05C2547.49 1464.08 2525.74 1409.04 2482.25 1355.74C2477.85 1350.34 2471.45 1342.5 2468.03 1338.3C2456.33 1323.98 2454.64 1318.21 2454.29 1291.58C2453.91 1263.41 2450.93 1249.36 2441.21 1230.05C2423.77 1195.4 2387.63 1168.84 2338.75 1154.72C2301.21 1143.89 2256.55 1142.25 2214.31 1150.16C2198.19 1153.18 2187.1 1153.67 2181.11 1151.64C2174.84 1149.5 2173.04 1148.15 2120.46 1105.94C2080.45 1073.82 2075.87 1069.84 2073.79 1065.44C2070.43 1058.31 2055.56 1023.94 2048.24 1006.39C2028.49 959.025 2013.28 892.302 2010.31 840.053C2007.65 793.288 2007.34 790.483 2003.62 780.167C2000.82 772.411 1995.71 765.219 1987.45 757.397C1981.19 751.473 1967.92 741.816 1961.09 738.221L1958.94 737.086L1960.72 742.82ZM1553.25 1154.53C1519.53 1163.23 1487.45 1182.35 1459.73 1210.27C1430.64 1239.56 1410.24 1276.29 1402.81 1312.75C1399.88 1327.14 1400.08 1328.8 1403.93 1322.05C1439.62 1259.52 1471.22 1220.89 1515.25 1185.94C1527.27 1176.4 1550.6 1161.43 1562 1155.94C1571.12 1151.55 1567.24 1150.92 1553.25 1154.53ZM1584.87 1217.1C1537.04 1226.67 1505.03 1254.6 1490.98 1299.05C1489.85 1302.63 1487.7 1309.52 1486.2 1314.36C1484.7 1319.2 1481.77 1325.8 1479.69 1329.01C1472.14 1340.7 1469.01 1343.3 1443.51 1359.02C1432.73 1365.67 1431.87 1366.42 1432.88 1368.31C1433.97 1370.34 1434.32 1370.36 1471.61 1369.66C1588.35 1367.48 1601.93 1366.46 1634.25 1357.48C1654.26 1351.92 1685.93 1338.44 1695.44 1331.44C1697.54 1329.89 1699.44 1328.5 1699.68 1328.33C1699.92 1328.16 1699.67 1327.58 1699.12 1327.03C1698.47 1326.38 1693.91 1327.75 1685.76 1331.05C1678.95 1333.8 1673.24 1336.05 1673.06 1336.05C1672.89 1336.05 1672.74 1334.37 1672.73 1332.3C1672.72 1330.24 1672.29 1327.88 1671.77 1327.07C1670.99 1325.82 1670.29 1326.08 1667.54 1328.65C1654.33 1340.99 1653.12 1341.68 1639.36 1344.59C1617.53 1349.22 1603.28 1351.16 1587.25 1351.72C1572.46 1352.23 1570.81 1352.11 1565.5 1350.09C1558.52 1347.44 1550.17 1340.09 1546.54 1333.39C1543.02 1326.91 1540.87 1318.15 1540.09 1307.11C1539.73 1302.09 1539.12 1297.78 1538.72 1297.54C1536.87 1296.4 1526.4 1315.19 1524.69 1322.73C1523.46 1328.14 1523.22 1339.4 1524.24 1344.01L1524.91 1347.05H1501.74C1489 1347.05 1478.74 1346.72 1478.92 1346.3C1480.34 1343.23 1496.6 1311.44 1499 1307.05C1500.65 1304.03 1503.61 1298.63 1505.57 1295.05C1524.31 1260.9 1552.22 1237.71 1582.23 1231.37C1587.24 1230.31 1593.25 1230 1603.25 1230.31C1615.06 1230.67 1618.57 1231.17 1625.75 1233.5C1652.36 1242.14 1673.47 1260.35 1691.59 1290.28C1698.31 1301.39 1703.01 1306.65 1708.83 1309.59C1716.39 1313.43 1721.8 1312.74 1745.68 1304.87L1755.12 1301.76L1752.18 1299.41C1745.45 1294.02 1683.83 1250.28 1666.52 1238.61C1645.43 1224.39 1634.6 1218.79 1623.93 1216.57C1614.03 1214.52 1596.6 1214.75 1584.87 1217.1ZM1586.01 1272.34C1582.3 1275.1 1578.75 1279.34 1578.75 1281.01C1578.75 1283.12 1581.71 1287.9 1586.82 1294.05L1591.9 1300.16L1600.58 1292.42C1605.34 1288.16 1609.87 1284.13 1610.62 1283.46C1611.75 1282.45 1610.49 1281.23 1603.62 1276.66C1593.28 1269.79 1590.39 1269.08 1586.01 1272.34ZM2400.75 1322.27C2400.75 1322.98 2401.67 1325.06 2402.8 1326.9C2403.92 1328.75 2406.46 1334.15 2408.43 1338.9C2412.96 1349.79 2413.51 1357.62 2410.7 1371.04C2409.61 1376.23 2408.85 1380.86 2409 1381.32C2409.28 1382.15 2410.26 1380.86 2422.09 1364.05C2435.45 1345.06 2436.75 1343.13 2436.75 1342.23C2436.75 1341.71 2429.66 1337.24 2421 1332.28C2400.43 1320.53 2400.75 1320.69 2400.75 1322.27ZM2339.77 1358.8C2339.78 1359.77 2340.21 1369.78 2340.71 1381.05C2341.22 1392.33 2341.93 1409.43 2342.3 1419.05C2342.67 1428.68 2343.26 1443.98 2343.61 1453.05L2344.25 1469.55L2347.62 1469.88L2351 1470.2L2350.34 1455.38C2349.98 1447.22 2349.49 1438.08 2349.25 1435.05C2349.02 1432.03 2348.04 1413.24 2347.09 1393.3L2345.35 1357.05H2342.55C2340.54 1357.05 2339.75 1357.55 2339.77 1358.8ZM2466.75 1390.3C2466.76 1391.54 2468.08 1398.85 2469.69 1406.55C2481.57 1463.47 2486.11 1485.01 2488.26 1494.77C2489.63 1500.93 2490.75 1506.22 2490.75 1506.52C2490.75 1506.82 2483.61 1503.49 2474.88 1499.12C2460.08 1491.71 2458.87 1491.28 2456.88 1492.67C2455.71 1493.49 2454.75 1494.81 2454.75 1495.59C2454.75 1496.37 2459.65 1507.03 2465.64 1519.28C2478.08 1544.73 2483.46 1557.12 2487.07 1568.63C2489.9 1577.65 2493.05 1593.08 2492.23 1593.9C2491.94 1594.19 2489.57 1592.41 2486.97 1589.93C2484.37 1587.45 2476.77 1580.36 2470.07 1574.17L2457.89 1562.91L2455.32 1564.6C2453.9 1565.53 2452.75 1567.1 2452.75 1568.1C2452.75 1569.09 2454.08 1575.68 2455.7 1582.73C2460.64 1604.16 2466.05 1631.1 2467.71 1642.55C2468.26 1646.4 2469.36 1653.83 2470.14 1659.05C2473.64 1682.5 2474.21 1691.28 2474.2 1721.55C2474.18 1750.64 2473 1767.73 2470.16 1780.05L2469.59 1782.55L2472.15 1779.76C2475.88 1775.71 2486.9 1756.8 2493.35 1743.38C2525.85 1675.77 2536.38 1589.98 2521.84 1511.05C2514.83 1472.95 2500.03 1434.19 2482.62 1408.26C2477.87 1401.19 2467.76 1388.05 2467.07 1388.05C2466.89 1388.05 2466.75 1389.07 2466.75 1390.3ZM1974.34 1417.09C1972.74 1417.57 1969.93 1419.42 1968.09 1421.2C1963.3 1425.85 1963.38 1431.1 1968.32 1436.87C1970.29 1439.17 1972.28 1441.05 1972.74 1441.05C1974.43 1441.05 1984.74 1429.46 1985.78 1426.39C1986.6 1423.94 1986.51 1422.42 1985.35 1419.64C1984.04 1416.52 1983.42 1416.06 1980.55 1416.14C1978.73 1416.19 1975.94 1416.62 1974.34 1417.09ZM1062.6 1494.19C1058.27 1499.48 1048.81 1513.95 1045.84 1519.82C1041.51 1528.4 1036.9 1541.01 1035.34 1548.55C1033.75 1556.27 1033.35 1571.41 1034.62 1575.98C1035.31 1578.44 1037.75 1580.12 1037.75 1578.14C1037.75 1577.55 1044.27 1557.83 1052.25 1534.32C1060.23 1510.81 1066.62 1491.18 1066.46 1490.7C1066.3 1490.22 1064.56 1491.79 1062.6 1494.19ZM2111.67 1498.96C2108.81 1502.2 2105.64 1506.18 2104.62 1507.78C2102.79 1510.67 2102.8 1510.74 2105.2 1513.99C2108.51 1518.48 2111.43 1520.35 2114.08 1519.69C2115.3 1519.38 2120.26 1516.36 2125.1 1512.99C2133.48 1507.14 2133.81 1506.77 2132.06 1505.2C2131.05 1504.29 2127.6 1501.19 2124.4 1498.3C2121.2 1495.42 2118.2 1493.05 2117.72 1493.05C2117.25 1493.05 2114.53 1495.71 2111.67 1498.96ZM2034.86 1513.06C2024.59 1521.18 2023.33 1526.62 2030.09 1533.77L2034.44 1538.37L2038.73 1533.96C2049.45 1522.93 2050.39 1519.23 2044.07 1512.91L2040.09 1508.93L2034.86 1513.06ZM1956.13 1523.55C1944.93 1537.83 1944.53 1540.02 1951.81 1547.12C1955.97 1551.17 1957.52 1552.05 1960.46 1552.05C1967.63 1552.05 1977.17 1538.86 1975.32 1531.5C1974.73 1529.14 1964.09 1516.05 1962.77 1516.05C1962.36 1516.05 1959.37 1519.43 1956.13 1523.55ZM2246.75 1604.62C2223.92 1619.82 2204.64 1632.84 2203.91 1633.53C2202.8 1634.59 2202.79 1635.16 2203.9 1636.93C2204.63 1638.1 2205.62 1639.05 2206.1 1639.05C2207.33 1639.05 2291.75 1582.77 2291.75 1581.95C2291.75 1581.58 2290.96 1580.31 2290 1579.12L2288.25 1576.97L2246.75 1604.62ZM2361.58 1586.8C2363.22 1588.87 2369.82 1596.63 2376.24 1604.05C2382.66 1611.48 2393.77 1624.44 2400.94 1632.86C2408.11 1641.27 2414.15 1647.98 2414.37 1647.76C2414.99 1647.14 2412.3 1640.09 2408.74 1633C2400.08 1615.77 2385.94 1599.88 2369.78 1589.24C2364.62 1585.84 2359.99 1583.05 2359.49 1583.05C2358.99 1583.05 2359.93 1584.74 2361.58 1586.8ZM1893.75 1599.62C1867.58 1605.42 1853.43 1609.07 1849.25 1611.09C1847.05 1612.15 1843.35 1615.23 1841.03 1617.94L1836.8 1622.86L1843.11 1623.96C1864.46 1627.67 1881.4 1622.62 1906.03 1605.17C1913.77 1599.69 1915.49 1596.77 1911.24 1596.36C1910.14 1596.26 1902.27 1597.72 1893.75 1599.62ZM2069.3 1604.32C2061.69 1611.6 2061.3 1613.38 2065.94 1619.41C2067.7 1621.69 2069.19 1623.66 2069.26 1623.79C2069.33 1623.92 2070.72 1624.3 2072.33 1624.62C2075.13 1625.18 2075.5 1624.82 2079.89 1617.38C2086.5 1606.19 2086.52 1605.99 2081.77 1601.69C2079.55 1599.69 2077.32 1598.05 2076.8 1598.05C2076.28 1598.05 2072.9 1600.87 2069.3 1604.32ZM1957.75 1653.12C1938.77 1660.74 1919.5 1668.35 1914.91 1670.03C1910.33 1671.71 1888.32 1680.33 1866 1689.2L1825.43 1705.32L1828.87 1706.99C1864.84 1724.49 1933.14 1702.67 1976.89 1659.71C1986.3 1650.46 1995.6 1639 1993.55 1639.15C1992.84 1639.21 1976.72 1645.49 1957.75 1653.12ZM1550.75 1659.43C1494.97 1678.31 1454.49 1697.92 1418.25 1723.62C1344.8 1775.7 1308.44 1838.97 1303.22 1923.8C1302.84 1929.99 1302.75 1935.05 1303.03 1935.05C1303.31 1935.05 1305.18 1930.95 1307.19 1925.94C1312.96 1911.52 1315.6 1905.72 1324.9 1887.05C1359.77 1817.06 1411.25 1759.15 1482.19 1710.12C1509.21 1691.44 1527.81 1680.43 1559.29 1664.5C1571.71 1658.21 1581.17 1652.84 1580.96 1652.19C1580.22 1649.98 1574.99 1651.23 1550.75 1659.43ZM1893.25 1990.56C1866.66 1994.2 1842.83 2001.24 1819.4 2012.38C1783.61 2029.39 1765.93 2044.88 1749.85 2073.3C1747.73 2077.06 1747.06 2079.04 1747.92 2079.02C1748.65 2079 1752.4 2078.56 1756.25 2078.04C1791.83 2073.22 1812.58 2075.45 1835.25 2086.52C1857.26 2097.26 1872.33 2111.62 1896.45 2144.82C1912.7 2167.18 1918 2175.48 1927.24 2193.05C1936.75 2211.11 1939.11 2214.69 1945.18 2220.3C1953.11 2227.61 1965.44 2229.87 1979.25 2226.53C1987.1 2224.64 2003.72 2224.65 2011.29 2226.56C2025.83 2230.22 2037.91 2238.39 2063.29 2261.7C2082.76 2279.59 2106.16 2299 2130.25 2317.23C2146.47 2329.52 2168.36 2342 2185.25 2348.59C2206.66 2356.94 2238.76 2361.25 2262.75 2358.99C2267.42 2358.55 2275.52 2357.9 2280.75 2357.55C2285.97 2357.2 2298.57 2356.04 2308.75 2354.97C2318.92 2353.9 2329.5 2352.79 2332.25 2352.5C2343.83 2351.28 2373.18 2346.75 2383.8 2344.53C2424.35 2336.07 2443.69 2307 2431.62 2272.64C2423.12 2248.46 2408.61 2232.18 2327.25 2155.55C2317.35 2146.23 2304.07 2133.59 2297.75 2127.47C2242.3 2073.79 2214.24 2051.97 2174.25 2031.44C2156.57 2022.36 2149.11 2019.77 2134.25 2017.56C2115.8 2014.81 2110.39 2016.03 2106.62 2023.81C2101.15 2035.12 2105.96 2043.5 2152.75 2104.05C2161.89 2115.88 2172.94 2130.24 2177.31 2135.96C2181.67 2141.69 2188.93 2151.14 2193.42 2156.96C2197.92 2162.79 2203.5 2170.62 2205.83 2174.37C2209.77 2180.72 2209.94 2181.29 2208.39 2182.84C2206.83 2184.39 2205.67 2183.46 2191.1 2169.03C2182.5 2160.52 2167.13 2145 2156.94 2134.55C2118.21 2094.84 2078.66 2056.08 2064.24 2043.7C2027.26 2011.93 1995 1996.8 1950.61 1990.38C1941.49 1989.06 1903.35 1989.18 1893.25 1990.56ZM1430.16 2077.66C1432.61 2098.95 1442.62 2124.14 1455.36 2141.05C1472.06 2163.25 1492.01 2178.51 1531.25 2199.09C1563.4 2215.95 1597.98 2228.71 1639.46 2239.02C1657.38 2243.48 1659.98 2243.82 1659.12 2241.58C1658.46 2239.85 1647.1 2233.83 1589.25 2204.5C1565.6 2192.52 1544.45 2181.6 1542.25 2180.25C1531.25 2173.47 1521.74 2162.94 1512.72 2147.55C1493.45 2114.69 1480.09 2102.45 1430.86 2072.61C1429.72 2071.92 1429.6 2072.79 1430.16 2077.66ZM1646.37 2086.1C1638.83 2087.99 1629.11 2094.02 1622.51 2100.88C1608.06 2115.91 1599.42 2138.79 1602.52 2153.82C1605.82 2169.79 1622.84 2191.67 1643.25 2206.18C1674.04 2228.08 1700.9 2242.79 1735.25 2256.57C1770.6 2270.75 1804.52 2278.99 1842.7 2282.65C1862.19 2284.52 1905.92 2284.34 1909.25 2282.37C1911.72 2280.91 1910.67 2280.47 1902.52 2279.56C1895.04 2278.72 1885.74 2274.01 1881.13 2268.73C1877.3 2264.34 1869.82 2249.62 1867.63 2242.16C1866.15 2237.12 1859.7 2231.43 1849.49 2226.16C1838.65 2220.57 1833.17 2222.18 1819.49 2234.97C1814.4 2239.74 1812.48 2242.34 1811.19 2246.23L1809.5 2251.3L1803.88 2250.64C1792.3 2249.29 1786.28 2243.91 1782.54 2231.6C1776.39 2211.29 1769.78 2204.05 1757.42 2204.05C1753.03 2204.05 1750.48 2204.79 1745.07 2207.61C1741.32 2209.56 1736.99 2212.36 1735.46 2213.83C1731.97 2217.17 1730.47 2216.41 1726.05 2209.1C1719.57 2198.4 1718.12 2191.29 1715.79 2158.88C1715.25 2151.36 1714.07 2141.91 1713.16 2137.88C1708.1 2115.29 1692.27 2095.83 1672.56 2087.95C1666.49 2085.52 1652.59 2084.54 1646.37 2086.1ZM2011.75 2307.55V2350.05H2040.25C2055.92 2350.05 2068.75 2349.85 2068.75 2349.61C2068.75 2349.36 2066.13 2344.97 2062.93 2339.86C2059.72 2334.74 2054.03 2324.93 2050.27 2318.05C2041.93 2302.8 2033.78 2289.39 2028.39 2282.05C2023.72 2275.69 2013.84 2265.05 2012.59 2265.05C2012.13 2265.05 2011.75 2284.18 2011.75 2307.55Z" fill="#F9F0DF"/>
<path d="M3307.57 1030.27C3315.69 1047.04 3320.71 1064.21 3322.62 1081.79C3324.63 1099.32 3322.76 1116.59 3317 1133.6C3311.29 1150.71 3300.88 1166.96 3285.78 1182.37C3270.83 1197.82 3250.44 1211.85 3224.63 1224.46C3201.06 1235.98 3178.41 1243.3 3156.68 1246.42C3135.08 1249.59 3115 1248.84 3096.44 1244.18C3077.92 1239.61 3061.41 1231.3 3046.9 1219.24C3032.52 1207.23 3020.76 1191.76 3011.6 1172.84C3001.3 1151.57 2996.33 1130.9 2996.68 1110.84C2997.03 1090.78 3001.78 1072.64 3010.93 1056.42C3020.07 1040.19 3032.69 1027.2 3048.79 1017.45L3086.07 1094.46C3078.26 1100.55 3073.93 1107.74 3073.08 1116.01C3072.33 1124.25 3073.94 1132.48 3077.93 1140.73C3085.91 1157.22 3098.86 1165.81 3116.78 1166.51C3134.83 1167.25 3155.83 1161.89 3179.77 1150.42L3178.95 1148.73C3168.37 1149.34 3158.16 1147.46 3148.3 1143.1C3138.44 1138.74 3129.44 1132.45 3121.3 1124.25C3113.17 1116.04 3106.45 1106.46 3101.14 1095.49C3092.75 1078.16 3089.29 1061.1 3090.76 1044.31C3092.33 1027.48 3098.14 1012.12 3108.19 998.235C3118.33 984.305 3132.09 973.076 3149.47 964.547C3169.85 954.566 3190.08 950.729 3210.17 953.035C3230.25 955.342 3248.75 963.098 3265.67 976.305C3282.58 989.511 3296.55 1007.5 3307.57 1030.27ZM3248.82 1059.4C3245.05 1051.62 3239.91 1045.55 3233.41 1041.19C3226.94 1036.91 3219.83 1034.52 3212.06 1034C3204.34 1033.57 3196.66 1035.27 3189.02 1039.08C3181.38 1042.89 3175.33 1047.96 3170.88 1054.28C3166.46 1060.69 3163.91 1067.71 3163.2 1075.34C3162.55 1083.06 3164.1 1090.81 3167.86 1098.59C3170.63 1104.3 3174.18 1109.12 3178.5 1113.04C3182.92 1116.91 3187.82 1119.75 3193.2 1121.54C3198.71 1123.38 3204.38 1124.1 3210.21 1123.71C3216.17 1123.37 3221.99 1121.77 3227.66 1118.91C3235.3 1115.1 3241.32 1109.98 3245.73 1103.57C3250.15 1097.15 3252.68 1090.08 3253.34 1082.36C3254 1074.64 3252.49 1066.99 3248.82 1059.4Z" fill="#C95D43"/>
<path d="M2743.55 775.448L2994.65 577.438L3048.41 645.607L2946.89 725.662L2949.59 729.095L3110.67 724.566L3173.32 804.015L2994.6 807.348L2923.77 1003.99L2859.57 922.576L2909.26 791.923L2862.04 792.568L2797.31 843.617L2743.55 775.448Z" fill="#C95D43"/>
<path d="M2388.52 504.228L2567.8 239.431L2758.64 368.638L2719.42 426.563L2600.47 346.027L2569.65 391.539L2678.78 465.422L2639.56 523.346L2530.44 449.463L2499.62 494.975L2618.06 575.161L2578.84 633.085L2388.52 504.228Z" fill="#C95D43"/>
<path d="M2384.96 283.933L2302.68 252.565C2304.69 245.534 2305.49 238.764 2305.07 232.256C2304.75 225.785 2303.16 219.721 2300.31 214.064C2297.59 208.348 2293.57 203.251 2288.26 198.776C2282.98 194.203 2276.45 190.433 2268.67 187.467C2255.05 182.276 2242.27 181.189 2230.31 184.207C2218.45 187.261 2207.74 194.038 2198.16 204.537C2188.69 215.073 2180.65 228.998 2174.05 246.312C2167.08 264.598 2163.67 280.845 2163.83 295.052C2164.12 309.198 2167.74 321.164 2174.71 330.949C2181.71 340.636 2191.78 347.982 2204.91 352.988C2212.4 355.843 2219.46 357.477 2226.1 357.891C2232.77 358.207 2238.98 357.4 2244.73 355.47C2250.48 353.54 2255.68 350.565 2260.33 346.545C2265.12 342.465 2269.22 337.401 2272.64 331.352L2354.71 363.303C2348.92 375.577 2340.45 387.112 2329.32 397.907C2318.22 408.605 2304.92 417.348 2289.41 424.135C2274.03 430.862 2256.8 434.43 2237.71 434.838C2218.61 435.246 2198.12 431.279 2176.24 422.937C2148.81 412.481 2126.44 397.215 2109.14 377.14C2091.94 357.102 2081.37 333.245 2077.44 305.567C2073.6 277.926 2077.99 247.57 2090.6 214.499C2103.28 181.233 2120.37 155.668 2141.89 137.801C2163.44 119.838 2187.34 109.173 2213.58 105.806C2239.85 102.342 2266.41 105.727 2293.26 115.961C2312.13 123.154 2328.51 132.35 2342.39 143.549C2356.28 154.748 2367.32 167.588 2375.5 182.07C2383.72 196.455 2388.73 212.235 2390.54 229.412C2392.35 246.588 2390.49 264.762 2384.96 283.933Z" fill="#C95D43"/>
<path d="M1701.69 317.244L1741.89 0L1878.82 17.3478C1902.37 20.3307 1922.43 27.2264 1939 38.0349C1955.57 48.8434 1967.74 62.9241 1975.51 80.277C1983.28 97.6299 1985.74 117.563 1982.89 140.075C1980.01 162.795 1972.52 181.31 1960.43 195.622C1948.44 209.946 1932.85 219.933 1913.66 225.582C1894.59 231.245 1872.96 232.545 1848.8 229.484L1767.01 219.122L1775.49 152.204L1839.93 160.367C1850.05 161.649 1858.83 161.503 1866.27 159.927C1873.82 158.261 1879.86 154.882 1884.39 149.789C1889.02 144.71 1891.91 137.678 1893.04 128.693C1894.2 119.606 1893.17 111.973 1889.96 105.796C1886.88 99.5293 1881.89 94.5953 1875 90.9945C1868.23 87.3035 1859.78 84.8169 1849.66 83.5348L1819.3 79.6885L1787.82 328.155L1701.69 317.244ZM1906.03 195.183L1966.89 350.84L1873.33 338.987L1814.32 183.565L1906.03 195.183Z" fill="#C95D43"/>
<path d="M1601.19 162.819C1605.21 198.193 1601.71 228.813 1590.71 254.68C1579.7 280.443 1563.22 300.908 1541.26 316.075C1519.3 331.138 1493.94 340.301 1465.18 343.563C1436.22 346.848 1409.34 343.559 1384.55 333.695C1359.84 323.716 1339.24 307.405 1322.74 284.763C1306.33 262.005 1296.13 233.043 1292.14 197.876C1288.13 162.503 1291.58 131.94 1302.48 106.188C1313.48 80.3216 1329.91 59.8623 1351.78 44.8107C1373.73 29.6439 1399.19 20.4179 1428.15 17.1328C1456.91 13.8711 1483.68 17.1721 1508.48 27.0357C1533.26 36.7959 1553.91 53.049 1570.42 75.795C1586.92 98.4375 1597.18 127.446 1601.19 162.819ZM1512.45 172.886C1510.29 153.854 1505.94 138.11 1499.39 125.652C1492.94 113.08 1484.42 103.989 1473.83 98.3808C1463.33 92.6572 1450.94 90.605 1436.67 92.2241C1422.4 93.8432 1410.74 98.6233 1401.68 106.564C1392.72 114.39 1386.45 125.159 1382.88 138.869C1379.39 152.465 1378.73 168.778 1380.88 187.81C1383.04 206.841 1387.35 222.643 1393.81 235.216C1400.35 247.673 1408.87 256.764 1419.37 262.487C1429.96 268.096 1442.39 270.09 1456.66 268.471C1470.94 266.852 1482.55 262.13 1491.51 254.304C1500.57 246.363 1506.83 235.594 1510.32 221.999C1513.9 208.288 1514.61 191.917 1512.45 172.886Z" fill="#C95D43"/>
<path d="M1027.55 452.889L920.097 151.703L1131.87 76.1523L1155.37 142.037L1025.37 188.416L1043.84 240.183L1160.9 198.42L1184.4 264.305L1067.34 306.067L1109.31 423.719L1027.55 452.889Z" fill="#C95D43"/>
<path d="M653.054 696.682L463.711 438.984L649.434 302.524L690.853 358.896L575.091 443.952L607.634 488.244L713.834 410.214L755.252 466.585L649.053 544.615L681.596 588.907L796.855 504.221L838.274 560.592L653.054 696.682Z" fill="#C95D43"/>
<path d="M406.708 975.838L164.327 767.248L220.956 701.445L315.636 782.925L390.598 695.82L295.918 614.339L352.547 548.536L594.928 757.127L538.299 822.929L443.619 741.449L368.657 828.555L463.337 910.035L406.708 975.838Z" fill="#C95D43"/>
<path d="M132.245 1017.69C122.614 1013.65 113.609 1013.39 105.229 1016.91C96.896 1020.34 89.5039 1028.29 83.0526 1040.78C78.9428 1048.73 76.5448 1055.75 75.8585 1061.84C75.1275 1067.79 75.7591 1072.8 77.7533 1076.88C79.7475 1080.96 82.8015 1084.12 86.9152 1086.36C90.2413 1088.31 93.6499 1089.31 97.141 1089.36C100.587 1089.27 104.233 1088.22 108.077 1086.22C111.829 1084.18 115.85 1081.16 120.139 1077.16C124.429 1073.17 129.012 1068.16 133.888 1062.12L150.924 1041.4C162.377 1027.4 173.723 1016.21 184.961 1007.84C196.2 999.473 207.358 993.639 218.436 990.341C229.421 986.996 240.352 986.024 251.227 987.426C262.151 988.735 273.046 992.139 283.914 997.638C302.547 1007.38 315.947 1020.23 324.115 1036.16C332.283 1052.1 335.298 1070.41 333.16 1091.1C331.071 1111.7 323.813 1134.02 311.388 1158.07C298.629 1182.76 283.842 1202.42 267.026 1217.04C250.258 1231.58 231.663 1240.01 211.24 1242.35C190.773 1244.55 168.632 1239.55 144.817 1227.36L182.665 1154.12C191.597 1158.15 200.026 1159.75 207.951 1158.92C215.877 1158.1 223.181 1154.96 229.865 1149.51C236.596 1143.96 242.495 1136.29 247.56 1126.49C251.814 1118.26 254.356 1110.84 255.189 1104.24C256.022 1097.64 255.376 1091.98 253.251 1087.25C251.125 1082.52 247.775 1078.91 243.199 1076.43C238.805 1074.27 234.272 1073.75 229.602 1074.85C224.887 1075.81 219.634 1078.72 213.843 1083.58C207.959 1088.39 201.137 1095.47 193.378 1104.82L172.651 1129.96C154.197 1152.3 134.837 1167.42 114.572 1175.35C94.2632 1183.13 73.0352 1181.24 50.8884 1169.68C32.8076 1160.46 19.5251 1147.5 11.0412 1130.81C2.51251 1113.98 -1.07523 1094.97 0.27795 1073.75C1.67892 1052.45 8.18564 1030.56 19.7981 1008.09C31.6495 985.154 45.7378 967.301 62.063 954.529C78.3882 941.757 95.8744 934.448 114.522 932.601C133.124 930.614 151.743 934.377 170.379 943.89L132.245 1017.69Z" fill="#C95D43"/>
</svg>
