<svg width="3633" height="3243" viewBox="0 0 3633 3243" fill="none" xmlns="http://www.w3.org/2000/svg">
<path fill-rule="evenodd" clip-rule="evenodd" d="M1774.55 355.769C1660.45 358.616 1533.16 377.83 1424.55 408.602C1393.03 417.531 1346.71 432.565 1313.05 444.79C1234.95 473.155 1143.45 517.162 1068.55 562.379C999.99 603.772 926.744 656.958 870.623 706.1C864.337 711.604 854.887 719.881 849.623 724.493C818.711 751.572 769.792 800.747 736.148 838.557C699.435 879.818 657.325 932.831 632.048 969.608C576.369 1050.62 542.213 1109.57 502.549 1193.11C469.746 1262.2 441.827 1336.4 419.189 1414.67C412.39 1438.18 401.073 1483.37 398.173 1498.61C397.911 1499.98 395.887 1510.14 393.674 1521.19C387.97 1549.67 382.172 1584.32 379.049 1608.61C377.001 1624.53 376.616 1627.43 376.063 1631.11C374.506 1641.46 370.225 1691.27 368.371 1720.61C366.392 1751.92 366.701 1847.2 368.889 1880.61C374.263 1962.67 384.094 2035.37 400.664 2115.61C417.525 2197.25 447.249 2291.78 480.065 2368.11C495.051 2402.97 503.117 2420.36 519.706 2453.61C535.493 2485.25 559.475 2528.24 579.392 2560.61C596.512 2588.43 633.512 2643.73 635.455 2644.4C636.287 2644.69 640.37 2640.24 677.426 2598.7C706.835 2565.74 709.821 2562.03 736.698 2525.11C742.303 2517.41 755.953 2498.96 767.031 2484.11C792.021 2450.61 834.321 2393.31 837.53 2388.61C846.386 2375.64 860.241 2365.5 876.552 2360.05C882.763 2357.98 895.334 2357.59 910.122 2359.01L919.191 2359.88L921.386 2357.09C922.594 2355.56 924.653 2350.66 925.962 2346.2C927.272 2341.75 929.974 2332.48 931.967 2325.61C937.449 2306.7 942.215 2297.69 951.623 2288.47C960.138 2280.13 960.419 2279.52 962.965 2264.11C963.782 2259.16 965.787 2247.46 967.42 2238.11C969.053 2228.76 972.025 2211.66 974.024 2200.11C989.477 2110.81 1001.4 2055.08 1015.2 2007.61C1032.91 1946.66 1051.44 1898.79 1081.56 1836.11C1094.21 1809.8 1100.51 1795.65 1101.7 1790.94C1103.16 1785.13 1102.19 1779.61 1095.62 1756.43C1089.74 1735.69 1081.25 1701.33 1078.24 1686.11C1076.1 1675.24 1076.07 1673.79 1075.97 1563.61C1075.92 1502.28 1075.56 1449.41 1075.18 1446.11C1072.56 1423.49 1071.09 1416.04 1066.48 1402.01C1062.8 1390.83 1061.47 1379.82 1062.63 1370.29C1063.86 1360.28 1063.4 1361.86 1076.05 1323.61C1106.99 1230.04 1122.35 1188.06 1134.62 1163.46C1158.15 1116.29 1193.36 1077.68 1238.46 1049.61C1290.72 1017.07 1338.53 981.138 1372.02 949.22C1377.76 943.753 1426.1 900.1 1432.57 894.545C1457.11 873.479 1492.52 847.162 1517.55 831.393C1534.49 820.719 1587.02 790.945 1600.05 784.634C1616.26 776.781 1636.82 769.859 1663.68 763.219C1686.6 757.553 1690.46 756.696 1727.55 749.053C1759.31 742.51 1771.42 742.937 1788.35 751.2C1802.28 758.001 1817.04 775.954 1828.97 800.608C1836.07 815.29 1838.04 822.615 1837.95 834.108C1837.8 854.38 1827.8 875.848 1808.17 898.025C1804.81 901.829 1794.18 912.002 1784.55 920.63C1760.5 942.19 1753.14 949.901 1746.15 960.874C1741.57 968.054 1742 968.305 1755.81 966.469C1769.47 964.654 1822.47 964.621 1835.55 966.42C1868.27 970.921 1900.66 979.258 1927.55 990.105C1951.43 999.735 1959.93 1001.92 1973.55 1001.93C1984.59 1001.95 1989.57 1000.87 1999.55 996.335C2005.26 993.74 2014.92 985.252 2015.89 981.982C2016.2 980.951 2017.84 972.087 2019.53 962.284C2029.75 903.114 2044.9 845.869 2067.06 782.608C2069.95 774.374 2070.63 771.135 2070.22 767.597C2069.94 765.116 2066.36 754.316 2062.27 743.597C2052.58 718.205 2050.37 709.793 2050.46 698.597C2050.54 687.599 2051.98 680.764 2055.8 673.108C2066.61 651.44 2092.44 638.663 2117.6 642.539C2148.7 647.333 2172.07 663.555 2201.98 701.108C2208.71 709.557 2214.45 720.32 2217.98 731.108C2221.95 743.221 2228 781.936 2229.08 802.108C2231.06 839.098 2231.66 847.24 2233.08 856.608C2237.1 883.244 2245.39 911.857 2263.01 960.011C2267.22 971.507 2271.6 983.657 2272.75 987.011C2273.89 990.364 2275.67 994.302 2276.69 995.761C2280.59 1001.33 2349.35 1054.97 2354.33 1056.33C2358.42 1057.44 2365.6 1057.15 2380.55 1055.26C2462.43 1044.91 2553.47 1067.82 2605.29 1111.81C2646.27 1146.6 2668.63 1192.49 2671.45 1247.58C2672.16 1261.4 2672.37 1262.49 2675.4 1268.14C2677.17 1271.42 2682.62 1279.73 2687.51 1286.61C2705.44 1311.77 2716.33 1327.77 2722.44 1337.91C2742.4 1371.01 2760.79 1423.39 2770.45 1474.61C2776.16 1504.9 2778.38 1529.32 2779.2 1570.61C2780.76 1649.81 2771.82 1709.91 2749.52 1770.11C2731.22 1819.53 2705.34 1861.92 2671.31 1898.24C2666.6 1903.26 2662.22 1908.35 2661.57 1909.56C2659.74 1913 2657.93 1919.77 2654.11 1937.61C2641.54 1996.22 2625.49 2027.02 2595.95 2049.28C2588.53 2054.87 2586.49 2057.98 2584.59 2066.61C2582.47 2076.25 2583.93 2089.29 2588.14 2098.19C2590.55 2103.3 2598.71 2111.75 2619.08 2130.25C2638.93 2148.26 2647.29 2157.85 2656.68 2173.34C2671.32 2197.51 2679.09 2223.53 2680.23 2252.23C2681.31 2279.55 2676.98 2301.23 2665.77 2324.61C2658.71 2339.34 2650.16 2351.11 2636.01 2365.61C2614.58 2387.57 2601.39 2410.13 2596.86 2432.61C2596.03 2436.73 2594.97 2441.91 2594.51 2444.11C2593.01 2451.28 2586.47 2472.89 2582.85 2482.61C2564.13 2532.88 2536.65 2570.25 2496.08 2600.58C2448.72 2635.99 2391.64 2656.48 2322.05 2663.06C2310.71 2664.13 2306 2664.48 2287.05 2665.65C2276.6 2666.3 2267.92 2666.94 2267.77 2667.09C2267.32 2667.49 2249.52 2750.71 2244.03 2778.11C2242.7 2784.71 2239.78 2798.88 2237.53 2809.61C2232.99 2831.27 2232.94 2835.06 2237.02 2845.97C2242.34 2860.2 2251.97 2889.85 2260.92 2919.61C2276.8 2972.39 2293.18 3042.19 2303.05 3099.11C2308.34 3129.59 2311.83 3150.04 2312.71 3155.71C2313.28 3159.34 2314.08 3162.84 2314.48 3163.49C2315.25 3164.74 2327.8 3160.59 2359.55 3148.56C2438.88 3118.52 2541.06 3065.22 2617.05 3014.25C2665.43 2981.8 2698.42 2957.09 2746.03 2917.67C2777.45 2891.65 2805.88 2865.47 2841.57 2829.7C2904.67 2766.46 2950.46 2712.23 3004.2 2637.11C3025.13 2607.85 3059.63 2553.47 3078.74 2519.61C3155.26 2384.02 3207.15 2244.86 3237.96 2092.61C3251.68 2024.79 3261.8 1942.25 3264.06 1879.61C3264.37 1871.08 3264.84 1862.4 3265.1 1860.31C3265.64 1856.16 3265.64 1757.19 3265.11 1749.11C3264.93 1746.36 3264.46 1736.23 3264.07 1726.61C3263.67 1716.98 3263.22 1708.88 3263.07 1708.61C3262.91 1708.33 3262.46 1702.04 3262.08 1694.62C3261.69 1687.2 3261.24 1680.9 3261.08 1680.62C3260.92 1680.34 3260.49 1675.83 3260.11 1670.61C3256.72 1623.47 3245.17 1548.18 3233.04 1494.11C3227.69 1470.26 3226.72 1466.16 3221.94 1447.11C3206.86 1386.94 3189.98 1334.19 3167.04 1275.6C3145.89 1221.56 3122.65 1171.24 3094.77 1119.11C3063.07 1059.82 3024.13 998.36 2984.23 944.608C2958.36 909.766 2957.66 908.875 2929.94 875.633C2893.33 831.731 2851.95 787.964 2806.03 744.574C2788.09 727.618 2741.71 687.496 2725.16 674.608C2721.98 672.133 2715.93 667.376 2711.72 664.036C2631.24 600.295 2528.56 536.858 2437.55 494.65C2394.86 474.853 2371.21 464.629 2342.55 453.587C2303.01 438.354 2243.32 418.662 2203.55 407.731C2106.75 381.125 2007.12 364.696 1899.05 357.516C1875.41 355.945 1806.34 354.976 1774.55 355.769ZM2119.53 709.375C2121.96 717.197 2122.99 719.697 2128.08 730.108C2134.79 743.849 2136.07 749.688 2135.96 766.108C2135.85 781.808 2137.13 776.858 2122.06 820.108C2103.07 874.637 2090.54 923.52 2083.63 970.108C2080.86 988.73 2077.43 1000.79 2071.05 1014.25C2062.56 1032.18 2055.78 1040.93 2047.78 1044.28C2045.98 1045.04 2039.45 1046.97 2033.28 1048.59C2027.1 1050.2 2015.98 1053.47 2008.55 1055.85C1990.4 1061.67 1990.45 1062.03 2010.55 1069.54C2048.35 1083.65 2071.71 1097.09 2093.44 1117.21C2112.15 1134.53 2136.33 1171.51 2143.82 1194.26C2147.47 1205.31 2148.97 1218.88 2147.69 1229.09C2147.14 1233.48 2146.84 1237.23 2147.03 1237.42C2147.22 1237.61 2153.83 1234.75 2161.71 1231.06C2169.6 1227.38 2178.75 1223.12 2182.05 1221.6C2185.35 1220.08 2192.48 1216.76 2197.89 1214.22C2203.31 1211.68 2207.86 1209.61 2208.01 1209.61C2208.16 1209.61 2216.25 1205.77 2225.98 1201.07C2247.5 1190.69 2298.23 1167.1 2308.55 1162.68C2312.68 1160.91 2318.53 1158.31 2321.55 1156.91C2337.44 1149.56 2359.09 1142.35 2374.55 1139.26C2393.26 1135.52 2398.29 1135.11 2424.55 1135.18C2455.07 1135.26 2466.61 1136.64 2497.05 1143.88C2513.29 1147.75 2515.02 1148.36 2514.71 1150.14C2514.52 1151.22 2514.29 1152.17 2514.21 1152.25C2514.12 1152.32 2510 1151.77 2505.05 1151.03C2472.36 1146.09 2449.48 1146.94 2416.8 1154.33C2413.8 1155.01 2413.95 1156.24 2417.13 1157.04C2422.08 1158.28 2434.35 1164.84 2439.99 1169.27C2443.12 1171.73 2447.48 1176.52 2449.69 1179.92L2453.69 1186.11L2450.61 1186.42C2448.61 1186.63 2445.11 1185.53 2440.61 1183.27C2431.17 1178.55 2421.62 1177 2411.09 1178.49C2400.93 1179.93 2393.62 1183.51 2386.78 1190.41C2380.26 1197 2376.02 1205.25 2373.08 1217.04C2369.08 1233.07 2366.5 1237.32 2358.97 1240.19C2354.16 1242.03 2348.54 1241.69 2339.55 1239.02C2324.38 1234.52 2314.87 1223.42 2312.46 1207.4C2311.86 1203.39 2311.07 1198.12 2310.71 1195.7L2310.05 1191.3L2302.24 1197.58C2293.45 1204.66 2282.7 1216.64 2277.73 1224.91C2270.15 1237.53 2266.54 1256.34 2269.59 1267.26C2271.18 1272.94 2276.8 1278.93 2283.05 1281.61C2287.87 1283.67 2325.88 1292.62 2340.05 1295.03C2365.11 1299.28 2391.28 1299.18 2413.05 1294.73L2422.05 1292.9L2419.08 1295C2417.45 1296.16 2414.11 1298.96 2411.66 1301.22C2407.51 1305.05 2407.17 1305.74 2406.79 1311.22C2406.33 1318.01 2407.14 1319.85 2417.99 1336.51C2421.67 1342.17 2424.47 1347.02 2424.2 1347.3C2423.67 1347.82 2408.63 1340.48 2395.08 1333.09C2374.07 1321.64 2349.6 1313.6 2335.85 1313.62C2314.25 1313.66 2295.55 1328.17 2290.08 1349.14C2288.31 1355.94 2288.1 1365.45 2289.6 1370.86L2290.65 1374.61H2302.04C2308.31 1374.61 2313.63 1374.95 2313.87 1375.36C2314.24 1376 2303.47 1420.07 2300.67 1429.34C2300.14 1431.12 2300.03 1432.79 2300.44 1433.04C2300.85 1433.29 2304.75 1431.44 2309.12 1428.93C2324.05 1420.34 2330.57 1417.61 2336.14 1417.61C2340.36 1417.61 2341.75 1418.08 2343.91 1420.24C2345.36 1421.69 2347.01 1424.6 2347.58 1426.72C2349.83 1435.07 2347.34 1442.66 2329.99 1480.2C2316.57 1509.26 2314.3 1514.44 2310.6 1524.49C2308.16 1531.09 2307.85 1532.78 2308.97 1533.22C2309.75 1533.51 2319.09 1527.93 2330.05 1520.61C2340.88 1513.38 2349.97 1507.69 2350.26 1507.98C2351.28 1509 2336.03 1536.35 2310.32 1579.61C2272.53 1643.19 2217.97 1702.23 2160.33 1741.94C2122.61 1767.92 2076.34 1791.22 2033.55 1805.77C2009.66 1813.9 1964.84 1824.24 1935.05 1828.5C1896.05 1834.08 1868.51 1835.59 1805.55 1835.62C1730.87 1835.65 1677.45 1837.75 1651.05 1841.69C1586.16 1851.39 1546.53 1882.55 1524.47 1941.22C1517.91 1958.65 1514.46 1974.6 1509.05 2012.32C1507.11 2025.88 1505.31 2037.19 1505.05 2037.44C1504.79 2037.7 1503.89 2036.27 1503.05 2034.27C1494.77 2014.45 1493.03 1969.4 1499.46 1941.38C1502.86 1926.58 1511.47 1907.42 1520.92 1893.61C1527.01 1884.71 1540.44 1870.43 1549.65 1863.05C1582.18 1837 1632.41 1820.5 1697.05 1814.64C1703.1 1814.09 1719.53 1812.96 1733.55 1812.12C1776.25 1809.58 1796.98 1807.71 1823.05 1804.05C1862.36 1798.53 1906.69 1787.42 1933.3 1776.42C1939.3 1773.94 1940.55 1773.03 1940.55 1771.15V1768.87L1914.8 1769.16C1887.62 1769.47 1872.35 1768.73 1851.05 1766.09C1838.18 1764.49 1809.43 1759.24 1805.41 1757.75C1803.62 1757.09 1805.13 1755.67 1816.19 1747.62C1826.42 1740.18 1836.72 1732.8 1839.37 1731.02C1839.55 1730.9 1839.1 1729.83 1838.37 1728.65C1837.53 1727.27 1836.33 1726.64 1835.05 1726.91C1833.95 1727.13 1813.16 1732.78 1788.85 1739.46C1764.53 1746.14 1743.72 1751.61 1742.6 1751.61C1737.43 1751.61 1742.35 1748.13 1765.81 1735.18C1779.69 1727.52 1805.9 1712.85 1824.05 1702.59C1842.2 1692.32 1861.65 1681.36 1867.26 1678.23C1878.12 1672.18 1878.81 1671.63 1877.74 1669.92C1877.25 1669.15 1873.07 1669.5 1863.55 1671.13C1817.08 1679.07 1784.72 1684.53 1782.58 1684.8C1780.94 1685 1779.99 1684.57 1779.78 1683.52C1779.58 1682.47 1783.52 1678.9 1791.26 1673.12C1808.29 1660.41 1835.42 1639.2 1835.49 1638.55C1835.52 1638.24 1834.99 1637.28 1834.3 1636.42C1833.18 1635.02 1832.01 1635.21 1823.05 1638.22C1817.55 1640.07 1812.14 1641.76 1811.02 1641.99C1809.9 1642.21 1799.76 1645.37 1788.49 1649C1777.22 1652.64 1767.56 1655.6 1767.02 1655.6C1766.49 1655.59 1768.3 1654.16 1771.05 1652.41C1773.8 1650.66 1788.43 1641.03 1803.55 1631C1833.61 1611.07 1847.88 1600.36 1862.81 1586.51C1872.57 1577.45 1889.04 1559.76 1888.35 1559.07C1888.15 1558.87 1878.81 1561.66 1867.6 1565.26L1847.22 1571.82L1845.41 1569.46C1844.41 1568.17 1843.59 1566.61 1843.57 1566.01C1843.56 1565.4 1847.49 1561.18 1852.3 1556.62C1857.11 1552.06 1869.83 1539.72 1880.55 1529.21C1891.28 1518.69 1904.44 1505.97 1909.8 1500.95C1918.28 1493.01 1921.04 1489.61 1919 1489.61C1918.7 1489.61 1902.9 1495.25 1883.88 1502.15C1864.86 1509.05 1849.07 1514.46 1848.79 1514.18C1848.51 1513.9 1853.72 1508.46 1860.37 1502.08C1883.97 1479.42 1904.27 1453.66 1919.11 1427.51C1921.63 1423.06 1923.52 1419.24 1923.3 1419.02C1923.08 1418.81 1916.86 1422.26 1909.48 1426.69C1902.09 1431.13 1886.83 1440.18 1875.55 1446.8C1864.28 1453.43 1853.59 1459.73 1851.8 1460.81C1850.01 1461.89 1848.55 1462.32 1848.55 1461.76C1848.55 1460.08 1878.14 1427.52 1910.02 1394.11C1920 1383.66 1930.37 1372.63 1933.09 1369.61C1963.49 1335.69 1998.88 1305.72 2032.55 1285.39C2045.94 1277.3 2075.61 1263.1 2085.17 1260.2C2086.33 1259.85 2088.04 1258.73 2088.96 1257.71C2090.55 1255.95 2090.41 1255.81 2085.96 1254.69C2075.71 1252.11 2069.36 1246.79 2064.91 1237.08C2063.62 1234.26 2060.99 1225.18 2059.06 1216.91C2047.84 1168.78 2030.36 1135.1 2000.58 1104.23C1980.42 1083.34 1961.72 1069.8 1933.61 1055.75C1901.73 1039.82 1874.69 1031.3 1838.98 1025.93C1821.81 1023.35 1772.7 1023.35 1753.55 1025.92C1733.49 1028.63 1711.65 1033.04 1687.55 1039.28C1675.73 1042.33 1663.44 1045.51 1660.24 1046.33C1657.04 1047.15 1654.26 1047.65 1654.05 1047.44C1653.29 1046.68 1652.53 1040.86 1651.93 1031.11C1651.26 1020.28 1651.75 1017.67 1657.78 1000.11C1668.5 968.85 1684.43 940.447 1706.54 913.19C1711.93 906.545 1725.66 891.883 1737.06 880.608C1757.89 859.99 1774.76 842.224 1777.87 837.635C1779.97 834.546 1780.03 828.443 1778.01 824.534C1774.71 818.152 1765.49 804.797 1763.98 804.218C1760.15 802.748 1752.61 804.08 1722.78 811.495C1677.79 822.679 1666.21 825.398 1656.55 827.042C1649.11 828.309 1645.27 829.893 1625.62 839.799C1573.35 866.145 1529.68 893.831 1499 920.076C1492.07 925.998 1483.51 933.461 1442.61 969.232C1366.71 1035.61 1320.24 1071.55 1265.6 1106.16C1245.68 1118.77 1233.63 1128.26 1225.16 1138C1199.7 1167.27 1183.04 1203.66 1149.54 1303.11C1143.61 1320.71 1137.15 1339.52 1135.17 1344.92C1127.14 1366.93 1126.77 1380.51 1133.65 1401.01C1142.47 1427.29 1141.78 1415.83 1142.08 1541.61C1142.25 1612.27 1142.75 1657.93 1143.45 1666.26C1145.81 1694.26 1150.57 1715.24 1167.63 1772.99C1171.2 1785.07 1171.54 1795.42 1168.64 1803.86C1167.58 1806.92 1163.23 1815.65 1158.96 1823.27C1141.51 1854.37 1120.26 1899.97 1107.07 1934.61C1079.45 2007.14 1050.81 2118.81 1035.63 2213.11C1028.8 2255.53 1028.06 2260.76 1021.6 2312.11C1019.7 2327.25 1015.56 2372.16 1013.58 2399.11C1011.21 2431.35 1010.66 2436.82 1009.58 2438.57C1008.16 2440.85 1005.29 2422.29 1004.08 2403.11C1003.77 2398.16 1003.31 2390.96 1003.06 2387.11C1002.81 2383.26 1002.3 2374.26 1001.93 2367.11C1000.23 2333.93 1000.15 2333.15 998.363 2332.81C997.055 2332.56 996.217 2334.02 994.653 2339.3C988.648 2359.54 980.277 2394.35 976.049 2416.66C975.794 2418.01 975.362 2420.23 975.089 2421.61C974.273 2425.72 973.714 2429.21 970.602 2449.61C962.592 2502.11 959.553 2553.74 961.508 2604.11C962.106 2619.51 962.773 2633.24 962.99 2634.61C963.208 2635.98 963.68 2641.16 964.039 2646.11C965.822 2670.65 972.402 2715.27 979.156 2748.61C984.735 2776.14 998.007 2825.28 1005.5 2846.13L1006.57 2849.11L1004.18 2846.44C1000.72 2842.58 985.942 2818.15 978.271 2803.61C955.484 2760.42 937.318 2706.78 924.758 2645.61L923.834 2641.11L922.151 2644.93C915.712 2659.54 909.992 2696.02 907.934 2735.61C907.576 2742.48 907.132 2748.28 906.946 2748.5C905.2 2750.5 898.505 2715.09 896.782 2694.73C896.38 2689.99 896.092 2672.61 896.14 2656.11C896.216 2630.25 896.83 2615.92 899.033 2588.61C901.924 2552.77 902.939 2531.91 901.732 2533.11C901.18 2533.66 896.894 2540.45 892.207 2548.19C877.187 2573.02 863.641 2601.86 844.588 2649.57C841.192 2658.08 837.977 2665.73 837.443 2666.57C836.521 2668.03 837.003 2646.72 838.031 2640.61C838.262 2639.23 838.725 2635.41 839.059 2632.11C840.785 2615.06 845.33 2590.39 850.664 2569.11C853.926 2556.09 865.441 2521.62 881.563 2476.61C887.177 2460.93 892.357 2446.31 893.074 2444.11C893.792 2441.91 895.991 2435.64 897.961 2430.19C899.932 2424.73 901.374 2420.1 901.166 2419.89C900.836 2419.56 880.82 2444.43 859.136 2472.11C855.258 2477.06 844.403 2490.78 835.013 2502.61C825.623 2514.43 812.093 2531.53 804.946 2540.61C783.279 2568.12 731.268 2633.77 713.047 2656.61C687.864 2688.17 680.552 2697.63 680.552 2698.63C680.552 2699.93 714.737 2741.19 723.652 2750.65C724.422 2751.47 728.644 2756.18 733.033 2761.12C737.423 2766.06 743.097 2772.36 745.642 2775.11C748.187 2777.86 753.342 2783.48 757.097 2787.61C772.017 2803.99 828.29 2859.38 848.943 2878C962.517 2980.39 1079.99 3057.89 1215.91 3120.07C1279.1 3148.99 1348.64 3174.55 1420.05 3195.12C1435.05 3199.44 1479.03 3210.93 1484.55 3211.97C1485.93 3212.23 1495.38 3214.3 1505.55 3216.58C1545.59 3225.55 1577.52 3231.61 1615.55 3237.48C1648.37 3242.54 1650.55 3242.83 1650.55 3242.22C1650.55 3240.3 1642.47 3213.33 1629.25 3171.11C1615.92 3128.54 1598.95 3072.24 1591.56 3046.11C1589.23 3037.86 1586.04 3026.61 1584.47 3021.11C1558.82 2931.05 1540.26 2861.02 1524.04 2793.11C1511 2738.53 1502.55 2710.47 1488.05 2673.61C1462.03 2607.49 1432.16 2554.37 1382.9 2486.61C1371.91 2471.48 1358.98 2453.48 1354.18 2446.61C1349.39 2439.73 1338.22 2423.76 1329.37 2411.11C1320.52 2398.46 1304.93 2375.96 1294.73 2361.11C1284.52 2346.26 1273.42 2330.28 1270.06 2325.61C1266.7 2320.93 1261.08 2312.49 1257.59 2306.85C1254.09 2301.21 1251.05 2296.78 1250.83 2296.99C1250.3 2297.53 1255.25 2327.96 1257.68 2339.11C1270.02 2395.68 1286.27 2440.99 1319.81 2512.37C1332.46 2539.31 1331.29 2539.43 1311.63 2513.18C1248.96 2429.5 1205.85 2341.4 1183.9 2252.11C1166.65 2181.97 1159.77 2123.57 1158.84 2039.21C1158.29 1989.33 1158.93 1970.14 1162.6 1927.18C1166.04 1886.79 1169.78 1856.2 1179.65 1787.61C1186.06 1743.04 1188.62 1729.51 1194.95 1706.61C1209.73 1653.19 1234.02 1603.52 1266.58 1560.11C1295.7 1521.28 1328.32 1489.84 1378.55 1452.19C1388.73 1444.57 1398.2 1437.27 1399.61 1435.97C1402.7 1433.11 1403.73 1433.04 1405.96 1435.5C1407.6 1437.32 1407.41 1437.71 1401.35 1444.75C1343.19 1512.35 1304.24 1593.46 1286.15 1684.61C1282.77 1701.65 1278.22 1734.99 1277.07 1751.11C1275.66 1770.85 1275.53 1771.61 1273.44 1771.61C1272.37 1771.61 1271.3 1771.05 1271.06 1770.36C1270.83 1769.67 1269.49 1748.86 1268.08 1724.11C1266.67 1699.36 1265.31 1677.53 1265.07 1675.61C1264.83 1673.68 1264.61 1668.62 1264.59 1664.36C1264.57 1660.1 1264.16 1656.61 1263.69 1656.61C1261.03 1656.61 1249.62 1685.75 1244.97 1704.46C1238.98 1728.52 1238.2 1738.75 1238.92 1784.11C1239.27 1806.11 1239.84 1832.02 1240.18 1841.7C1240.73 1857.03 1240.62 1859.37 1239.27 1859.89C1237.41 1860.6 1237.89 1862.69 1225.56 1799.61C1220.56 1774.03 1216.2 1752.43 1215.86 1751.61C1214.57 1748.45 1207.72 1788.89 1205.52 1812.61C1204.94 1818.93 1204.28 1824.63 1204.07 1825.27C1202.78 1829.13 1201.73 1877.05 1202.46 1898.61C1205.51 1988.12 1233.91 2087.82 1276.53 2158.61C1302.89 2202.4 1347.56 2262.61 1384.1 2303.61C1402.28 2324 1428.04 2350.2 1440.55 2361.02C1454.21 2372.83 1476.66 2387.43 1479.61 2386.41C1480.53 2386.1 1474.15 2376.38 1445.6 2334.61C1408.87 2280.87 1402.16 2270.45 1403.21 2268.79C1403.75 2267.93 1404.66 2267.07 1405.24 2266.88C1405.81 2266.69 1410.54 2271.61 1415.75 2277.82C1431.15 2296.18 1433.94 2299.19 1454.47 2319.61C1496.88 2361.8 1542.87 2394.75 1597.43 2422.04C1653.5 2450.08 1707.5 2468.57 1764.05 2479.09C1773.95 2480.93 1784.75 2482.72 1788.05 2483.07C1791.35 2483.42 1795.18 2483.91 1796.55 2484.15L1799.05 2484.59L1796.61 2482.85C1795.26 2481.89 1779.89 2470.53 1762.45 2457.61C1745.01 2444.68 1726.19 2430.82 1720.64 2426.8C1715.09 2422.77 1710.57 2419.17 1710.58 2418.8C1710.6 2418.42 1711.28 2417.23 1712.09 2416.16C1713.5 2414.29 1714.93 2414.89 1751.3 2432.85C1791.99 2452.93 1796.92 2455.18 1815.29 2462.05C1846.2 2473.61 1873.7 2479.43 1901.55 2480.31C1911.3 2480.61 1918.69 2480.47 1918.23 2479.99C1917.41 2479.13 1898.42 2469.35 1856.8 2448.35C1836.62 2438.17 1832.92 2435.74 1835.34 2434.24C1835.78 2433.97 1851.42 2434.6 1870.09 2435.63C1888.77 2436.67 1909 2437.78 1915.05 2438.1C1921.1 2438.41 1927.96 2438.91 1930.3 2439.2C1934.35 2439.71 1934.55 2439.61 1934.55 2437.11C1934.55 2433.72 1932.71 2432.89 1870.55 2408.04C1827.33 2390.77 1799 2379.26 1787.05 2374.1C1777.77 2370.1 1743.03 2352.29 1730.55 2345.14C1703.78 2329.8 1670.96 2306.79 1651.31 2289.59C1638.88 2278.71 1614.37 2253.63 1604.4 2241.61C1588.64 2222.58 1577.9 2206.73 1560.07 2176.16C1553.11 2164.24 1552.86 2163.61 1555.15 2163.61C1557.43 2163.61 1563.63 2168.64 1581.59 2185.05C1584.64 2187.83 1591.61 2194.15 1597.09 2199.09C1602.57 2204.03 1610.2 2211.06 1614.05 2214.7C1627.66 2227.57 1678.17 2272 1687.05 2278.91C1708.93 2295.94 1735.15 2310.92 1760.71 2320.97C1785.37 2330.68 1809.1 2335.72 1841.19 2338.07C1871.24 2340.27 1886.41 2343.22 1914.05 2352.26C1934.21 2358.85 1952.08 2367.09 1988.72 2386.7C2032.46 2410.11 2062.61 2425.19 2068.32 2426.52C2072.31 2427.45 2096.73 2430.58 2097.21 2430.22C2097.29 2430.16 2097.52 2429.26 2097.71 2428.23C2097.97 2426.76 2092.06 2422.06 2071.05 2407.02C2046.27 2389.29 2044.02 2387.44 2043.73 2384.51L2043.4 2381.32L2046.73 2383.54C2054.95 2389.03 2070.83 2395.82 2079.8 2397.67C2103.77 2402.62 2123.39 2398.55 2165.55 2379.89C2177.38 2374.66 2190.2 2369.3 2194.05 2367.98C2204.95 2364.26 2204.28 2364.6 2202.55 2363.65C2201.73 2363.2 2194.84 2360.52 2187.24 2357.7C2169.78 2351.22 2160.39 2346.41 2149.05 2338.17C2132.78 2326.33 2115.47 2318.72 2095.24 2314.49C2083.25 2311.98 2068.01 2311.69 2020.52 2313.04C1988.91 2313.93 1974.37 2313.26 1955.05 2310.01C1940.1 2307.49 1931.82 2305.09 1888.05 2290.64C1864.95 2283.01 1837.28 2273.98 1826.55 2270.58C1793.32 2260.02 1750.1 2245.49 1749.1 2244.52C1748.5 2243.95 1748.59 2243.17 1749.32 2242.44C1750.22 2241.54 1752.21 2241.67 1757.77 2242.97C1761.78 2243.91 1766.18 2245.08 1767.55 2245.58C1768.93 2246.07 1777.25 2248.73 1786.05 2251.49C1860.86 2274.95 1898.96 2283.58 1946.05 2287.76C1953.9 2288.45 1986.77 2289.02 2029.05 2289.18C2088.58 2289.41 2100.17 2289.69 2106.55 2291.04C2121.25 2294.17 2134.91 2300.08 2150.49 2310.07C2168.79 2321.8 2184.97 2328.91 2203.82 2333.5C2222.27 2338 2279.56 2349.82 2298.05 2352.95C2299.7 2353.23 2303.53 2353.96 2306.55 2354.56C2309.58 2355.17 2313.4 2355.84 2315.05 2356.06C2318 2356.45 2377.9 2368.23 2382.3 2369.28C2385.32 2370.01 2385.14 2371.14 2381.8 2372.42C2377.38 2374.12 2374.05 2374.46 2355.55 2375.09C2345.93 2375.41 2335.35 2375.87 2332.05 2376.11C2328.75 2376.35 2319.08 2376.8 2310.55 2377.12C2302.03 2377.44 2292.8 2377.89 2290.05 2378.12C2287.3 2378.35 2278.98 2378.79 2271.55 2379.11C2247.26 2380.14 2226.92 2382.65 2215.27 2386.05C2192.18 2392.8 2172.5 2407.82 2163.86 2425.3C2160.4 2432.29 2160.05 2433.75 2160.05 2441.06C2160.05 2448.03 2160.47 2449.98 2163.19 2455.61C2169 2467.65 2178.71 2474.41 2193.49 2476.68C2203.26 2478.18 2213.46 2476.86 2237.1 2471.06C2247.06 2468.61 2255.51 2466.61 2255.88 2466.61C2256.25 2466.61 2256.55 2470.79 2256.55 2475.9C2256.55 2487.05 2258.86 2492.81 2264.54 2495.78C2271.44 2499.4 2279.11 2498.12 2320.04 2486.56C2331.91 2483.21 2342.04 2480.61 2342.55 2480.79C2343.06 2480.96 2339.91 2486.28 2335.55 2492.61C2331.19 2498.93 2326.73 2505.57 2325.62 2507.36L2323.62 2510.61H2333.95C2358.63 2510.61 2385.01 2502.32 2411.27 2486.31L2420.49 2480.69L2422.02 2482.87C2422.86 2484.07 2423.52 2485.51 2423.48 2486.08C2423.43 2486.91 2389.78 2518.36 2372.56 2533.67C2368.6 2537.19 2367.72 2538.98 2369.43 2540.03C2369.91 2540.33 2374.29 2538.98 2379.18 2537.04C2384.06 2535.1 2397.28 2529.96 2408.55 2525.62C2419.83 2521.28 2431.94 2516.58 2435.47 2515.17C2439.01 2513.77 2442.08 2512.8 2442.31 2513.03C2443.45 2514.18 2439.6 2518.32 2432.46 2523.62C2388.17 2556.46 2334.89 2572.16 2274.11 2570.28C2237.33 2569.14 2210.84 2564.53 2137.55 2546.49C2100.7 2537.43 2078.12 2531.34 2023.05 2515.6C1985.47 2504.86 1976.73 2502.69 1970.05 2502.43C1963.52 2502.17 1962.05 2502.38 1962.05 2503.59C1962.05 2504.42 1969.83 2509.93 1979.86 2516.19C1989.66 2522.32 1998.11 2527.76 1998.64 2528.29C1999.26 2528.92 1995.1 2531.72 1986.91 2536.19C1968.93 2545.98 1961.22 2553.51 1959.1 2563.32C1958.24 2567.32 1956.09 2566.83 1989.02 2570.12C2003.3 2571.55 2015.14 2572.86 2015.32 2573.04C2016.82 2574.54 1972.42 2581.28 1944.55 2583.78C1926.16 2585.43 1866.7 2585.43 1848.55 2583.78C1794.6 2578.86 1744.85 2569.82 1691.63 2555.24C1686.44 2553.82 1682.62 2553.05 1683.13 2553.53C1684.69 2555.01 1716.61 2577.56 1731.23 2587.52C1762.89 2609.08 1772.53 2615.89 1781.51 2623.07C1815.33 2650.1 1837.96 2678.58 1853.82 2714.11C1869.83 2749.94 1875.34 2782.11 1879.53 2864.11C1881.38 2900.49 1881.58 2903.98 1882.69 2920.11C1883.3 2928.91 1884.09 2936.65 1884.44 2937.31C1884.79 2937.97 1888.2 2931.45 1892.01 2922.81C1922.61 2853.48 1947.22 2801.62 1958.18 2783.34C1976.99 2751.98 2001.27 2718.75 2020.01 2698.72C2025.58 2692.76 2037.68 2682.4 2038.32 2683.04C2038.54 2683.26 2034 2699.57 2028.22 2719.28C2008.49 2786.6 1999.46 2822.09 1991.64 2863.11C1974.89 2950.98 1975.01 2950.13 1979.55 2949.34C1980.41 2949.2 1983.07 2944.36 1985.76 2938.1C1988.35 2932.05 1991.59 2924.63 1992.97 2921.61C1994.35 2918.58 1998.35 2909.58 2001.87 2901.61C2030.8 2835.97 2074.87 2750.63 2108.49 2695.11C2116.97 2681.1 2148.44 2633.61 2149.24 2633.61C2150.73 2633.61 2139.79 2699.16 2132.04 2736.61C2130.74 2742.93 2129.41 2749.54 2129.1 2751.3C2127.86 2758.39 2119.16 2796.44 2114.07 2817.11C2105.84 2850.46 2086.98 2916.93 2075.76 2952.11C2072.3 2962.95 2072.21 2963.8 2074.5 2963.43C2075.72 2963.24 2081.25 2957.13 2088.36 2948.11C2094.87 2939.86 2100.85 2932.98 2101.64 2932.83C2102.44 2932.68 2103.85 2933.13 2104.77 2933.83C2106.32 2935 2105.89 2936.97 2099.47 2958.11C2095.64 2970.76 2087.76 2997.08 2081.98 3016.61C2069.91 3057.37 2068.97 3060.5 2063.63 3078.11C2061.46 3085.26 2056.68 3101.23 2053.01 3113.61C2049.33 3125.98 2043.05 3146.91 2039.04 3160.11C2035.04 3173.31 2028.97 3193.56 2025.56 3205.11C2022.14 3216.66 2018.53 3228.58 2017.53 3231.61L2015.71 3237.11L2018.47 3237.41C2023.86 3238 2082.08 3228.28 2116.05 3221.12C2172.93 3209.13 2241.36 3191.36 2249.11 3186.57C2255.9 3182.37 2256.74 3177.4 2254.02 3157.39C2240.69 3059.45 2216.61 2961.11 2183.04 2867.61C2175.82 2847.49 2174.01 2838.23 2174.85 2825.81C2175.18 2821.02 2178.66 2801.58 2182.58 2782.61C2192.73 2733.5 2203.77 2677.58 2209.62 2645.61C2216.58 2607.61 2217.38 2604.82 2222.36 2601.11C2224.87 2599.24 2226.2 2599.14 2242.05 2599.58C2279.33 2600.63 2316.55 2600.07 2329.55 2598.27C2371.84 2592.4 2411.81 2579.58 2440.05 2562.83C2458.23 2552.04 2484.11 2528.99 2497.95 2511.27C2517.48 2486.26 2532.46 2455.43 2538.62 2427.54C2541.66 2413.81 2542.36 2389.12 2540.1 2375.58C2539.16 2369.96 2537.31 2362.05 2535.99 2358.01C2534.67 2353.97 2533.82 2350.06 2534.11 2349.33C2534.39 2348.59 2540.79 2346.06 2548.34 2343.71C2583.21 2332.85 2602.28 2318.27 2614.01 2293.52C2620.23 2280.38 2621.88 2272.22 2621.88 2254.61C2621.88 2236.24 2620.16 2228.32 2613.1 2214.11C2605.24 2198.3 2595.88 2187.98 2558.55 2153.92C2524.83 2123.14 2522.24 2118.9 2523.74 2097.02C2524.53 2085.47 2528.71 2050.07 2531.09 2034.83C2533.42 2019.91 2538.14 2013.1 2553.2 2002.98C2569.5 1992.02 2580.66 1978.1 2587.18 1960.61C2588.92 1955.93 2593.08 1939.71 2596.42 1924.56C2607.42 1874.71 2608.35 1872.53 2626.45 1854.61C2659.41 1821.96 2680.26 1787.9 2697.7 1738.23C2721.53 1670.4 2728.09 1596.48 2717.46 1515.61C2706.29 1430.64 2684.54 1375.6 2641.06 1322.29C2636.65 1316.9 2630.25 1309.05 2626.83 1304.86C2615.14 1290.53 2613.44 1284.76 2613.09 1258.14C2612.72 1229.97 2609.73 1215.92 2600.02 1196.61C2582.57 1161.96 2546.44 1135.39 2497.55 1121.28C2460.02 1110.44 2415.36 1108.81 2373.12 1116.72C2356.99 1119.73 2345.9 1120.23 2339.91 1118.19C2333.64 1116.06 2331.85 1114.71 2279.26 1072.49C2239.26 1040.37 2234.67 1036.39 2232.59 1031.99C2229.23 1024.86 2214.36 990.492 2207.05 972.949C2187.3 925.58 2172.08 858.857 2169.11 806.608C2166.46 759.843 2166.14 757.038 2162.42 746.722C2159.62 738.966 2154.52 731.774 2146.25 723.952C2139.99 718.028 2126.72 708.371 2119.9 704.776L2117.74 703.641L2119.53 709.375ZM1712.05 1121.09C1678.34 1129.78 1646.25 1148.9 1618.53 1176.82C1589.44 1206.11 1569.04 1242.84 1561.61 1279.31C1558.68 1293.69 1558.88 1295.36 1562.73 1288.61C1598.42 1226.08 1630.02 1187.44 1674.05 1152.49C1686.08 1142.95 1709.4 1127.98 1720.8 1122.5C1729.93 1118.1 1726.04 1117.48 1712.05 1121.09ZM1743.67 1183.65C1695.84 1193.22 1663.84 1221.16 1649.79 1265.61C1648.66 1269.18 1646.5 1276.07 1645 1280.91C1643.51 1285.76 1640.58 1292.35 1638.5 1295.57C1630.94 1307.26 1627.82 1309.85 1602.32 1325.57C1591.54 1332.22 1590.68 1332.97 1591.69 1334.86C1592.78 1336.9 1593.12 1336.91 1630.42 1336.21C1747.15 1334.03 1760.73 1333.01 1793.05 1324.04C1813.07 1318.47 1844.73 1305 1854.25 1297.99C1856.34 1296.45 1858.25 1295.05 1858.48 1294.88C1858.72 1294.71 1858.47 1294.13 1857.93 1293.59C1857.28 1292.93 1852.72 1294.3 1844.56 1297.6C1837.76 1300.36 1832.04 1302.61 1831.87 1302.61C1831.69 1302.61 1831.54 1300.92 1831.54 1298.86C1831.53 1296.8 1831.1 1294.44 1830.58 1293.62C1829.79 1292.38 1829.1 1292.64 1826.35 1295.21C1813.14 1307.54 1811.92 1308.23 1798.17 1311.15C1776.34 1315.77 1762.09 1317.72 1746.05 1318.28C1731.26 1318.79 1729.62 1318.67 1724.3 1316.65C1717.32 1314 1708.97 1306.64 1705.34 1299.95C1701.83 1293.46 1699.68 1284.7 1698.89 1273.66C1698.54 1268.64 1697.92 1264.34 1697.53 1264.09C1695.68 1262.95 1685.21 1281.74 1683.5 1289.28C1682.27 1294.69 1682.03 1305.95 1683.04 1310.57L1683.71 1313.61H1660.55C1647.81 1313.61 1637.54 1313.27 1637.73 1312.86C1639.14 1309.79 1655.4 1277.99 1657.8 1273.61C1659.46 1270.58 1662.42 1265.18 1664.38 1261.61C1683.12 1227.45 1711.03 1204.26 1741.03 1197.92C1746.05 1196.86 1752.05 1196.56 1762.05 1196.87C1773.87 1197.23 1777.38 1197.72 1784.55 1200.05C1811.16 1208.69 1832.28 1226.9 1850.4 1256.84C1857.12 1267.94 1861.81 1273.2 1867.63 1276.15C1875.2 1279.98 1880.61 1279.29 1904.49 1271.43L1913.93 1268.32L1910.99 1265.96C1904.25 1260.57 1842.63 1216.83 1825.32 1205.16C1804.23 1190.94 1793.41 1185.34 1782.74 1183.13C1772.84 1181.07 1755.4 1181.31 1743.67 1183.65ZM1744.82 1238.89C1741.1 1241.65 1737.55 1245.89 1737.55 1247.56C1737.55 1249.68 1740.51 1254.46 1745.63 1260.6L1750.71 1266.71L1759.38 1258.97C1764.15 1254.72 1768.67 1250.69 1769.43 1250.01C1770.55 1249.01 1769.29 1247.79 1762.43 1243.22C1752.09 1236.34 1749.2 1235.63 1744.82 1238.89ZM2559.56 1288.82C2559.56 1289.53 2560.48 1291.62 2561.6 1293.46C2562.73 1295.3 2565.26 1300.7 2567.24 1305.46C2571.76 1316.35 2572.31 1324.17 2569.5 1337.59C2568.42 1342.78 2567.65 1347.41 2567.81 1347.88C2568.08 1348.71 2569.06 1347.42 2580.89 1330.61C2594.25 1311.62 2595.55 1309.68 2595.55 1308.78C2595.55 1308.26 2588.46 1303.79 2579.8 1298.84C2559.24 1287.08 2559.55 1287.24 2559.56 1288.82ZM2498.57 1325.36C2498.59 1326.32 2499.01 1336.33 2499.52 1347.61C2500.02 1358.88 2500.74 1375.98 2501.11 1385.61C2501.47 1395.23 2502.06 1410.53 2502.41 1419.61L2503.05 1436.11L2506.43 1436.43L2509.8 1436.75L2509.14 1421.93C2508.78 1413.78 2508.29 1404.63 2508.06 1401.61C2507.82 1398.58 2506.85 1379.8 2505.89 1359.86L2504.15 1323.61H2501.35C2499.34 1323.61 2498.56 1324.1 2498.57 1325.36ZM2625.56 1356.86C2625.56 1358.09 2626.88 1365.41 2628.49 1373.11C2640.37 1430.02 2644.91 1451.57 2647.07 1461.32C2648.43 1467.49 2649.55 1472.78 2649.55 1473.08C2649.55 1473.38 2642.41 1470.04 2633.69 1465.67C2618.89 1458.27 2617.68 1457.83 2615.69 1459.23C2614.51 1460.05 2613.55 1461.36 2613.55 1462.14C2613.55 1462.92 2618.45 1473.58 2624.44 1485.83C2636.89 1511.29 2642.27 1523.67 2645.88 1535.18C2648.7 1544.2 2651.86 1559.64 2651.04 1560.45C2650.74 1560.75 2648.38 1558.96 2645.78 1556.48C2643.18 1554 2635.57 1546.91 2628.87 1540.72L2616.69 1529.47L2614.12 1531.15C2612.71 1532.08 2611.55 1533.65 2611.55 1534.65C2611.55 1535.65 2612.88 1542.23 2614.51 1549.29C2619.45 1570.71 2624.86 1597.65 2626.51 1609.11C2627.07 1612.96 2628.16 1620.38 2628.94 1625.61C2632.45 1649.05 2633.02 1657.83 2633 1688.11C2632.99 1717.19 2631.81 1734.29 2628.97 1746.61L2628.39 1749.11L2630.96 1746.32C2634.69 1742.26 2645.7 1723.35 2652.16 1709.93C2684.66 1642.32 2695.18 1556.53 2680.65 1477.61C2673.63 1439.51 2658.84 1400.75 2641.42 1374.82C2636.67 1367.75 2626.56 1354.61 2625.87 1354.61C2625.7 1354.61 2625.56 1355.62 2625.56 1356.86ZM2133.15 1383.65C2131.55 1384.13 2128.73 1385.98 2126.9 1387.76C2122.11 1392.4 2122.19 1397.65 2127.13 1403.43C2129.1 1405.73 2131.08 1407.61 2131.54 1407.61C2133.24 1407.61 2143.55 1396.01 2144.58 1392.94C2145.41 1390.49 2145.31 1388.97 2144.15 1386.19C2142.85 1383.07 2142.23 1382.62 2139.35 1382.69C2137.54 1382.74 2134.74 1383.17 2133.15 1383.65ZM1221.4 1460.75C1217.07 1466.03 1207.61 1480.51 1204.65 1486.38C1200.31 1494.96 1195.71 1507.56 1194.15 1515.1C1192.55 1522.83 1192.15 1537.97 1193.43 1542.53C1194.12 1544.99 1196.55 1546.68 1196.55 1544.7C1196.55 1544.11 1203.08 1524.39 1211.05 1500.87C1219.03 1477.36 1225.43 1457.73 1225.27 1457.25C1225.11 1456.78 1223.37 1458.35 1221.4 1460.75ZM2270.47 1465.51C2267.61 1468.76 2264.44 1472.73 2263.43 1474.34C2261.6 1477.23 2261.6 1477.29 2264.01 1480.55C2267.32 1485.03 2270.23 1486.9 2272.88 1486.24C2274.1 1485.93 2279.06 1482.92 2283.9 1479.54C2292.28 1473.69 2292.62 1473.32 2290.87 1471.75C2289.85 1470.85 2286.41 1467.75 2283.21 1464.86C2280.01 1461.97 2277 1459.61 2276.53 1459.61C2276.06 1459.61 2273.33 1462.26 2270.47 1465.51ZM2193.67 1479.61C2183.39 1487.73 2182.14 1493.17 2188.9 1500.32L2193.25 1504.93L2197.53 1500.52C2208.26 1489.49 2209.2 1485.78 2202.88 1479.46L2198.89 1475.48L2193.67 1479.61ZM2114.94 1490.11C2103.73 1504.38 2103.33 1506.58 2110.62 1513.67C2114.78 1517.72 2116.33 1518.61 2119.26 1518.61C2126.43 1518.61 2135.97 1505.41 2134.13 1498.05C2133.54 1495.7 2122.9 1482.61 2121.57 1482.61C2121.16 1482.61 2118.18 1485.98 2114.94 1490.11ZM2405.55 1571.17C2382.73 1586.38 2363.45 1599.39 2362.71 1600.09C2361.6 1601.14 2361.6 1601.71 2362.7 1603.48C2363.43 1604.65 2364.43 1605.61 2364.91 1605.61C2366.14 1605.61 2450.55 1549.32 2450.55 1548.5C2450.55 1548.13 2449.76 1546.86 2448.8 1545.68L2447.05 1543.53L2405.55 1571.17ZM2520.38 1553.36C2522.03 1555.42 2528.63 1563.18 2535.04 1570.61C2541.46 1578.03 2552.58 1590.99 2559.74 1599.41C2566.91 1607.83 2572.96 1614.54 2573.18 1614.32C2573.79 1613.7 2571.1 1606.65 2567.54 1599.55C2558.89 1582.32 2544.75 1566.44 2528.59 1555.79C2523.42 1552.39 2518.79 1549.61 2518.29 1549.61C2517.79 1549.61 2518.73 1551.3 2520.38 1553.36ZM2052.55 1566.17C2026.38 1571.98 2012.23 1575.62 2008.05 1577.64C2005.85 1578.7 2002.15 1581.78 1999.83 1584.49L1995.61 1589.41L2001.91 1590.51C2023.27 1594.23 2040.2 1589.17 2064.84 1571.72C2072.57 1566.24 2074.3 1563.32 2070.04 1562.92C2068.95 1562.81 2061.08 1564.28 2052.55 1566.17ZM2228.1 1570.88C2220.5 1578.15 2220.1 1579.94 2224.74 1585.96C2226.5 1588.24 2228 1590.22 2228.07 1590.35C2228.14 1590.48 2229.52 1590.85 2231.14 1591.17C2233.93 1591.73 2234.31 1591.37 2238.7 1583.94C2245.3 1572.75 2245.33 1572.54 2240.57 1568.25C2238.36 1566.24 2236.12 1564.61 2235.6 1564.61C2235.08 1564.61 2231.71 1567.43 2228.1 1570.88ZM2116.55 1619.67C2097.58 1627.3 2078.3 1634.91 2073.72 1636.58C2069.13 1638.26 2047.12 1646.89 2024.81 1655.75L1984.24 1671.88L1987.68 1673.55C2023.65 1691.05 2091.95 1669.23 2135.69 1626.26C2145.11 1617.01 2154.4 1605.55 2152.36 1605.71C2151.64 1605.76 2135.53 1612.04 2116.55 1619.67ZM1709.55 1625.99C1653.78 1644.86 1613.29 1664.47 1577.05 1690.17C1503.6 1742.25 1467.24 1805.52 1462.03 1890.36C1461.64 1896.55 1461.56 1901.61 1461.84 1901.61C1462.11 1901.61 1463.98 1897.5 1465.99 1892.49C1471.76 1878.07 1474.4 1872.27 1483.7 1853.61C1518.57 1783.61 1570.05 1725.71 1640.99 1676.67C1668.02 1657.99 1686.62 1646.99 1718.1 1631.05C1730.52 1624.76 1739.98 1619.39 1739.77 1618.75C1739.03 1616.53 1733.79 1617.78 1709.55 1625.99ZM2052.05 1957.11C2025.46 1960.75 2001.64 1967.79 1978.2 1978.93C1942.41 1995.95 1924.74 2011.43 1908.66 2039.86C1906.53 2043.62 1905.86 2045.6 1906.73 2045.57C1907.46 2045.56 1911.2 2045.12 1915.05 2044.59C1950.63 2039.78 1971.39 2042.01 1994.05 2053.07C2016.06 2063.82 2031.13 2078.17 2055.26 2111.37C2071.5 2133.73 2076.8 2142.03 2086.05 2159.61C2095.55 2177.67 2097.91 2181.25 2103.99 2186.86C2111.91 2194.17 2124.24 2196.42 2138.05 2193.09C2145.91 2191.19 2162.52 2191.2 2170.09 2193.11C2184.63 2196.77 2196.72 2204.94 2222.09 2228.25C2241.56 2246.14 2264.97 2265.55 2289.05 2283.79C2305.27 2296.07 2327.17 2308.55 2344.05 2315.14C2365.47 2323.5 2397.57 2327.81 2421.55 2325.54C2426.23 2325.1 2434.33 2324.45 2439.55 2324.1C2444.78 2323.75 2457.38 2322.59 2467.55 2321.52C2477.73 2320.46 2488.3 2319.34 2491.05 2319.06C2502.63 2317.84 2531.99 2313.3 2542.6 2311.09C2583.16 2302.62 2602.5 2273.55 2590.43 2239.19C2581.93 2215.01 2567.42 2198.74 2486.05 2122.11C2476.15 2112.78 2462.88 2100.14 2456.55 2094.02C2401.1 2040.34 2373.05 2018.52 2333.05 1997.99C2315.37 1988.91 2307.92 1986.33 2293.05 1984.11C2274.6 1981.36 2269.19 1982.58 2265.43 1990.36C2259.95 2001.67 2264.77 2010.05 2311.56 2070.61C2320.7 2082.43 2331.74 2096.79 2336.11 2102.52C2340.48 2108.24 2347.73 2117.69 2352.23 2123.52C2356.73 2129.34 2362.31 2137.17 2364.63 2140.92C2368.57 2147.27 2368.74 2147.84 2367.19 2149.4C2365.64 2150.95 2364.48 2150.02 2349.9 2135.58C2341.31 2127.07 2325.94 2111.56 2315.75 2101.11C2277.01 2061.39 2237.47 2022.63 2223.05 2010.25C2186.06 1978.49 2153.8 1963.35 2109.42 1956.93C2100.29 1955.61 2062.15 1955.73 2052.05 1957.11ZM1588.96 2044.22C1591.42 2065.51 1601.43 2090.69 1614.16 2107.61C1630.87 2129.81 1650.82 2145.06 1690.05 2165.64C1722.21 2182.51 1756.78 2195.27 1798.27 2205.58C1816.19 2210.03 1818.78 2210.37 1817.92 2208.14C1817.26 2206.41 1805.9 2200.38 1748.05 2171.06C1724.4 2159.07 1703.25 2148.15 1701.05 2146.8C1690.05 2140.03 1680.54 2129.5 1671.52 2114.11C1652.26 2081.24 1638.9 2069.01 1589.67 2039.16C1588.53 2038.47 1588.4 2039.35 1588.96 2044.22ZM1805.18 2052.65C1797.64 2054.55 1787.91 2060.57 1781.32 2067.43C1766.87 2082.47 1758.23 2105.35 1761.33 2120.38C1764.62 2136.34 1781.64 2158.23 1802.05 2172.74C1832.84 2194.63 1859.7 2209.34 1894.05 2223.12C1929.4 2237.31 1963.32 2245.54 2001.51 2249.21C2021 2251.07 2064.73 2250.89 2068.05 2248.92C2070.52 2247.46 2069.47 2247.02 2061.32 2246.11C2053.85 2245.27 2044.55 2240.57 2039.94 2235.29C2036.1 2230.89 2028.62 2216.18 2026.44 2208.71C2024.96 2203.67 2018.51 2197.98 2008.3 2192.72C1997.45 2187.12 1991.98 2188.73 1978.3 2201.52C1973.2 2206.29 1971.29 2208.89 1969.99 2212.79L1968.31 2217.85L1962.68 2217.2C1951.1 2215.84 1945.08 2210.47 1941.35 2198.15C1935.19 2177.85 1928.59 2170.61 1916.22 2170.61C1911.84 2170.61 1909.29 2171.34 1903.87 2174.16C1900.12 2176.12 1895.8 2178.92 1894.27 2180.38C1890.78 2183.72 1889.28 2182.97 1884.85 2175.65C1878.38 2164.95 1876.92 2157.84 1874.59 2125.44C1874.05 2117.92 1872.87 2108.47 1871.97 2104.44C1866.9 2081.85 1851.08 2062.39 1831.37 2054.5C1825.29 2052.08 1811.39 2051.09 1805.18 2052.65ZM2170.55 2274.11V2316.61H2199.05C2214.73 2316.61 2227.55 2316.41 2227.55 2316.16C2227.55 2315.91 2224.93 2311.53 2221.73 2306.41C2218.53 2301.29 2212.83 2291.48 2209.07 2284.61C2200.73 2269.35 2192.59 2255.94 2187.2 2248.61C2182.53 2242.25 2172.64 2231.61 2171.4 2231.61C2170.93 2231.61 2170.55 2250.73 2170.55 2274.11Z" fill="#313C4E"/>
<path fill-rule="evenodd" clip-rule="evenodd" d="M1701.12 0.715516C1676.41 1.21752 1655.96 1.86451 1655.67 2.15051C1655.18 2.64651 1658.18 211.322 1659.06 237.608C1659.29 244.483 1659.53 258.879 1659.6 269.599C1659.66 280.319 1659.97 293.076 1660.29 297.949L1660.86 306.81L1672.46 306.225C1678.83 305.903 1704.53 305.397 1729.55 305.098C1772.29 304.589 1780.07 304.341 1795.05 303.017C1854.22 297.789 1902.85 267.586 1924.9 222.37C1931.5 208.826 1934.85 198.433 1937.46 183.379C1942.52 154.163 1940.58 124.662 1931.89 98.6855C1916.4 52.3825 1879.93 19.9835 1828.33 6.6795C1802.36 -0.0174952 1782.62 -0.942484 1701.12 0.715516ZM2081.01 16.9615C2080.8 17.5915 2077.94 31.6075 2074.67 48.1075C2061.48 114.589 2059.27 125.623 2051.65 163.108C2028.06 279.103 2021.55 311.499 2021.55 312.973C2021.55 313.808 2023.57 314.748 2026.8 315.412C2036.62 317.432 2160.92 342.69 2190.05 348.584C2206 351.811 2219.33 354.149 2219.68 353.78C2220.02 353.41 2221.69 345.683 2223.38 336.608C2226.95 317.473 2230.7 298.75 2234.13 282.988C2235.46 276.871 2236.55 271.021 2236.55 269.988C2236.54 268.31 2231.79 267.16 2192.3 259.279C2167.96 254.422 2147.74 250.147 2147.35 249.779C2146.72 249.17 2151.75 223.024 2152.66 222.197C2152.88 222.004 2159.35 223.134 2167.05 224.709C2215.34 234.587 2230.89 237.601 2231.33 237.167C2231.6 236.898 2235.05 220.502 2239.01 200.733L2246.21 164.79L2237.13 163.139C2232.14 162.232 2226.25 161.085 2224.05 160.589C2221.85 160.093 2208.35 157.376 2194.05 154.551C2179.75 151.726 2167.78 148.974 2167.45 148.436C2167.11 147.898 2167.62 144.005 2168.58 139.783C2169.54 135.562 2170.62 130.421 2170.98 128.358C2171.43 125.839 2172.17 124.608 2173.26 124.608C2174.15 124.608 2193.48 128.281 2216.22 132.772C2238.95 137.262 2257.79 140.699 2258.09 140.408C2258.79 139.703 2275.79 55.5125 2275.32 55.0445C2275.12 54.8445 2263.28 52.3975 2249 49.6055C2234.73 46.8145 2217.88 43.4425 2211.55 42.1125C2205.23 40.7825 2188.58 37.4235 2174.55 34.6485C2160.53 31.8725 2133.83 26.5005 2115.23 22.7095C2091.86 17.9475 2081.29 16.1705 2081.01 16.9615ZM1400.05 47.2975C1354.25 59.3575 1292.04 75.8555 1291.88 75.9835C1291.74 76.0935 1284.49 255.422 1282.04 319.108C1281.75 326.808 1281.31 336.483 1281.06 340.608C1280.82 344.733 1280.36 356.658 1280.05 367.108C1279.74 377.558 1279.25 387.985 1278.97 390.279L1278.45 394.449L1289.75 391.47C1295.97 389.832 1313.65 385.138 1329.05 381.039C1344.45 376.94 1363.73 371.904 1371.89 369.847L1386.74 366.108L1386.16 356.108C1384.92 334.473 1384.33 311.608 1385.01 311.608C1385.41 311.608 1399.75 307.95 1416.89 303.48C1434.03 299.011 1450.41 294.797 1453.29 294.115L1458.53 292.874L1462.91 300.991C1465.32 305.455 1470.99 316.212 1475.52 324.894C1482.96 339.17 1483.95 340.614 1485.9 339.996C1487.08 339.621 1502.9 335.394 1521.05 330.603C1539.2 325.812 1562.26 319.719 1572.28 317.06L1590.52 312.225L1587.89 307.667C1585.57 303.642 1550.92 247.72 1545.1 238.608C1543.87 236.683 1539.69 229.933 1535.81 223.608C1528.12 211.076 1495.74 158.915 1454.99 93.4055C1440.72 70.4695 1427.7 49.4695 1426.05 46.7375C1424.4 44.0065 1422.38 41.8295 1421.55 41.9015C1420.73 41.9725 1411.05 44.4015 1400.05 47.2975ZM1766.5 88.3575C1766.3 91.2325 1766.83 134.103 1767.11 138.108C1767.31 140.858 1767.57 155.933 1767.7 171.608C1767.82 187.283 1768.1 203.867 1768.32 208.462L1768.71 216.814L1776.38 216.172C1790.64 214.976 1799.59 211.784 1809.17 204.473C1814.54 200.372 1821.5 191.332 1824.23 184.902C1831.45 167.882 1832.17 143.505 1826 125.272C1819.32 105.513 1804.54 92.5885 1784.55 89.0175C1776.29 87.5405 1766.58 87.1855 1766.5 88.3575ZM2449.88 125.022C2420.68 130.597 2398.11 147.339 2384.06 173.865C2369.22 201.855 2365.94 227.768 2374.17 251.948C2380.3 269.971 2392.06 284.681 2418.55 307.478C2425.98 313.867 2434.19 321.333 2436.8 324.071C2445.66 333.35 2446.47 341.438 2439.04 346.493C2435.99 348.563 2434.7 348.814 2429.29 348.378C2417.06 347.395 2399.97 338.25 2385.75 325.087C2373.66 313.894 2361.57 297.247 2353.47 280.665C2351.04 275.685 2348.83 271.612 2348.55 271.615C2348.28 271.618 2344.14 280.954 2339.37 292.363C2334.59 303.772 2326.51 322.943 2321.41 334.964L2312.14 356.819L2315.97 364.272C2332.03 395.475 2370.43 421.179 2417.55 432.269C2432.19 435.715 2456.07 436.578 2470.41 434.18C2498.99 429.401 2520.88 416.166 2537.91 393.366C2555.14 370.316 2564.9 337.603 2560.52 317.608C2558.34 307.666 2553.33 296.809 2547.06 288.452C2538.62 277.211 2529.19 268.476 2510.08 254.186C2485.58 235.869 2480.8 230.63 2482.19 223.641C2485.38 207.724 2521.24 220.178 2549.21 246.91C2559.14 256.408 2568.86 267.853 2573.8 275.858C2575.41 278.47 2576.86 280.608 2577.03 280.608C2577.2 280.608 2579.39 275.546 2581.89 269.358C2584.39 263.171 2591.57 245.989 2597.86 231.178L2609.29 204.25L2606.39 199.34C2597.28 183.877 2582.05 167.359 2566.96 156.553C2548.6 143.41 2521.23 131.566 2497.55 126.517C2485.13 123.869 2460.04 123.082 2449.88 125.022ZM1378.54 144.858C1378.5 151.678 1381.82 235.126 1382.13 235.483C1382.79 236.226 1422.55 225.209 1422.55 224.283C1422.55 223.343 1417.44 213.423 1398.52 177.608C1393.14 167.433 1386.8 155.171 1384.42 150.358C1382.05 145.546 1379.76 141.608 1379.33 141.608C1378.9 141.608 1378.54 143.07 1378.54 144.858ZM2733.25 254.358C2723.82 267.807 2690.55 317.842 2690.55 318.577C2690.55 318.965 2700.72 326.216 2713.15 334.694C2725.57 343.171 2735.94 350.429 2736.18 350.821C2736.43 351.213 2731.51 359.088 2725.25 368.321C2718.99 377.554 2704.95 398.383 2694.03 414.608C2650.77 478.937 2642.75 490.841 2629.9 509.811C2622.56 520.647 2616.57 529.872 2616.59 530.311C2616.61 530.749 2626.62 537.776 2638.84 545.926C2651.06 554.076 2671.38 567.688 2684.01 576.176C2696.64 584.664 2707.21 591.605 2707.51 591.602C2707.81 591.598 2708.81 590.361 2709.73 588.852C2710.65 587.343 2724.91 566.083 2741.43 541.608C2757.94 517.133 2783.41 479.333 2798.01 457.608C2812.62 435.883 2825.58 416.895 2826.81 415.415L2829.05 412.723L2852.05 428.147C2864.7 436.63 2875.32 443.579 2875.66 443.589C2876.29 443.609 2885.05 430.908 2909.77 394.116C2917.9 382.02 2924.55 371.834 2924.55 371.478C2924.55 371.123 2907.79 359.579 2887.3 345.824C2866.81 332.07 2841.05 314.721 2830.05 307.27C2791.28 281.008 2739.79 246.608 2739.24 246.608C2738.94 246.608 2736.24 250.095 2733.25 254.358ZM880.052 274.702C866.111 275.455 858.947 276.841 844.54 281.572C818.75 290.04 793.41 306.428 772.943 327.876C737.86 364.643 730.501 405.862 751.856 446.004C763.417 467.738 782.074 485.988 800.498 493.586C811.598 498.163 820.705 499.856 834.052 499.822C848.705 499.785 859.903 497.648 885.552 489.995C913.119 481.77 921.975 481.723 926.141 489.78C929.488 496.252 925.967 503.754 916.052 511.28C905.48 519.306 891.235 525.511 875.052 529.137C865.247 531.334 835.883 532.211 824.449 530.648C819.479 529.969 815.222 529.605 814.987 529.839C814.753 530.074 816.867 533.605 819.684 537.687C833.25 557.34 842.344 570.641 853.802 587.592C862.505 600.467 867.018 606.278 868.674 606.742C873.42 608.072 895.557 607.624 903.344 606.04C923.171 602.007 946.404 591.67 964.523 578.823C975.801 570.827 994.364 553.188 1002.02 543.195C1031.59 504.591 1034.91 458.525 1011.05 418.164C989.193 381.189 963.075 367.778 925.478 374.224C914.644 376.081 901.411 380.072 880.015 387.935C862.473 394.381 854.314 395.762 849.74 393.06C844.915 390.21 843.386 385.337 845.898 380.811C847.751 377.473 855.395 369.809 860.04 366.634C873.507 357.427 895.434 348.984 913.052 346.223C927.641 343.936 930.181 343.687 939.368 343.646L947.684 343.608L939.308 331.358C934.701 324.621 928.282 315.283 925.042 310.608C921.803 305.933 915.022 296.033 909.973 288.608L900.794 275.108L895.923 274.608C893.244 274.333 886.102 274.375 880.052 274.702ZM3025.97 466.46C3017.19 474.851 2973.82 516.864 2938.05 551.624C2929.25 560.176 2908.78 579.966 2892.55 595.604C2876.33 611.241 2854.95 631.977 2845.05 641.682C2835.15 651.387 2824.23 661.95 2820.78 665.155C2817.33 668.36 2814.63 671.297 2814.78 671.682C2815.23 672.838 2827.71 686.045 2845.91 704.608C2855.35 714.233 2869.29 728.57 2876.91 736.468L2890.74 750.828L2894.9 746.968C2898.84 743.309 2918.96 723.743 2951.86 691.581L2966.66 677.108L2970.06 680.911L2973.45 684.714L2966.88 697.911C2960.65 710.418 2957.16 717.579 2934.15 765.016C2928.84 775.965 2924.62 785.269 2924.77 785.692C2924.93 786.115 2938.56 800.331 2955.07 817.284C2971.58 834.237 2988.94 852.104 2993.65 856.988L3002.21 865.868L3008.8 850.488C3012.42 842.029 3019.71 824.533 3025 811.608C3030.29 798.683 3035.67 785.633 3036.96 782.608C3038.24 779.583 3043.03 768.108 3047.6 757.108C3052.17 746.108 3056.27 736.689 3056.71 736.176C3057.19 735.616 3061.01 736.397 3066.28 738.135C3077.44 741.813 3092.72 742.684 3102.62 740.207C3111.07 738.094 3123.42 731.902 3131.69 725.645C3147.14 713.945 3163.47 693.209 3169.45 677.714C3174.01 665.883 3174.86 661.227 3174.76 648.608C3174.61 629.207 3168.77 612.479 3154.61 590.826C3145.65 577.118 3136.66 566.615 3114.18 543.579C3105.31 534.488 3092.23 520.988 3085.12 513.579C3078.01 506.17 3063.34 491.05 3052.53 479.978L3032.88 459.849L3025.97 466.46ZM582.561 524.698C542.502 528.552 502.838 551.085 472.486 587.231C448.629 615.641 435.285 647.876 433.004 682.608C430.499 720.753 447.643 763.546 478.37 795.847C506.025 824.919 541.715 844.756 576.052 850.14C592.57 852.73 615.057 851.761 630.674 847.786C691.043 832.419 744.328 776.44 757.738 714.296C760.987 699.238 760.982 673.263 757.728 658.727C750.061 624.487 731.619 594.022 703.052 568.408C674.799 543.076 641.675 527.841 607.883 524.637C595.981 523.508 594.895 523.511 582.561 524.698ZM3036.05 610.061L3018.05 627.465L3025.05 634.568C3036.9 646.592 3045.79 649.284 3056.32 644.036C3062.42 640.996 3070.9 632.114 3072.59 626.995C3074.07 622.508 3073.44 616.274 3070.97 611.083C3069.25 607.455 3056.11 592.576 3054.67 592.633C3054.33 592.647 3045.95 600.489 3036.05 610.061ZM568.965 631.432C549.085 638.304 534.877 659.311 536.916 678.817C539.291 701.544 559.749 727.146 586.132 740.409C595.37 745.053 603.667 746.884 613.24 746.393C620.148 746.039 622.58 745.404 628.786 742.337C651.404 731.159 661.604 707.698 653.708 685.017C646.252 663.596 622.41 640.203 600.132 632.448C590.218 628.996 577.235 628.573 568.965 631.432ZM305.837 807.812C305.267 808.525 298.609 819.908 291.04 833.108C268.171 872.992 262.897 882.122 248.59 906.608C236.756 926.86 203.861 983.843 196.87 996.203L194.553 1000.3L214.803 1012.15C225.94 1018.67 243.015 1028.6 252.747 1034.23L270.442 1044.45L277.161 1032.78C290.936 1008.85 298.967 995.608 299.702 995.608C300.451 995.608 313.608 1003.16 347.552 1023.09C357.177 1028.74 374.502 1038.76 386.052 1045.35C412.453 1060.41 422.873 1066.43 443.552 1078.61C467.041 1092.45 485.175 1102.61 486.385 1102.61C486.957 1102.61 489.761 1098.45 492.616 1093.36C495.471 1088.27 507.7 1067.1 519.792 1046.3C531.883 1025.51 541.613 1008.34 541.414 1008.14C540.797 1007.52 465.149 963.388 454.017 957.149C437.254 947.755 356.377 900.709 355.347 899.753C354.96 899.393 357.249 894.601 360.434 889.103C363.62 883.606 369.899 872.787 374.389 865.062C378.879 857.336 382.552 850.746 382.552 850.417C382.552 850.088 376.815 846.558 369.802 842.572C362.789 838.586 346.323 829.058 333.209 821.399C320.095 813.74 308.805 807.258 308.119 806.995C307.433 806.732 306.406 807.1 305.837 807.812ZM3350.05 846.749C3348.4 847.21 3322.08 853.419 3291.55 860.545C3261.03 867.672 3217.6 877.817 3195.05 883.091C3172.5 888.364 3151.13 893.353 3147.55 894.177C3143.98 895 3138.13 896.361 3134.55 897.201C3130.98 898.04 3126.25 899.149 3124.05 899.664C3121.85 900.179 3118.93 900.796 3117.55 901.036C3113.45 901.753 3046.63 917.132 3044.36 917.88C3043.99 918.005 3046.27 922.608 3049.44 928.108C3052.62 933.608 3056.46 940.358 3057.98 943.108C3070.72 966.082 3099.21 1013.61 3100.25 1013.61C3100.96 1013.61 3112.08 1010.23 3124.95 1006.11C3137.83 1001.98 3149.03 998.608 3149.85 998.608C3150.67 998.608 3153.33 1002.09 3155.77 1006.36C3158.2 1010.62 3166.58 1025.2 3174.37 1038.76C3182.17 1052.32 3188.55 1063.87 3188.55 1064.44C3188.55 1065 3187.45 1066.33 3186.09 1067.4C3184.74 1068.46 3178.33 1074.28 3171.84 1080.33C3165.36 1086.37 3157.68 1093.52 3154.78 1096.21L3149.51 1101.11L3156.61 1113.11C3160.52 1119.71 3164.96 1127.36 3166.48 1130.11C3168.01 1132.86 3170.27 1136.91 3171.51 1139.11C3174.84 1145.01 3203.36 1193.87 3204.45 1195.53C3205.18 1196.65 3206.52 1195.69 3210.72 1191.05C3213.65 1187.8 3223.25 1177.48 3232.05 1168.12C3240.85 1158.76 3255.91 1142.55 3265.52 1132.1C3275.13 1121.65 3286.18 1109.73 3290.08 1105.61C3297.58 1097.65 3310.38 1083.95 3312.05 1082.07C3314.03 1079.85 3331.09 1061.23 3333.05 1059.16C3341.01 1050.73 3363.96 1026.03 3373.04 1016.11C3379.08 1009.51 3386.99 1000.96 3390.63 997.108C3410.4 976.181 3421.53 964.024 3421.54 963.352C3421.55 962.936 3413.73 949.211 3404.17 932.852C3394.6 916.493 3385.53 900.858 3384.01 898.108C3375.39 882.589 3355.19 847.946 3354.2 847.008C3353.46 846.301 3351.98 846.208 3350.05 846.749ZM3292.05 953.791C3279.95 957.643 3259.58 964.168 3246.78 968.29L3223.51 975.785L3226.73 981.447C3230.32 987.767 3243.02 1009.42 3244.25 1011.35C3245.03 1012.55 3254.93 1003.88 3277.05 982.635C3283.24 976.691 3308.23 953.57 3313.98 948.469C3316.39 946.338 3312.5 947.281 3292.05 953.791ZM135.569 1131.86C134.377 1135.3 123.586 1167.36 111.588 1203.11C99.5897 1238.86 84.5486 1283.47 78.1626 1302.24C71.7766 1321.01 66.5516 1336.77 66.5516 1337.26C66.5516 1337.75 72.0636 1340.01 78.8016 1342.27C85.5396 1344.53 104.173 1350.89 120.209 1356.4L149.365 1366.43L158.085 1340.27C162.882 1325.88 167.1 1313.78 167.46 1313.38C168.166 1312.59 235.475 1334.61 302.552 1357.58C325.377 1365.4 350.485 1373.98 358.348 1376.65L372.644 1381.5L373.727 1378.8C374.322 1377.32 377.86 1366.88 381.589 1355.61C385.317 1344.33 392.684 1322.44 397.96 1306.95C403.236 1291.46 407.552 1278.35 407.552 1277.81C407.552 1276.62 388.445 1269.93 319.552 1246.96C245.147 1222.15 205.187 1208.52 204.205 1207.6C203.74 1207.17 207.227 1195.1 211.955 1180.78C216.684 1166.47 220.547 1154.38 220.542 1153.93C220.536 1153.48 217.499 1152.15 213.792 1150.97C210.085 1149.8 191.621 1143.61 172.76 1137.22C153.899 1130.83 138.303 1125.61 138.102 1125.61C137.9 1125.61 136.761 1128.42 135.569 1131.86ZM3521.55 1183.13C3513.58 1184.95 3484.06 1192.64 3416.05 1210.59C3358.49 1225.79 3296.97 1241.81 3291.05 1243.15C3290.5 1243.27 3278.35 1246.41 3264.05 1250.12C3249.75 1253.84 3237.04 1257.09 3235.8 1257.36C3234.56 1257.62 3233.55 1258.33 3233.55 1258.92C3233.55 1259.98 3237.72 1276.12 3247.54 1313.11C3250.16 1323.01 3253.95 1337.38 3255.96 1345.05C3257.96 1352.72 3259.77 1359.16 3259.98 1359.37C3260.18 1359.57 3283.46 1353.68 3311.7 1346.27C3339.94 1338.86 3373.85 1330.08 3387.05 1326.74C3400.25 1323.41 3417.11 1319.11 3424.52 1317.19C3431.92 1315.28 3438.11 1313.83 3438.26 1313.98C3438.41 1314.13 3405.57 1330.83 3365.29 1351.08C3299.25 1384.3 3271.76 1398.28 3270.68 1399.2C3270.47 1399.38 3272.14 1406.63 3274.38 1415.32C3276.62 1424 3280.06 1437.41 3282.03 1445.11C3283.99 1452.81 3285.86 1459.95 3286.18 1460.97C3286.72 1462.71 3287.64 1462.79 3299.91 1462.2C3311.82 1461.62 3364.93 1459.27 3426.55 1456.61C3439.48 1456.05 3454.89 1455.31 3460.8 1454.97C3467.47 1454.59 3471.55 1454.73 3471.55 1455.33C3471.55 1456.21 3465.52 1457.89 3430.55 1466.78C3416.64 1470.32 3420.68 1469.27 3352.69 1487.03C3322.24 1494.99 3297.17 1501.65 3296.98 1501.84C3296.8 1502.03 3298.14 1507.79 3299.97 1514.65C3307.83 1544.05 3312.66 1562.38 3317.62 1581.61C3320.52 1592.88 3323.21 1602.48 3323.6 1602.93C3323.98 1603.38 3344.71 1598.34 3369.67 1591.74C3457.83 1568.41 3473.32 1564.36 3500.05 1557.66C3531.39 1549.8 3616.84 1527.42 3617.5 1526.9C3617.74 1526.71 3617 1522.85 3615.86 1518.33C3608.97 1491.13 3590.44 1419.78 3584.77 1398.64L3581.97 1388.18L3577.51 1388.42C3575.06 1388.55 3551.9 1389.75 3526.05 1391.1C3500.2 1392.45 3474.1 1393.83 3468.05 1394.17C3426.38 1396.51 3410.83 1397.04 3411.22 1396.11C3411.44 1395.56 3418.7 1391.75 3427.34 1387.64C3435.98 1383.53 3462.85 1370.31 3487.05 1358.26C3511.25 1346.21 3538.36 1332.83 3547.3 1328.53C3556.27 1324.2 3563.55 1320.1 3563.55 1319.36C3563.55 1318.63 3562.85 1315.35 3561.99 1312.07C3561.13 1308.79 3557.73 1295.53 3554.42 1282.61C3548.13 1257.99 3541.68 1233.02 3535.95 1211.11C3534.08 1203.96 3531.59 1194.39 3530.43 1189.86C3529.26 1185.32 3528.02 1181.67 3527.68 1181.74C3527.33 1181.81 3524.58 1182.43 3521.55 1183.13ZM337.052 1465.17C336.502 1465.4 327.502 1466.95 317.052 1468.62C306.602 1470.29 296.927 1471.85 295.552 1472.09C252.331 1479.48 30.0456 1518.85 29.6766 1519.19C29.3126 1519.51 26.5416 1540.68 16.9406 1616.45C14.3956 1636.53 12.7196 1653.15 13.1936 1653.6C13.6656 1654.05 21.9266 1657.89 31.5516 1662.14C51.1706 1670.8 90.4946 1688.4 137.552 1709.58C175.294 1726.56 170.939 1724.61 193.052 1734.4C202.952 1738.79 214.652 1744.05 219.052 1746.1C223.452 1748.14 230.877 1751.51 235.552 1753.58C250.453 1760.17 297.966 1781.62 300.3 1782.8C301.537 1783.43 302.707 1783.76 302.901 1783.53C303.594 1782.7 315.552 1685.85 315.837 1678.75L316.052 1673.4L291.628 1664.5C278.196 1659.6 266.971 1655.36 266.684 1655.07C266.057 1654.45 274.548 1583.97 275.6 1581.07C276.284 1579.19 278.248 1578.86 302.552 1576.63C317.805 1575.22 328.927 1573.77 329.152 1573.16C329.364 1572.58 332.23 1550.73 335.52 1524.61C338.81 1498.48 341.889 1474.3 342.362 1470.86L343.221 1464.61L340.636 1464.69C339.215 1464.73 337.602 1464.95 337.052 1465.17ZM152.349 1591.51C127.212 1594.08 106.424 1596.4 106.152 1596.67C105.616 1597.21 193.827 1629.58 194.401 1629.06C194.838 1628.66 199.54 1591.92 199.547 1588.86C199.55 1587.62 199.215 1586.66 198.802 1586.73C198.389 1586.79 177.486 1588.94 152.349 1591.51ZM3615.21 1697.24C3615.12 1697.32 3572.3 1697.67 3520.05 1698.04C3467.8 1698.4 3403.09 1698.85 3376.25 1699.03C3349.41 1699.22 3327.19 1699.64 3326.87 1699.95C3326.56 1700.27 3326.69 1745.88 3327.18 1801.32L3328.05 1902.11L3335.55 1902.09C3339.68 1902.08 3359.37 1901.97 3379.32 1901.84L3415.59 1901.61L3415.53 1855.36L3415.47 1809.11L3429.35 1808.83L3443.24 1808.55L3443.89 1824.33C3444.25 1833.01 3444.55 1851.54 3444.55 1865.51L3444.55 1890.91L3454.3 1890.26C3459.66 1889.91 3476.39 1889.62 3491.46 1889.61L3518.88 1889.61L3518.22 1849.25L3517.56 1808.89L3529.55 1808.19C3536.15 1807.8 3541.94 1807.73 3542.43 1808.03C3542.91 1808.33 3543.64 1828.16 3544.05 1852.09L3544.79 1895.61L3550.42 1895.62C3553.52 1895.62 3562.8 1895.73 3571.05 1895.86C3579.3 1895.99 3596.55 1895.99 3609.39 1895.85L3632.72 1895.61L3632.13 1859.36C3631.8 1839.42 3631.26 1794.9 3630.93 1760.43L3630.31 1697.76L3622.84 1697.43C3618.74 1697.25 3615.3 1697.17 3615.21 1697.24ZM287.052 1853.12C282.652 1853.83 261.277 1856.95 239.552 1860.06C217.827 1863.17 199.152 1865.87 198.052 1866.05C196.952 1866.23 191.777 1866.9 186.552 1867.55C181.327 1868.2 174.127 1869.19 170.552 1869.75C166.977 1870.31 162.477 1870.94 160.552 1871.14C157.141 1871.5 143.999 1873.4 47.2926 1887.48C21.5756 1891.23 0.309636 1894.52 0.0356357 1894.79C-0.411364 1895.24 3.39964 1923.51 8.49964 1957.61C9.52864 1964.48 12.5226 1985.07 15.1546 2003.36C19.6626 2034.69 20.0566 2036.61 21.9946 2036.61C23.1256 2036.61 60.8787 2038.86 105.89 2041.61C150.901 2044.36 188.701 2046.62 189.89 2046.64C191.595 2046.66 191.735 2046.85 190.552 2047.52C187.9 2049.03 65.9206 2093.21 36.1836 2103.43C33.5066 2104.35 31.0986 2105.66 30.8326 2106.34C30.3846 2107.49 33.5147 2130.78 40.5447 2178.61C42.1217 2189.33 44.3706 2205.08 45.5436 2213.61C47.7986 2230 50.5146 2246.9 50.9656 2247.36C51.1926 2247.58 58.4486 2246.6 82.3606 2243.09C84.1796 2242.82 87.7796 2242.36 90.3606 2242.06C92.9406 2241.76 97.9766 2241.06 101.552 2240.49C105.127 2239.93 109.627 2239.27 111.552 2239.03C113.477 2238.79 116.627 2238.38 118.552 2238.13C124.892 2237.29 225.239 2222.78 267.552 2216.6C290.377 2213.26 318.502 2209.16 330.052 2207.48C341.602 2205.81 351.211 2204.28 351.406 2204.08C351.601 2203.89 350.367 2193.92 348.663 2181.92C342.591 2139.15 337.585 2105.07 337.038 2102.79C336.404 2100.15 337.177 2100.12 312.552 2103.73C283.901 2107.92 208.795 2118.85 182.637 2122.64C167.559 2124.82 155.062 2126.45 154.865 2126.25C154.668 2126.06 156.43 2125.18 158.78 2124.3C161.129 2123.43 181.952 2115.67 205.052 2107.07C272.28 2082.02 296.544 2073.03 304.552 2070.22C325.148 2062.98 330.051 2060.82 330.353 2058.85C330.519 2057.77 328.848 2044.34 326.64 2029C324.432 2013.66 322.458 1999.76 322.255 1998.11C322.051 1996.46 321.247 1995 320.468 1994.88C319.267 1994.68 217.406 1987.71 191.552 1986.06C186.877 1985.76 180.577 1985.33 177.552 1985.11C174.527 1984.88 167.327 1984.38 161.552 1983.98C155.777 1983.58 149.927 1983.17 148.552 1983.06C147.177 1982.95 144.139 1982.81 141.802 1982.74C132.777 1982.46 138.405 1980.94 159.802 1977.85C271.461 1961.76 292.693 1958.71 297.052 1958.13C299.802 1957.76 303.627 1957.25 305.552 1956.99C312.998 1956 316.051 1954.98 315.853 1953.55C313.724 1938.19 306.72 1889.23 304.496 1874.15C302.877 1863.18 301.552 1853.62 301.552 1852.9C301.552 1851.32 297.933 1851.37 287.052 1853.12ZM3322.09 1994.76C3321.79 1996.05 3319.73 2005.43 3317.51 2015.61C3312.74 2037.46 3306.5 2065.98 3302.52 2084.08C3300.95 2091.22 3299.76 2097.1 3299.86 2097.15C3300.09 2097.26 3325.75 2102.79 3381.05 2114.67C3425.22 2124.16 3431.82 2125.67 3431.27 2126.22C3430.85 2126.64 3377.43 2138 3311.55 2151.68C3306.33 2152.77 3298.72 2154.31 3294.65 2155.11C3290.59 2155.91 3287.14 2156.69 3286.99 2156.84C3286.69 2157.14 3282.04 2179.04 3280.45 2187.61C3279.89 2190.63 3278.81 2195.81 3278.03 2199.11C3277.26 2202.41 3274.33 2215.91 3271.52 2229.11C3268.7 2242.31 3265.74 2255.97 3264.93 2259.48C3264.12 2262.98 3263.7 2266.09 3263.99 2266.38C3264.48 2266.87 3316.13 2278.28 3371.55 2290.14C3383.38 2292.67 3395.75 2295.33 3399.05 2296.05C3402.35 2296.78 3407.53 2297.87 3410.55 2298.48C3429.43 2302.31 3442.36 2305.06 3498.39 2317.23C3532.67 2324.68 3560.84 2330.62 3560.98 2330.44C3561.12 2330.26 3564.04 2317.06 3567.46 2301.11C3570.89 2285.16 3575.23 2264.91 3577.12 2256.11C3579.01 2247.31 3581.26 2237.23 3582.11 2233.71C3582.95 2230.19 3583.29 2226.99 3582.85 2226.61C3582.13 2225.97 3566.87 2222.56 3528.55 2214.48C3521.13 2212.91 3514.15 2211.42 3513.05 2211.17C3511.95 2210.92 3507.56 2210.03 3503.29 2209.18C3484.39 2205.42 3456.92 2199.32 3455.55 2198.57C3454.22 2197.83 3454.22 2197.68 3455.55 2197.23C3457.83 2196.44 3493.66 2188.88 3505.55 2186.67C3511.33 2185.6 3525.73 2182.7 3537.55 2180.22C3549.38 2177.74 3567.15 2174.04 3577.05 2172.01C3586.95 2169.97 3595.38 2168.02 3595.77 2167.69C3596.17 2167.35 3598.74 2156.5 3601.49 2143.59C3604.24 2130.67 3607.39 2116.06 3608.49 2111.11C3609.58 2106.16 3612.65 2091.93 3615.31 2079.5L3620.13 2056.88L3608.59 2054.25C3597.7 2051.76 3547.95 2041.11 3542.55 2040.12C3538.32 2039.33 3531.72 2037.96 3514.55 2034.3C3479.93 2026.92 3329.83 1994.21 3324.85 1992.96C3323.12 1992.53 3322.52 1992.93 3322.09 1994.76ZM347.16 2297.07C328.014 2302.57 312.875 2317.75 308.041 2336.31C299.353 2369.67 325.585 2403.61 360.052 2403.61C374.223 2403.61 388.087 2397.93 397.947 2388.1C405.771 2380.3 410.006 2373.06 412.534 2363.18C415.981 2349.7 414.837 2339.16 408.49 2325.93C402.369 2313.18 392.098 2303.96 378.052 2298.63C370.475 2295.75 354.555 2294.94 347.16 2297.07ZM3197.27 2423.36C3169.62 2483.38 3167.28 2488.73 3168.26 2489.71C3169.19 2490.64 3216.54 2512.63 3240.55 2523.28C3262.09 2532.83 3362.01 2578.82 3362.82 2579.56C3363.73 2580.37 3361.18 2586.29 3343.93 2623.38C3342.07 2627.38 3340.55 2630.87 3340.55 2631.15C3340.55 2631.62 3357.42 2639.78 3362.46 2641.74C3363.78 2642.25 3377.2 2648.34 3392.29 2655.26C3407.58 2662.28 3420.08 2667.46 3420.55 2666.98C3421.01 2666.5 3428.23 2651.03 3436.59 2632.61C3444.95 2614.18 3453.58 2595.28 3455.76 2590.61C3457.94 2585.93 3466.92 2566.36 3475.72 2547.11C3484.51 2527.86 3492.74 2509.86 3494 2507.11C3495.26 2504.36 3497.99 2498.28 3500.07 2493.61C3502.15 2488.93 3506.04 2480.43 3508.72 2474.71C3511.39 2468.99 3513.47 2464.2 3513.32 2464.06C3512.77 2463.56 3479.58 2448.17 3467.05 2442.61C3459.9 2439.43 3450 2435.02 3445.05 2432.79C3440.1 2430.57 3435.45 2428.61 3434.71 2428.43C3433.83 2428.22 3429.34 2436.8 3421.55 2453.61C3415.05 2467.63 3409.35 2479.03 3408.89 2478.93C3408.43 2478.83 3392.98 2471.79 3374.55 2463.3C3356.13 2454.8 3328.9 2442.35 3314.05 2435.63C3299.2 2428.9 3270.54 2415.8 3250.36 2406.51C3230.18 2397.21 3213.48 2389.61 3213.25 2389.61C3213.01 2389.61 3205.82 2404.8 3197.27 2423.36ZM406.052 2484.03C382.683 2489.41 358.392 2505.11 346.72 2522.39C338.299 2534.85 335.066 2547.9 335.737 2566.71C335.97 2573.25 335.887 2578.61 335.551 2578.61C335.215 2578.61 333.391 2577.45 331.496 2576.03C323.971 2570.39 311.772 2565.4 302.438 2564.15C288.078 2562.21 265.652 2570.87 247.617 2585.3C240.687 2590.84 231.968 2600.96 228.708 2607.25C220.134 2623.78 219.304 2647.89 226.533 2670.42C232.296 2688.37 236.407 2696.48 259.848 2736.11C267.005 2748.21 276.881 2765.08 281.794 2773.61C298.897 2803.28 315.84 2831.61 316.49 2831.61C316.85 2831.61 320.428 2829.58 324.443 2827.11C328.457 2824.63 331.915 2822.61 332.127 2822.61C332.34 2822.61 334.975 2821.03 337.985 2819.11C340.994 2817.18 343.672 2815.61 343.936 2815.61C344.2 2815.61 354.459 2809.68 366.734 2802.44C379.009 2795.19 392.652 2787.17 397.052 2784.61C401.452 2782.04 411.352 2776.22 419.052 2771.66C433.442 2763.14 444.596 2756.61 471.552 2740.92C480.077 2735.96 500.777 2723.8 517.552 2713.89C534.327 2703.99 554.352 2692.23 562.052 2687.76C569.752 2683.3 576.683 2679.23 577.455 2678.72C578.58 2677.98 577.414 2675.36 571.561 2665.45C567.548 2658.66 561.472 2648.38 558.059 2642.61C554.645 2636.83 550.729 2630.08 549.355 2627.61C546.766 2622.94 518.572 2575.04 507.568 2556.61C493.736 2533.44 483.08 2518.96 471.124 2507.08C454.858 2490.92 439.959 2483.61 422.052 2482.99C415.87 2482.78 409.761 2483.17 406.052 2484.03ZM422.783 2594.53C419.961 2595.48 415.779 2597.56 413.49 2599.15C401.58 2607.4 400.502 2617.07 409.689 2633.22C412.469 2638.11 415.344 2642.73 416.076 2643.5C417.204 2644.68 420.47 2643.08 437.48 2633C448.519 2626.46 457.552 2620.79 457.552 2620.4C457.552 2620.01 456.158 2617.31 454.455 2614.4C443.826 2596.23 434.688 2590.5 422.783 2594.53ZM328.711 2650.76C317.849 2654.94 311.519 2664.34 313.089 2673.97C313.783 2678.23 320.24 2692.25 323.471 2696.51L325.296 2698.92L343.674 2688.09C353.782 2682.13 362.388 2676.98 362.798 2676.64C363.732 2675.86 352.338 2657.04 349.297 2654.34C346.201 2651.59 339.563 2648.65 336.552 2648.68C335.177 2648.7 331.649 2649.63 328.711 2650.76ZM3124.58 2650.69C3102.09 2653.22 3078.54 2661.93 3059.05 2674.94C3036.83 2689.76 3012.3 2717.36 2998.88 2742.61C2993.93 2751.93 2986.19 2771.12 2984.16 2779.11C2978.26 2802.3 2977.87 2829.2 2983.12 2850.06C2990.28 2878.47 3004.89 2903.27 3026.81 2924.22C3076.57 2971.79 3135.4 2988.33 3190.09 2970.15C3235.64 2955.01 3278.11 2911.77 3296.93 2861.39C3317.9 2805.25 3303.85 2747.41 3258.42 2702.85C3219.88 2665.04 3169.96 2645.59 3124.58 2650.69ZM3118.88 2756.68C3107.53 2758.84 3093.36 2769.85 3087.3 2781.21C3074.45 2805.33 3084.66 2832.6 3114.72 2854.45C3121.83 2859.62 3134.78 2866.65 3140.55 2868.47C3152.36 2872.19 3166.46 2871.59 3176.38 2866.93C3184.47 2863.13 3195.29 2852.05 3199.64 2843.11C3202.89 2836.44 3203.05 2835.59 3203.05 2825.11C3203.05 2812.25 3201.75 2807.88 3194.69 2797.11C3183.26 2779.67 3159.65 2762.29 3141.05 2757.63C3134.86 2756.07 3124.42 2755.63 3118.88 2756.68Z" fill="#C95D43"/>
</svg>
