<svg width="3663" height="3257" viewBox="0 0 3663 3257" fill="none" xmlns="http://www.w3.org/2000/svg">
<path fill-rule="evenodd" clip-rule="evenodd" d="M1788.3 370.063C1674.2 372.91 1546.91 392.124 1438.3 422.896C1406.78 431.825 1360.46 446.859 1326.8 459.084C1248.7 487.449 1157.2 531.456 1082.3 576.673C1013.74 618.066 940.492 671.252 884.371 720.394C878.085 725.898 868.635 734.175 863.371 738.787C832.459 765.866 783.54 815.041 749.896 852.851C713.183 894.112 671.073 947.125 645.796 983.902C590.117 1064.91 555.961 1123.86 516.297 1207.4C483.494 1276.49 455.575 1350.7 432.937 1428.96C426.138 1452.47 414.821 1497.67 411.921 1512.9C411.659 1514.28 409.635 1524.44 407.422 1535.48C401.718 1563.96 395.92 1598.62 392.797 1622.9C390.749 1638.82 390.364 1641.73 389.811 1645.4C388.254 1655.75 383.973 1705.56 382.119 1734.9C380.14 1766.21 380.449 1861.49 382.637 1894.9C388.011 1976.96 397.842 2049.67 414.412 2129.9C431.273 2211.55 460.997 2306.07 493.813 2382.4C508.799 2417.26 516.865 2434.66 533.454 2467.9C549.241 2499.54 573.223 2542.53 593.14 2574.9C610.26 2602.72 647.26 2658.02 649.203 2658.69C650.035 2658.98 654.118 2654.53 691.174 2613C720.583 2580.03 723.569 2576.32 750.446 2539.4C756.051 2531.7 769.701 2513.25 780.779 2498.4C805.769 2464.9 848.069 2407.6 851.278 2402.9C860.134 2389.93 873.989 2379.79 890.3 2374.34C896.511 2372.27 909.082 2371.88 923.87 2373.3L932.939 2374.18L935.134 2371.38C936.342 2369.85 938.401 2364.95 939.71 2360.5C941.02 2356.04 943.722 2346.78 945.715 2339.9C951.197 2320.99 955.963 2311.99 965.371 2302.77C973.886 2294.42 974.167 2293.81 976.713 2278.4C977.53 2273.45 979.535 2261.75 981.168 2252.4C982.801 2243.05 985.773 2225.95 987.772 2214.4C1003.23 2125.11 1015.15 2069.38 1028.95 2021.9C1046.66 1960.95 1065.18 1913.08 1095.31 1850.4C1107.96 1824.09 1114.26 1809.95 1115.45 1805.24C1116.91 1799.42 1115.94 1793.9 1109.37 1770.73C1103.48 1749.98 1095 1715.63 1091.99 1700.4C1089.85 1689.53 1089.82 1688.08 1089.72 1577.9C1089.67 1516.58 1089.31 1463.7 1088.93 1460.4C1086.31 1437.78 1084.84 1430.34 1080.23 1416.3C1076.55 1405.12 1075.22 1394.12 1076.38 1384.58C1077.61 1374.58 1077.15 1376.15 1089.8 1337.9C1120.74 1244.34 1136.09 1202.36 1148.37 1177.75C1171.9 1130.58 1207.11 1091.98 1252.21 1063.9C1304.47 1031.36 1352.28 995.432 1385.77 963.514C1391.51 958.047 1439.85 914.394 1446.32 908.839C1470.86 887.773 1506.27 861.456 1531.3 845.687C1548.24 835.013 1600.77 805.239 1613.8 798.928C1630.01 791.075 1650.57 784.153 1677.43 777.513C1700.34 771.847 1704.21 770.99 1741.3 763.347C1773.06 756.804 1785.17 757.231 1802.1 765.494C1816.02 772.295 1830.79 790.248 1842.72 814.902C1849.82 829.584 1851.79 836.909 1851.7 848.402C1851.55 868.674 1841.55 890.142 1821.92 912.319C1818.56 916.123 1807.93 926.296 1798.3 934.924C1774.25 956.484 1766.89 964.195 1759.9 975.168C1755.32 982.348 1755.75 982.599 1769.56 980.763C1783.22 978.948 1836.22 978.915 1849.3 980.714C1882.02 985.215 1914.41 993.552 1941.3 1004.4C1965.18 1014.03 1973.68 1016.22 1987.3 1016.23C1998.34 1016.24 2003.32 1015.17 2013.3 1010.63C2019.01 1008.03 2028.67 999.546 2029.64 996.276C2029.95 995.245 2031.58 986.381 2033.28 976.578C2043.5 917.408 2058.65 860.163 2080.81 796.902C2083.7 788.668 2084.38 785.429 2083.97 781.891C2083.69 779.41 2080.11 768.61 2076.02 757.891C2066.33 732.499 2064.12 724.087 2064.21 712.891C2064.29 701.893 2065.72 695.058 2069.55 687.402C2080.36 665.734 2106.19 652.957 2131.34 656.833C2162.45 661.627 2185.82 677.849 2215.73 715.402C2222.46 723.851 2228.2 734.614 2231.73 745.402C2235.7 757.515 2241.75 796.23 2242.83 816.402C2244.81 853.392 2245.41 861.534 2246.82 870.902C2250.85 897.538 2259.14 926.151 2276.76 974.305C2280.97 985.801 2285.35 997.951 2286.5 1001.3C2287.64 1004.66 2289.42 1008.6 2290.44 1010.05C2294.34 1015.62 2363.1 1069.26 2368.08 1070.62C2372.17 1071.74 2379.35 1071.44 2394.3 1069.55C2476.18 1059.21 2567.22 1082.12 2619.04 1126.11C2660.02 1160.9 2682.38 1206.78 2685.2 1261.87C2685.91 1275.69 2686.12 1276.78 2689.15 1282.43C2690.92 1285.72 2696.36 1294.03 2701.26 1300.9C2719.19 1326.07 2730.08 1342.07 2736.19 1352.2C2756.15 1385.31 2774.54 1437.69 2784.2 1488.9C2789.91 1519.19 2792.13 1543.61 2792.95 1584.9C2794.51 1664.11 2785.57 1724.2 2763.27 1784.4C2744.97 1833.82 2719.09 1876.21 2685.05 1912.53C2680.35 1917.55 2675.97 1922.65 2675.32 1923.86C2673.48 1927.3 2671.68 1934.06 2667.86 1951.9C2655.28 2010.51 2639.24 2041.31 2609.7 2063.57C2602.28 2069.16 2600.24 2072.28 2598.34 2080.9C2596.22 2090.54 2597.68 2103.58 2601.89 2112.49C2604.3 2117.6 2612.46 2126.05 2632.83 2144.54C2652.67 2162.55 2661.04 2172.15 2670.43 2187.63C2685.07 2211.81 2692.84 2237.83 2693.98 2266.53C2695.06 2293.84 2690.73 2315.52 2679.52 2338.9C2672.45 2353.63 2663.91 2365.41 2649.76 2379.9C2628.33 2401.86 2615.14 2424.43 2610.61 2446.9C2609.77 2451.03 2608.72 2456.2 2608.26 2458.4C2606.76 2465.57 2600.22 2487.18 2596.6 2496.9C2577.88 2547.18 2550.4 2584.54 2509.83 2614.87C2462.47 2650.28 2405.39 2670.78 2335.8 2677.35C2324.45 2678.42 2319.75 2678.77 2300.8 2679.95C2290.35 2680.59 2281.67 2681.24 2281.52 2681.38C2281.06 2681.79 2263.27 2765.01 2257.78 2792.4C2256.45 2799 2253.53 2813.18 2251.28 2823.9C2246.74 2845.57 2246.69 2849.35 2250.77 2860.26C2256.09 2874.49 2265.71 2904.15 2274.67 2933.9C2290.55 2986.69 2306.93 3056.48 2316.8 3113.4C2322.08 3143.89 2325.58 3164.33 2326.46 3170C2327.03 3173.63 2327.83 3177.13 2328.23 3177.78C2329 3179.04 2341.55 3174.88 2373.3 3162.86C2452.63 3132.81 2554.81 3079.51 2630.8 3028.54C2679.18 2996.09 2712.17 2971.39 2759.78 2931.96C2791.2 2905.95 2819.63 2879.77 2855.32 2844C2918.42 2780.76 2964.21 2726.53 3017.95 2651.4C3038.88 2622.14 3073.38 2567.76 3092.49 2533.9C3169.01 2398.31 3220.9 2259.16 3251.71 2106.9C3265.43 2039.08 3275.55 1956.55 3277.81 1893.9C3278.12 1885.38 3278.59 1876.69 3278.85 1874.61C3279.38 1870.45 3279.39 1771.48 3278.86 1763.4C3278.68 1760.65 3278.21 1750.53 3277.82 1740.9C3277.42 1731.28 3276.97 1723.18 3276.82 1722.9C3276.66 1722.63 3276.21 1716.33 3275.83 1708.91C3275.44 1701.49 3274.99 1695.19 3274.83 1694.91C3274.67 1694.63 3274.24 1690.13 3273.86 1684.9C3270.46 1637.77 3258.92 1562.47 3246.79 1508.4C3241.44 1484.56 3240.47 1480.45 3235.69 1461.4C3220.61 1401.23 3203.72 1348.49 3180.79 1289.9C3159.63 1235.85 3136.4 1185.53 3108.52 1133.4C3076.82 1074.12 3037.88 1012.65 2997.97 958.902C2972.11 924.06 2971.4 923.169 2943.69 889.927C2907.08 846.025 2865.7 802.258 2819.78 758.868C2801.84 741.912 2755.46 701.79 2738.91 688.902C2735.73 686.427 2729.68 681.67 2725.47 678.33C2644.99 614.589 2542.31 551.152 2451.3 508.944C2408.61 489.147 2384.96 478.923 2356.3 467.881C2316.76 452.648 2257.07 432.956 2217.3 422.025C2120.5 395.419 2020.87 378.99 1912.8 371.81C1889.16 370.239 1820.08 369.27 1788.3 370.063ZM2133.28 723.669C2135.71 731.491 2136.74 733.991 2141.83 744.402C2148.54 758.143 2149.82 763.982 2149.71 780.402C2149.6 796.102 2150.88 791.152 2135.81 834.402C2116.82 888.931 2104.29 937.814 2097.38 984.402C2094.61 1003.02 2091.18 1015.09 2084.8 1028.54C2076.31 1046.48 2069.53 1055.23 2061.53 1058.58C2059.72 1059.33 2053.2 1061.27 2047.03 1062.88C2040.85 1064.49 2029.73 1067.76 2022.3 1070.14C2004.14 1075.96 2004.2 1076.33 2024.3 1083.83C2062.1 1097.95 2085.46 1111.38 2107.19 1131.51C2125.9 1148.83 2150.08 1185.8 2157.57 1208.55C2161.21 1219.61 2162.72 1233.17 2161.44 1243.39C2160.89 1247.78 2160.59 1251.53 2160.78 1251.71C2160.97 1251.9 2167.58 1249.04 2175.46 1245.36C2183.35 1241.67 2192.5 1237.41 2195.8 1235.89C2199.1 1234.37 2206.23 1231.05 2211.64 1228.51C2217.06 1225.98 2221.61 1223.9 2221.76 1223.9C2221.91 1223.9 2230 1220.06 2239.73 1215.37C2261.25 1204.99 2311.98 1181.4 2322.3 1176.97C2326.43 1175.2 2332.28 1172.61 2335.3 1171.21C2351.19 1163.85 2372.84 1156.64 2388.3 1153.55C2407.01 1149.81 2412.04 1149.4 2438.3 1149.47C2468.82 1149.55 2480.36 1150.94 2510.8 1158.18C2527.04 1162.04 2528.77 1162.65 2528.46 1164.43C2528.27 1165.52 2528.04 1166.46 2527.96 1166.54C2527.87 1166.62 2523.75 1166.07 2518.8 1165.32C2486.11 1160.38 2463.23 1161.24 2430.55 1168.63C2427.55 1169.3 2427.7 1170.53 2430.88 1171.33C2435.83 1172.58 2448.1 1179.14 2453.74 1183.56C2456.87 1186.02 2461.23 1190.81 2463.43 1194.22L2467.44 1200.4L2464.36 1200.72C2462.36 1200.92 2458.86 1199.82 2454.36 1197.57C2444.92 1192.85 2435.37 1191.3 2424.84 1192.79C2414.68 1194.22 2407.36 1197.81 2400.53 1204.71C2394.01 1211.29 2389.77 1219.54 2386.83 1231.33C2382.83 1247.37 2380.25 1251.61 2372.71 1254.49C2367.91 1256.32 2362.29 1255.98 2353.3 1253.31C2338.13 1248.81 2328.62 1237.72 2326.21 1221.69C2325.61 1217.68 2324.82 1212.42 2324.46 1210L2323.8 1205.59L2315.99 1211.88C2307.2 1218.95 2296.45 1230.94 2291.48 1239.21C2283.9 1251.82 2280.29 1270.63 2283.34 1281.56C2284.93 1287.23 2290.55 1293.22 2296.8 1295.9C2301.62 1297.97 2339.63 1306.92 2353.8 1309.32C2378.86 1313.58 2405.03 1313.47 2426.8 1309.03L2435.79 1307.19L2432.83 1309.3C2431.2 1310.45 2427.86 1313.25 2425.41 1315.52C2421.26 1319.34 2420.92 1320.04 2420.54 1325.52C2420.08 1332.31 2420.89 1334.14 2431.74 1350.81C2435.42 1356.47 2438.22 1361.32 2437.95 1361.59C2437.42 1362.11 2422.38 1354.77 2408.82 1347.39C2387.82 1335.94 2363.35 1327.89 2349.6 1327.91C2327.99 1327.95 2309.3 1342.46 2303.83 1363.44C2302.06 1370.24 2301.85 1379.75 2303.35 1385.15L2304.39 1388.9H2315.79C2322.06 1388.9 2327.38 1389.24 2327.62 1389.65C2327.99 1390.3 2317.22 1434.36 2314.42 1443.64C2313.89 1445.42 2313.78 1447.08 2314.19 1447.33C2314.6 1447.59 2318.5 1445.74 2322.87 1443.23C2337.8 1434.64 2344.32 1431.9 2349.89 1431.9C2354.11 1431.9 2355.5 1432.37 2357.66 1434.54C2359.11 1435.98 2360.76 1438.9 2361.33 1441.01C2363.58 1449.37 2361.08 1456.96 2343.74 1494.5C2330.32 1523.55 2328.05 1528.73 2324.35 1538.78C2321.91 1545.38 2321.6 1547.08 2322.72 1547.51C2323.5 1547.81 2332.83 1542.23 2343.8 1534.9C2354.63 1527.67 2363.72 1521.99 2364.01 1522.27C2365.03 1523.3 2349.78 1550.65 2324.07 1593.9C2286.28 1657.48 2231.72 1716.53 2174.08 1756.24C2136.36 1782.21 2090.09 1805.51 2047.3 1820.07C2023.41 1828.19 1978.59 1838.54 1948.8 1842.8C1909.8 1848.37 1882.26 1849.89 1819.3 1849.91C1744.62 1849.94 1691.2 1852.04 1664.8 1855.99C1599.91 1865.68 1560.28 1896.84 1538.22 1955.52C1531.66 1972.94 1528.21 1988.89 1522.8 2026.61C1520.86 2040.17 1519.06 2051.48 1518.8 2051.74C1518.54 2052 1517.64 2050.57 1516.8 2048.56C1508.52 2028.74 1506.78 1983.69 1513.21 1955.68C1516.61 1940.88 1525.22 1921.72 1534.67 1907.9C1540.76 1899 1554.19 1884.72 1563.4 1877.34C1595.93 1851.29 1646.16 1834.79 1710.8 1828.93C1716.85 1828.38 1733.28 1827.25 1747.3 1826.42C1790 1823.87 1810.73 1822 1836.8 1818.34C1876.1 1812.82 1920.44 1801.71 1947.05 1790.71C1953.05 1788.23 1954.3 1787.32 1954.3 1785.44V1783.17L1928.55 1783.46C1901.37 1783.76 1886.1 1783.02 1864.8 1780.38C1851.93 1778.78 1823.18 1773.53 1819.16 1772.05C1817.37 1771.38 1818.88 1769.96 1829.94 1761.91C1840.17 1754.47 1850.47 1747.09 1853.12 1745.31C1853.3 1745.19 1852.85 1744.13 1852.12 1742.94C1851.28 1741.57 1850.08 1740.94 1848.8 1741.2C1847.7 1741.43 1826.91 1747.08 1802.6 1753.76C1778.28 1760.44 1757.47 1765.9 1756.35 1765.9C1751.18 1765.9 1756.1 1762.42 1779.56 1749.47C1793.44 1741.81 1819.65 1727.15 1837.8 1716.88C1855.95 1706.61 1875.4 1695.65 1881.01 1692.52C1891.87 1686.48 1892.56 1685.93 1891.48 1684.21C1891 1683.44 1886.82 1683.8 1877.3 1685.42C1830.82 1693.36 1798.47 1698.82 1796.33 1699.09C1794.69 1699.3 1793.74 1698.86 1793.53 1697.81C1793.32 1696.77 1797.27 1693.2 1805.01 1687.42C1822.03 1674.71 1849.17 1653.5 1849.24 1652.84C1849.27 1652.54 1848.74 1651.58 1848.05 1650.72C1846.93 1649.31 1845.76 1649.5 1836.8 1652.51C1831.3 1654.36 1825.89 1656.06 1824.77 1656.28C1823.65 1656.51 1813.51 1659.66 1802.24 1663.3C1790.97 1666.93 1781.31 1669.9 1780.77 1669.89C1780.24 1669.88 1782.05 1668.45 1784.8 1666.7C1787.55 1664.96 1802.18 1655.32 1817.3 1645.3C1847.36 1625.37 1861.63 1614.65 1876.55 1600.8C1886.32 1591.75 1902.79 1574.06 1902.1 1573.37C1901.9 1573.17 1892.56 1575.95 1881.35 1579.56L1860.97 1586.11L1859.16 1583.76C1858.16 1582.46 1857.33 1580.91 1857.32 1580.3C1857.31 1579.7 1861.24 1575.47 1866.05 1570.91C1870.86 1566.35 1883.58 1554.02 1894.3 1543.5C1905.03 1532.98 1918.19 1520.27 1923.55 1515.25C1932.03 1507.31 1934.79 1503.9 1932.75 1503.9C1932.45 1503.9 1916.65 1509.54 1897.63 1516.44C1878.61 1523.34 1862.82 1528.76 1862.54 1528.48C1862.26 1528.2 1867.47 1522.75 1874.12 1516.37C1897.72 1493.72 1918.02 1467.95 1932.86 1441.8C1935.38 1437.35 1937.27 1433.54 1937.05 1433.32C1936.83 1433.1 1930.61 1436.55 1923.23 1440.99C1915.84 1445.42 1900.58 1454.47 1889.3 1461.1C1878.03 1467.72 1867.34 1474.03 1865.55 1475.1C1863.76 1476.18 1862.3 1476.61 1862.3 1476.05C1862.3 1474.37 1891.89 1441.81 1923.77 1408.4C1933.75 1397.95 1944.12 1386.93 1946.84 1383.9C1977.24 1349.98 2012.63 1320.01 2046.3 1299.68C2059.68 1291.6 2089.36 1277.39 2098.92 1274.49C2100.08 1274.14 2101.79 1273.02 2102.71 1272.01C2104.3 1270.24 2104.16 1270.1 2099.7 1268.98C2089.46 1266.4 2083.11 1261.09 2078.66 1251.37C2077.37 1248.55 2074.73 1239.48 2072.81 1231.2C2061.59 1183.07 2044.11 1149.39 2014.33 1118.53C1994.17 1097.63 1975.47 1084.09 1947.36 1070.05C1915.48 1054.12 1888.44 1045.6 1852.73 1040.23C1835.56 1037.65 1786.45 1037.64 1767.3 1040.22C1747.24 1042.92 1725.4 1047.34 1701.3 1053.57C1689.48 1056.63 1677.19 1059.8 1673.99 1060.62C1670.79 1061.44 1668.01 1061.94 1667.8 1061.73C1667.04 1060.97 1666.28 1055.15 1665.68 1045.4C1665.01 1034.57 1665.5 1031.96 1671.53 1014.4C1682.25 983.144 1698.18 954.741 1720.29 927.484C1725.68 920.839 1739.41 906.177 1750.8 894.902C1771.64 874.284 1788.51 856.518 1791.62 851.929C1793.72 848.84 1793.78 842.737 1791.76 838.828C1788.46 832.446 1779.24 819.091 1777.73 818.512C1773.9 817.042 1766.36 818.374 1736.53 825.789C1691.54 836.973 1679.96 839.692 1670.3 841.336C1662.86 842.603 1659.01 844.187 1639.37 854.093C1587.1 880.439 1543.43 908.125 1512.75 934.37C1505.82 940.292 1497.26 947.755 1456.36 983.526C1380.46 1049.9 1333.99 1085.85 1279.35 1120.45C1259.43 1133.07 1247.38 1142.56 1238.91 1152.29C1213.45 1181.57 1196.78 1217.95 1163.29 1317.4C1157.36 1335 1150.89 1353.82 1148.92 1359.21C1140.89 1381.22 1140.52 1394.81 1147.4 1415.3C1156.21 1441.59 1155.53 1430.12 1155.83 1555.9C1156 1626.56 1156.5 1672.22 1157.2 1680.56C1159.56 1708.55 1164.32 1729.54 1181.38 1787.28C1184.95 1799.36 1185.29 1809.72 1182.39 1818.15C1181.33 1821.21 1176.98 1829.95 1172.71 1837.56C1155.26 1868.66 1134.01 1914.26 1120.82 1948.9C1093.2 2021.44 1064.56 2133.1 1049.38 2227.4C1042.55 2269.82 1041.81 2275.05 1035.35 2326.4C1033.45 2341.55 1029.31 2386.45 1027.33 2413.4C1024.96 2445.65 1024.41 2451.11 1023.32 2452.86C1021.91 2455.15 1019.04 2436.59 1017.83 2417.4C1017.52 2412.45 1017.06 2405.25 1016.81 2401.4C1016.56 2397.55 1016.05 2388.55 1015.68 2381.4C1013.98 2348.22 1013.9 2347.44 1012.11 2347.1C1010.8 2346.85 1009.97 2348.32 1008.4 2353.59C1002.4 2373.83 994.025 2408.64 989.797 2430.96C989.542 2432.3 989.11 2434.53 988.837 2435.9C988.021 2440.02 987.462 2443.5 984.35 2463.9C976.34 2516.41 973.301 2568.03 975.256 2618.41C975.854 2633.81 976.521 2647.53 976.738 2648.91C976.956 2650.28 977.428 2655.45 977.787 2660.4C979.57 2684.95 986.15 2729.56 992.904 2762.9C998.483 2790.44 1011.76 2839.57 1019.25 2860.43L1020.32 2863.4L1017.93 2860.73C1014.47 2856.87 999.69 2832.44 992.019 2817.9C969.232 2774.71 951.066 2721.07 938.506 2659.9L937.582 2655.4L935.899 2659.22C929.46 2673.83 923.74 2710.31 921.682 2749.9C921.324 2756.78 920.88 2762.58 920.694 2762.79C918.948 2764.8 912.253 2729.38 910.53 2709.02C910.128 2704.28 909.84 2686.9 909.888 2670.4C909.964 2644.55 910.578 2630.22 912.781 2602.9C915.672 2567.07 916.687 2546.2 915.48 2547.4C914.928 2547.95 910.642 2554.74 905.955 2562.49C890.935 2587.32 877.389 2616.16 858.336 2663.86C854.94 2672.37 851.725 2680.02 851.191 2680.86C850.269 2682.33 850.751 2661.02 851.779 2654.9C852.01 2653.53 852.473 2649.7 852.807 2646.4C854.533 2629.36 859.078 2604.68 864.412 2583.4C867.674 2570.39 879.189 2535.91 895.311 2490.9C900.925 2475.23 906.105 2460.6 906.822 2458.4C907.54 2456.2 909.739 2449.94 911.709 2444.48C913.68 2439.02 915.122 2434.39 914.914 2434.18C914.584 2433.85 894.568 2458.72 872.884 2486.4C869.006 2491.35 858.151 2505.08 848.761 2516.9C839.371 2528.73 825.841 2545.83 818.694 2554.9C797.027 2582.41 745.016 2648.07 726.795 2670.9C701.612 2702.47 694.3 2711.92 694.3 2712.93C694.3 2714.22 728.485 2755.48 737.4 2764.94C738.17 2765.76 742.392 2770.47 746.781 2775.42C751.171 2780.36 756.845 2786.65 759.39 2789.4C761.935 2792.15 767.09 2797.78 770.845 2801.9C785.765 2818.29 842.038 2873.67 862.691 2892.29C976.265 2994.69 1093.74 3072.18 1229.66 3134.37C1292.85 3163.28 1362.39 3188.84 1433.8 3209.42C1448.8 3213.74 1492.78 3225.22 1498.3 3226.26C1499.68 3226.52 1509.13 3228.6 1519.3 3230.88C1559.34 3239.84 1591.27 3245.91 1629.3 3251.77C1662.12 3256.83 1664.3 3257.12 1664.3 3256.51C1664.3 3254.59 1656.22 3227.63 1643 3185.4C1629.67 3142.84 1612.69 3086.54 1605.31 3060.4C1602.98 3052.15 1599.79 3040.9 1598.22 3035.4C1572.57 2945.34 1554.01 2875.31 1537.79 2807.4C1524.75 2752.82 1516.3 2724.76 1501.79 2687.9C1475.78 2621.78 1445.91 2568.66 1396.65 2500.9C1385.65 2485.78 1372.73 2467.78 1367.93 2460.9C1363.14 2454.03 1351.97 2438.05 1343.12 2425.4C1334.27 2412.75 1318.68 2390.25 1308.47 2375.4C1298.27 2360.55 1287.17 2344.58 1283.81 2339.9C1280.45 2335.23 1274.83 2326.79 1271.33 2321.15C1267.84 2315.51 1264.8 2311.07 1264.58 2311.29C1264.05 2311.82 1268.99 2342.25 1271.43 2353.4C1283.77 2409.97 1300.02 2455.29 1333.56 2526.67C1346.21 2553.6 1345.04 2553.72 1325.38 2527.47C1262.71 2443.8 1219.6 2355.69 1197.65 2266.4C1180.4 2196.26 1173.52 2137.86 1172.59 2053.5C1172.04 2003.63 1172.68 1984.44 1176.34 1941.47C1179.79 1901.08 1183.53 1870.49 1193.4 1801.9C1199.81 1757.34 1202.36 1743.81 1208.7 1720.9C1223.48 1667.49 1247.77 1617.82 1280.33 1574.4C1309.45 1535.57 1342.07 1504.13 1392.3 1466.49C1402.48 1458.86 1411.95 1451.56 1413.36 1450.26C1416.45 1447.41 1417.47 1447.33 1419.71 1449.8C1421.35 1451.62 1421.16 1452 1415.1 1459.05C1356.94 1526.65 1317.99 1607.76 1299.9 1698.9C1296.52 1715.95 1291.97 1749.29 1290.82 1765.4C1289.41 1785.14 1289.28 1785.9 1287.19 1785.9C1286.12 1785.9 1285.05 1785.34 1284.81 1784.65C1284.58 1783.96 1283.23 1763.15 1281.82 1738.4C1280.41 1713.65 1279.06 1691.83 1278.82 1689.9C1278.58 1687.98 1278.36 1682.91 1278.34 1678.65C1278.32 1674.39 1277.91 1670.9 1277.44 1670.9C1274.77 1670.9 1263.37 1700.05 1258.72 1718.75C1252.73 1742.82 1251.95 1753.04 1252.67 1798.4C1253.02 1820.4 1253.59 1846.32 1253.93 1855.99C1254.48 1871.33 1254.37 1873.66 1253.02 1874.18C1251.16 1874.89 1251.64 1876.98 1239.31 1813.9C1234.31 1788.33 1229.94 1766.73 1229.61 1765.9C1228.32 1762.75 1221.47 1803.18 1219.27 1826.9C1218.69 1833.23 1218.03 1838.93 1217.82 1839.57C1216.53 1843.43 1215.48 1891.34 1216.21 1912.9C1219.26 2002.41 1247.66 2102.11 1290.28 2172.9C1316.64 2216.7 1361.31 2276.9 1397.85 2317.9C1416.03 2338.3 1441.79 2364.49 1454.3 2375.31C1467.96 2387.13 1490.41 2401.72 1493.36 2400.71C1494.28 2400.39 1487.9 2390.68 1459.35 2348.9C1422.62 2295.16 1415.91 2284.74 1416.95 2283.09C1417.5 2282.23 1418.41 2281.36 1418.99 2281.17C1419.56 2280.98 1424.29 2285.9 1429.5 2292.11C1444.9 2310.47 1447.69 2313.49 1468.22 2333.9C1510.63 2376.09 1556.62 2409.04 1611.18 2436.33C1667.25 2464.37 1721.25 2482.86 1777.8 2493.38C1787.7 2495.22 1798.5 2497.02 1801.8 2497.37C1805.1 2497.72 1808.93 2498.2 1810.3 2498.45L1812.8 2498.89L1810.36 2497.14C1809.01 2496.19 1793.64 2484.83 1776.2 2471.9C1758.75 2458.98 1739.94 2445.11 1734.39 2441.09C1728.84 2437.07 1724.31 2433.47 1724.33 2433.09C1724.35 2432.71 1725.03 2431.53 1725.84 2430.46C1727.25 2428.58 1728.68 2429.19 1765.05 2447.14C1805.73 2467.22 1810.67 2469.47 1829.04 2476.34C1859.95 2487.91 1887.45 2493.73 1915.3 2494.6C1925.05 2494.91 1932.44 2494.77 1931.98 2494.29C1931.16 2493.43 1912.17 2483.65 1870.55 2462.65C1850.37 2452.47 1846.67 2450.03 1849.09 2448.53C1849.53 2448.26 1865.16 2448.89 1883.84 2449.93C1902.52 2450.97 1922.75 2452.08 1928.8 2452.39C1934.85 2452.71 1941.71 2453.2 1944.05 2453.5C1948.1 2454 1948.3 2453.9 1948.3 2451.41C1948.3 2448.02 1946.46 2447.18 1884.3 2422.34C1841.08 2405.06 1812.75 2393.55 1800.8 2388.39C1791.52 2384.39 1756.78 2366.59 1744.3 2359.43C1717.53 2344.09 1684.7 2321.08 1665.06 2303.89C1652.63 2293 1628.12 2267.93 1618.15 2255.9C1602.39 2236.88 1591.65 2221.03 1573.81 2190.46C1566.86 2178.54 1566.61 2177.9 1568.9 2177.9C1571.18 2177.9 1577.38 2182.93 1595.34 2199.34C1598.39 2202.12 1605.36 2208.44 1610.84 2213.39C1616.32 2218.33 1623.95 2225.35 1627.8 2228.99C1641.41 2241.86 1691.92 2286.3 1700.8 2293.21C1722.68 2310.24 1748.9 2325.21 1774.46 2335.27C1799.12 2344.97 1822.85 2350.01 1854.94 2352.36C1884.99 2354.56 1900.15 2357.52 1927.8 2366.56C1947.96 2373.15 1965.83 2381.39 2002.47 2401C2046.21 2424.4 2076.36 2439.48 2082.07 2440.81C2086.06 2441.74 2110.48 2444.87 2110.96 2444.52C2111.04 2444.45 2111.27 2443.55 2111.46 2442.52C2111.72 2441.06 2105.81 2436.35 2084.8 2421.32C2060.02 2403.59 2057.77 2401.73 2057.48 2398.8L2057.15 2395.61L2060.48 2397.83C2068.69 2403.33 2084.58 2410.11 2093.55 2411.97C2117.52 2416.91 2137.14 2412.84 2179.3 2394.18C2191.13 2388.95 2203.95 2383.59 2207.8 2382.28C2218.7 2378.55 2218.03 2378.89 2216.3 2377.94C2215.48 2377.49 2208.59 2374.81 2200.99 2371.99C2183.53 2365.51 2174.14 2360.71 2162.8 2352.46C2146.53 2340.63 2129.22 2333.01 2108.99 2328.78C2097 2326.28 2081.75 2325.98 2034.27 2327.33C2002.66 2328.23 1988.12 2327.56 1968.8 2324.3C1953.85 2321.78 1945.57 2319.39 1901.8 2304.93C1878.7 2297.3 1851.03 2288.28 1840.3 2284.87C1807.06 2274.32 1763.85 2259.78 1762.85 2258.82C1762.25 2258.24 1762.33 2257.47 1763.07 2256.73C1763.97 2255.84 1765.96 2255.96 1771.52 2257.27C1775.52 2258.21 1779.93 2259.38 1781.3 2259.87C1782.68 2260.36 1791 2263.02 1799.8 2265.78C1874.61 2289.24 1912.71 2297.88 1959.8 2302.05C1967.65 2302.75 2000.52 2303.31 2042.8 2303.47C2102.33 2303.7 2113.92 2303.98 2120.3 2305.34C2135 2308.46 2148.66 2314.38 2164.24 2324.36C2182.54 2336.09 2198.72 2343.2 2217.57 2347.79C2236.02 2352.29 2293.31 2364.12 2311.8 2367.25C2313.45 2367.52 2317.28 2368.25 2320.3 2368.86C2323.33 2369.46 2327.15 2370.14 2328.8 2370.36C2331.75 2370.74 2391.65 2382.52 2396.05 2383.58C2399.07 2384.3 2398.89 2385.43 2395.55 2386.72C2391.13 2388.42 2387.8 2388.76 2369.3 2389.38C2359.68 2389.7 2349.1 2390.16 2345.8 2390.4C2342.5 2390.64 2332.83 2391.1 2324.3 2391.41C2315.78 2391.73 2306.55 2392.18 2303.8 2392.41C2301.05 2392.64 2292.73 2393.09 2285.3 2393.4C2261.01 2394.43 2240.67 2396.94 2229.02 2400.35C2205.93 2407.09 2186.24 2422.12 2177.61 2439.6C2174.15 2446.59 2173.8 2448.04 2173.8 2455.35C2173.8 2462.32 2174.22 2464.27 2176.94 2469.9C2182.74 2481.95 2192.46 2488.7 2207.24 2490.97C2217.01 2492.47 2227.21 2491.16 2250.85 2485.35C2260.81 2482.9 2269.26 2480.9 2269.63 2480.9C2270 2480.9 2270.3 2485.08 2270.3 2490.19C2270.3 2501.35 2272.61 2507.11 2278.28 2510.08C2285.19 2513.69 2292.86 2512.42 2333.79 2500.86C2345.66 2497.51 2355.79 2494.91 2356.3 2495.08C2356.81 2495.26 2353.66 2500.58 2349.3 2506.9C2344.94 2513.23 2340.47 2519.86 2339.37 2521.65L2337.37 2524.9H2347.7C2372.38 2524.9 2398.76 2516.61 2425.02 2500.6L2434.24 2494.98L2435.77 2497.16C2436.61 2498.36 2437.27 2499.81 2437.23 2500.37C2437.18 2501.2 2403.53 2532.65 2386.31 2547.96C2382.35 2551.48 2381.47 2553.27 2383.18 2554.32C2383.66 2554.62 2388.04 2553.28 2392.93 2551.33C2397.81 2549.39 2411.03 2544.25 2422.3 2539.91C2433.58 2535.57 2445.69 2530.87 2449.22 2529.47C2452.76 2528.06 2455.83 2527.1 2456.05 2527.32C2457.2 2528.47 2453.34 2532.62 2446.21 2537.91C2401.91 2570.75 2348.64 2586.45 2287.86 2584.57C2251.08 2583.43 2224.59 2578.82 2151.3 2560.79C2114.45 2551.72 2091.87 2545.63 2036.8 2529.9C1999.22 2519.16 1990.48 2516.99 1983.8 2516.72C1977.26 2516.46 1975.8 2516.67 1975.8 2517.88C1975.8 2518.71 1983.58 2524.22 1993.61 2530.49C2003.4 2536.61 2011.85 2542.06 2012.39 2542.59C2013.01 2543.21 2008.85 2546.01 2000.66 2550.48C1982.68 2560.28 1974.97 2567.8 1972.85 2577.61C1971.99 2581.61 1969.84 2581.12 2002.77 2584.41C2017.05 2585.84 2028.89 2587.15 2029.07 2587.33C2030.57 2588.83 1986.17 2595.57 1958.3 2598.07C1939.91 2599.73 1880.45 2599.72 1862.3 2598.07C1808.35 2593.16 1758.6 2584.11 1705.38 2569.53C1700.19 2568.11 1696.37 2567.35 1696.88 2567.83C1698.44 2569.3 1730.36 2591.86 1744.98 2601.81C1776.64 2623.37 1786.28 2630.19 1795.26 2637.36C1829.08 2664.39 1851.7 2692.87 1867.57 2728.4C1883.58 2764.23 1889.09 2796.4 1893.28 2878.4C1895.13 2914.78 1895.33 2918.28 1896.44 2934.4C1897.05 2943.2 1897.84 2950.94 1898.19 2951.61C1898.54 2952.27 1901.95 2945.74 1905.76 2937.11C1936.36 2867.77 1960.97 2815.92 1971.93 2797.64C1990.74 2766.27 2015.02 2733.05 2033.76 2713.01C2039.33 2707.05 2051.43 2696.69 2052.07 2697.33C2052.29 2697.56 2047.75 2713.86 2041.97 2733.57C2022.24 2800.9 2013.21 2836.39 2005.39 2877.4C1988.64 2965.27 1988.76 2964.43 1993.3 2963.64C1994.16 2963.49 1996.82 2958.66 1999.51 2952.39C2002.1 2946.35 2005.34 2938.93 2006.72 2935.9C2008.1 2932.88 2012.1 2923.88 2015.61 2915.9C2044.55 2850.27 2088.61 2764.93 2122.24 2709.4C2130.72 2695.39 2162.19 2647.9 2162.99 2647.9C2164.48 2647.9 2153.54 2713.46 2145.79 2750.9C2144.48 2757.23 2143.16 2763.84 2142.85 2765.59C2141.61 2772.68 2132.91 2810.73 2127.81 2831.4C2119.59 2864.75 2100.73 2931.22 2089.51 2966.4C2086.05 2977.25 2085.95 2978.09 2088.25 2977.73C2089.47 2977.53 2095 2971.42 2102.11 2962.4C2108.62 2954.15 2114.6 2947.28 2115.39 2947.12C2116.19 2946.97 2117.6 2947.42 2118.52 2948.12C2120.07 2949.3 2119.64 2951.26 2113.22 2972.4C2109.38 2985.05 2101.51 3011.38 2095.73 3030.9C2083.65 3071.66 2082.72 3074.79 2077.38 3092.4C2075.21 3099.55 2070.43 3115.53 2066.75 3127.9C2063.08 3140.28 2056.79 3161.2 2052.79 3174.4C2048.79 3187.6 2042.72 3207.85 2039.3 3219.4C2035.89 3230.95 2032.28 3242.88 2031.28 3245.9L2029.46 3251.4L2032.21 3251.7C2037.61 3252.29 2095.83 3242.57 2129.8 3235.41C2186.68 3223.42 2255.11 3205.66 2262.86 3200.87C2269.65 3196.67 2270.49 3191.69 2267.77 3171.69C2254.44 3073.74 2230.36 2975.4 2196.79 2881.9C2189.57 2861.78 2187.76 2852.53 2188.6 2840.1C2188.93 2835.32 2192.41 2815.88 2196.33 2796.9C2206.48 2747.79 2217.52 2691.88 2223.37 2659.9C2230.33 2621.9 2231.13 2619.11 2236.11 2615.4C2238.62 2613.54 2239.95 2613.43 2255.8 2613.88C2293.08 2614.92 2330.3 2614.36 2343.3 2612.56C2385.59 2606.7 2425.56 2593.88 2453.8 2577.12C2471.98 2566.33 2497.86 2543.29 2511.7 2525.57C2531.23 2500.55 2546.21 2469.72 2552.37 2441.83C2555.41 2428.1 2556.11 2403.41 2553.84 2389.88C2552.9 2384.25 2551.06 2376.34 2549.74 2372.31C2548.42 2368.27 2547.57 2364.36 2547.85 2363.62C2548.14 2362.88 2554.54 2360.36 2562.08 2358.01C2596.96 2347.14 2616.03 2332.57 2627.76 2307.81C2633.98 2294.68 2635.63 2286.52 2635.63 2268.9C2635.63 2250.54 2633.91 2242.62 2626.84 2228.4C2618.99 2212.6 2609.63 2202.27 2572.3 2168.21C2538.58 2137.44 2535.99 2133.2 2537.48 2111.31C2538.28 2099.77 2542.46 2064.36 2544.84 2049.12C2547.17 2034.2 2551.89 2027.4 2566.95 2017.27C2583.25 2006.32 2594.41 1992.4 2600.93 1974.9C2602.67 1970.23 2606.83 1954 2610.17 1938.85C2621.17 1889 2622.1 1886.82 2640.19 1868.9C2673.16 1836.25 2694.01 1802.19 2711.45 1752.53C2735.28 1684.69 2741.84 1610.77 2731.21 1529.9C2720.04 1444.93 2698.29 1389.89 2654.8 1336.59C2650.4 1331.19 2644 1323.34 2640.58 1319.15C2628.89 1304.83 2627.19 1299.06 2626.84 1272.43C2626.47 1244.26 2623.48 1230.21 2613.76 1210.9C2596.32 1176.25 2560.19 1149.68 2511.3 1135.57C2473.77 1124.74 2429.11 1123.1 2386.86 1131.01C2370.74 1134.03 2359.65 1134.52 2353.66 1132.48C2347.39 1130.35 2345.6 1129 2293.01 1086.79C2253.01 1054.67 2248.42 1050.69 2246.34 1046.29C2242.98 1039.16 2228.11 1004.79 2220.8 987.243C2201.04 939.874 2185.83 873.151 2182.86 820.902C2180.21 774.137 2179.89 771.332 2176.17 761.016C2173.37 753.26 2168.26 746.068 2160 738.246C2153.74 732.322 2140.47 722.665 2133.65 719.07L2131.49 717.935L2133.28 723.669ZM1725.8 1135.38C1692.09 1144.07 1660 1163.19 1632.28 1191.11C1603.19 1220.41 1582.79 1257.14 1575.36 1293.6C1572.43 1307.99 1572.63 1309.65 1576.48 1302.9C1612.17 1240.37 1643.77 1201.73 1687.8 1166.79C1699.83 1157.24 1723.15 1142.28 1734.55 1136.79C1743.67 1132.4 1739.79 1131.77 1725.8 1135.38ZM1757.42 1197.95C1709.59 1207.52 1677.59 1235.45 1663.53 1279.9C1662.4 1283.48 1660.25 1290.37 1658.75 1295.21C1657.25 1300.05 1654.33 1306.65 1652.25 1309.86C1644.69 1321.55 1641.57 1324.14 1616.07 1339.87C1605.29 1346.52 1604.43 1347.27 1605.44 1349.16C1606.53 1351.19 1606.87 1351.2 1644.17 1350.51C1760.9 1348.33 1774.48 1347.31 1806.8 1338.33C1826.82 1332.77 1858.48 1319.29 1868 1312.28C1870.09 1310.74 1872 1309.35 1872.23 1309.18C1872.47 1309.01 1872.22 1308.42 1871.68 1307.88C1871.03 1307.23 1866.47 1308.6 1858.31 1311.9C1851.51 1314.65 1845.79 1316.9 1845.62 1316.9C1845.44 1316.9 1845.29 1315.21 1845.29 1313.15C1845.28 1311.09 1844.85 1308.73 1844.33 1307.91C1843.54 1306.67 1842.85 1306.93 1840.09 1309.5C1826.89 1321.84 1825.67 1322.53 1811.92 1325.44C1790.09 1330.06 1775.84 1332.01 1759.8 1332.57C1745.01 1333.08 1743.37 1332.96 1738.05 1330.94C1731.07 1328.29 1722.72 1320.94 1719.09 1314.24C1715.58 1307.76 1713.43 1298.99 1712.64 1287.95C1712.29 1282.94 1711.67 1278.63 1711.28 1278.39C1709.43 1277.24 1698.96 1296.04 1697.25 1303.58C1696.02 1308.99 1695.78 1320.24 1696.79 1324.86L1697.46 1327.9H1674.3C1661.56 1327.9 1651.29 1327.56 1651.48 1327.15C1652.89 1324.08 1669.15 1292.29 1671.55 1287.9C1673.21 1284.88 1676.17 1279.48 1678.13 1275.9C1696.87 1241.74 1724.78 1218.56 1754.78 1212.21C1759.8 1211.15 1765.8 1210.85 1775.8 1211.16C1787.61 1211.52 1791.13 1212.02 1798.3 1214.35C1824.91 1222.99 1846.03 1241.2 1864.15 1271.13C1870.87 1282.23 1875.56 1287.49 1881.38 1290.44C1888.95 1294.28 1894.35 1293.58 1918.24 1285.72L1927.67 1282.61L1924.74 1280.26C1918 1274.87 1856.38 1231.13 1839.07 1219.46C1817.98 1205.24 1807.16 1199.64 1796.49 1197.42C1786.58 1195.37 1769.15 1195.6 1757.42 1197.95ZM1758.57 1253.19C1754.85 1255.95 1751.3 1260.19 1751.3 1261.86C1751.3 1263.97 1754.26 1268.75 1759.38 1274.9L1764.46 1281L1773.13 1273.27C1777.9 1269.01 1782.42 1264.98 1783.18 1264.31C1784.3 1263.3 1783.04 1262.08 1776.18 1257.51C1765.84 1250.64 1762.94 1249.93 1758.57 1253.19ZM2573.3 1303.12C2573.31 1303.82 2574.23 1305.91 2575.35 1307.75C2576.47 1309.6 2579.01 1315 2580.99 1319.75C2585.51 1330.64 2586.06 1338.46 2583.25 1351.89C2582.16 1357.08 2581.4 1361.71 2581.56 1362.17C2581.83 1363 2582.81 1361.71 2594.64 1344.9C2608 1325.91 2609.3 1323.98 2609.3 1323.08C2609.3 1322.56 2602.21 1318.08 2593.55 1313.13C2572.99 1301.38 2573.3 1301.53 2573.3 1303.12ZM2512.32 1339.65C2512.33 1340.61 2512.76 1350.63 2513.27 1361.9C2513.77 1373.18 2514.49 1390.28 2514.86 1399.9C2515.22 1409.53 2515.81 1424.83 2516.16 1433.9L2516.8 1450.4L2520.18 1450.72L2523.55 1451.05L2522.89 1436.22C2522.53 1428.07 2522.04 1418.93 2521.81 1415.9C2521.57 1412.88 2520.6 1394.09 2519.64 1374.15L2517.9 1337.9H2515.1C2513.09 1337.9 2512.31 1338.4 2512.32 1339.65ZM2639.31 1371.15C2639.31 1372.39 2640.63 1379.7 2642.24 1387.4C2654.12 1444.32 2658.66 1465.86 2660.82 1475.61C2662.18 1481.78 2663.3 1487.07 2663.3 1487.37C2663.3 1487.67 2656.16 1484.34 2647.44 1479.97C2632.64 1472.56 2631.43 1472.13 2629.44 1473.52C2628.26 1474.34 2627.3 1475.65 2627.3 1476.43C2627.3 1477.21 2632.2 1487.88 2638.19 1500.13C2650.64 1525.58 2656.01 1537.97 2659.62 1549.48C2662.45 1558.49 2665.61 1573.93 2664.79 1574.75C2664.49 1575.04 2662.13 1573.25 2659.53 1570.78C2656.93 1568.3 2649.32 1561.21 2642.62 1555.02L2630.44 1543.76L2627.87 1545.45C2626.46 1546.37 2625.3 1547.95 2625.3 1548.94C2625.3 1549.94 2626.63 1556.53 2628.26 1563.58C2633.2 1585.01 2638.6 1611.95 2640.26 1623.4C2640.82 1627.25 2641.91 1634.68 2642.69 1639.9C2646.2 1663.34 2646.77 1672.12 2646.75 1702.4C2646.74 1731.49 2645.56 1748.58 2642.72 1760.9L2642.14 1763.4L2644.71 1760.61C2648.44 1756.55 2659.45 1737.65 2665.91 1724.23C2698.41 1656.61 2708.93 1570.83 2694.4 1491.9C2687.38 1453.8 2672.59 1415.04 2655.17 1389.11C2650.42 1382.04 2640.31 1368.9 2639.62 1368.9C2639.44 1368.9 2639.3 1369.91 2639.31 1371.15ZM2146.89 1397.94C2145.3 1398.42 2142.48 1400.27 2140.64 1402.05C2135.86 1406.69 2135.93 1411.95 2140.88 1417.72C2142.85 1420.02 2144.83 1421.9 2145.29 1421.9C2146.99 1421.9 2157.3 1410.3 2158.33 1407.24C2159.16 1404.79 2159.06 1403.27 2157.9 1400.49C2156.6 1397.37 2155.98 1396.91 2153.1 1396.99C2151.29 1397.04 2148.49 1397.46 2146.89 1397.94ZM1235.15 1475.04C1230.82 1480.33 1221.36 1494.8 1218.39 1500.67C1214.06 1509.25 1209.46 1521.86 1207.9 1529.39C1206.3 1537.12 1205.9 1552.26 1207.18 1556.83C1207.86 1559.28 1210.3 1560.97 1210.3 1558.99C1210.3 1558.4 1216.83 1538.68 1224.8 1515.17C1232.78 1491.66 1239.18 1472.03 1239.02 1471.55C1238.86 1471.07 1237.12 1472.64 1235.15 1475.04ZM2284.22 1479.81C2281.36 1483.05 2278.19 1487.02 2277.18 1488.63C2275.35 1491.52 2275.35 1491.58 2277.76 1494.84C2281.07 1499.33 2283.98 1501.2 2286.63 1500.53C2287.85 1500.23 2292.81 1497.21 2297.65 1493.83C2306.03 1487.99 2306.37 1487.61 2304.62 1486.05C2303.6 1485.14 2300.16 1482.04 2296.96 1479.15C2293.76 1476.26 2290.75 1473.9 2290.28 1473.9C2289.81 1473.9 2287.08 1476.56 2284.22 1479.81ZM2207.42 1493.91C2197.14 1502.03 2195.89 1507.47 2202.65 1514.62L2206.99 1519.22L2211.28 1514.81C2222 1503.78 2222.95 1500.08 2216.63 1493.76L2212.64 1489.77L2207.42 1493.91ZM2128.69 1504.4C2117.48 1518.67 2117.08 1520.87 2124.37 1527.97C2128.52 1532.02 2130.08 1532.9 2133.01 1532.9C2140.18 1532.9 2149.72 1519.71 2147.88 1512.35C2147.28 1509.99 2136.65 1496.9 2135.32 1496.9C2134.91 1496.9 2131.93 1500.28 2128.69 1504.4ZM2419.3 1585.47C2396.48 1600.67 2377.2 1613.68 2376.46 1614.38C2375.35 1615.44 2375.35 1616.01 2376.45 1617.78C2377.18 1618.95 2378.18 1619.9 2378.66 1619.9C2379.89 1619.9 2464.3 1563.61 2464.3 1562.79C2464.3 1562.43 2463.51 1561.15 2462.55 1559.97L2460.8 1557.82L2419.3 1585.47ZM2534.13 1567.65C2535.78 1569.71 2542.38 1577.48 2548.79 1584.9C2555.21 1592.33 2566.32 1605.29 2573.49 1613.7C2580.66 1622.12 2586.71 1628.83 2586.92 1628.61C2587.54 1627.99 2584.85 1620.94 2581.29 1613.85C2572.64 1596.62 2558.5 1580.73 2542.34 1570.09C2537.17 1566.68 2532.54 1563.9 2532.04 1563.9C2531.54 1563.9 2532.48 1565.59 2534.13 1567.65ZM2066.3 1580.46C2040.13 1586.27 2025.98 1589.92 2021.8 1591.93C2019.6 1592.99 2015.9 1596.08 2013.58 1598.78L2009.36 1603.71L2015.66 1604.8C2037.01 1608.52 2053.95 1603.47 2078.59 1586.02C2086.32 1580.54 2088.05 1577.62 2083.79 1577.21C2082.7 1577.11 2074.83 1578.57 2066.3 1580.46ZM2241.85 1585.17C2234.25 1592.45 2233.85 1594.23 2238.49 1600.26C2240.25 1602.54 2241.74 1604.51 2241.82 1604.64C2241.89 1604.77 2243.27 1605.15 2244.89 1605.47C2247.68 1606.03 2248.06 1605.66 2252.45 1598.23C2259.05 1587.04 2259.07 1586.83 2254.32 1582.54C2252.11 1580.54 2249.87 1578.9 2249.35 1578.9C2248.83 1578.9 2245.46 1581.72 2241.85 1585.17ZM2130.3 1633.96C2111.33 1641.59 2092.05 1649.2 2087.47 1650.88C2082.88 1652.55 2060.87 1661.18 2038.56 1670.05L1997.98 1686.17L2001.42 1687.84C2037.4 1705.34 2105.7 1683.52 2149.44 1640.56C2158.86 1631.31 2168.15 1619.85 2166.11 1620C2165.39 1620.05 2149.28 1626.34 2130.3 1633.96ZM1723.3 1640.28C1667.53 1659.16 1627.04 1678.77 1590.8 1704.46C1517.35 1756.54 1480.99 1819.82 1475.77 1904.65C1475.39 1910.84 1475.31 1915.9 1475.59 1915.9C1475.86 1915.9 1477.73 1911.8 1479.74 1906.78C1485.51 1892.37 1488.15 1886.57 1497.45 1867.9C1532.32 1797.91 1583.8 1740 1654.74 1690.97C1681.76 1672.29 1700.37 1661.28 1731.85 1645.35C1744.26 1639.06 1753.73 1633.69 1753.51 1633.04C1752.78 1630.83 1747.54 1632.08 1723.3 1640.28ZM2065.8 1971.41C2039.21 1975.04 2015.39 1982.08 1991.95 1993.23C1956.16 2010.24 1938.49 2025.72 1922.41 2054.15C1920.28 2057.91 1919.61 2059.89 1920.48 2059.87C1921.2 2059.85 1924.95 2059.41 1928.8 2058.89C1964.38 2054.07 1985.13 2056.3 2007.8 2067.36C2029.81 2078.11 2044.88 2092.47 2069.01 2125.67C2085.25 2148.03 2090.55 2156.33 2099.8 2173.9C2109.3 2191.96 2111.66 2195.54 2117.74 2201.15C2125.66 2208.46 2137.99 2210.72 2151.8 2207.38C2159.66 2205.48 2176.27 2205.5 2183.84 2207.4C2198.38 2211.07 2210.47 2219.24 2235.84 2242.55C2255.31 2260.43 2278.72 2279.85 2302.8 2298.08C2319.02 2310.36 2340.92 2322.85 2357.8 2329.43C2379.22 2337.79 2411.32 2342.1 2435.3 2339.84C2439.98 2339.39 2448.08 2338.75 2453.3 2338.4C2458.53 2338.05 2471.13 2336.88 2481.3 2335.82C2491.48 2334.75 2502.05 2333.64 2504.8 2333.35C2516.38 2332.13 2545.74 2327.59 2556.35 2325.38C2596.91 2316.92 2616.25 2287.84 2604.18 2253.49C2595.68 2229.31 2581.17 2213.03 2499.8 2136.4C2489.9 2127.08 2476.63 2114.44 2470.3 2108.31C2414.85 2054.63 2386.8 2032.82 2346.8 2012.28C2329.12 2003.21 2321.67 2000.62 2306.8 1998.4C2288.35 1995.65 2282.94 1996.88 2279.18 2004.66C2273.7 2015.97 2278.52 2024.34 2325.31 2084.9C2334.44 2096.73 2345.49 2111.08 2349.86 2116.81C2354.23 2122.53 2361.48 2131.98 2365.98 2137.81C2370.48 2143.63 2376.06 2151.47 2378.38 2155.21C2382.32 2161.57 2382.49 2162.14 2380.94 2163.69C2379.39 2165.24 2378.23 2164.31 2363.65 2149.88C2355.06 2141.37 2339.69 2125.85 2329.49 2115.4C2290.76 2075.69 2251.22 2036.93 2236.8 2024.55C2199.81 1992.78 2167.55 1977.64 2123.17 1971.22C2114.04 1969.9 2075.9 1970.03 2065.8 1971.41ZM1602.71 2058.51C1605.17 2079.8 1615.18 2104.99 1627.91 2121.9C1644.62 2144.1 1664.57 2159.35 1703.8 2179.93C1735.96 2196.8 1770.53 2209.56 1812.02 2219.87C1829.94 2224.33 1832.53 2224.66 1831.67 2222.43C1831.01 2220.7 1819.65 2214.68 1761.8 2185.35C1738.15 2173.36 1717 2162.45 1714.8 2161.09C1703.8 2154.32 1694.29 2143.79 1685.27 2128.4C1666.01 2095.53 1652.65 2083.3 1603.42 2053.46C1602.27 2052.76 1602.15 2053.64 1602.71 2058.51ZM1818.93 2066.95C1811.39 2068.84 1801.66 2074.87 1795.07 2081.73C1780.61 2096.76 1771.98 2119.64 1775.08 2134.67C1778.37 2150.64 1795.39 2172.52 1815.8 2187.03C1846.59 2208.93 1873.45 2223.64 1907.8 2237.42C1943.15 2251.6 1977.07 2259.84 2015.26 2263.5C2034.74 2265.37 2078.48 2265.18 2081.8 2263.22C2084.27 2261.76 2083.22 2261.32 2075.07 2260.4C2067.6 2259.57 2058.3 2254.86 2053.69 2249.58C2049.85 2245.19 2042.37 2230.47 2040.19 2223.01C2038.71 2217.97 2032.26 2212.28 2022.04 2207.01C2011.2 2201.42 2005.73 2203.02 1992.05 2215.82C1986.95 2220.59 1985.04 2223.18 1983.74 2227.08L1982.06 2232.15L1976.43 2231.49C1964.85 2230.13 1958.83 2224.76 1955.1 2212.45C1948.94 2192.14 1942.34 2184.9 1929.97 2184.9C1925.59 2184.9 1923.04 2185.64 1917.62 2188.46C1913.87 2190.41 1909.55 2193.21 1908.01 2194.68C1904.53 2198.02 1903.03 2197.26 1898.6 2189.95C1892.12 2179.24 1890.67 2172.14 1888.34 2139.73C1887.8 2132.21 1886.62 2122.76 1885.72 2118.73C1880.65 2096.14 1864.83 2076.68 1845.12 2068.8C1839.04 2066.37 1825.14 2065.39 1818.93 2066.95ZM2184.3 2288.4V2330.9H2212.8C2228.48 2330.9 2241.3 2330.7 2241.3 2330.45C2241.3 2330.21 2238.68 2325.82 2235.48 2320.7C2232.28 2315.59 2226.58 2305.78 2222.82 2298.9C2214.48 2283.65 2206.33 2270.24 2200.95 2262.9C2196.28 2256.54 2186.39 2245.9 2185.15 2245.9C2184.68 2245.9 2184.3 2265.03 2184.3 2288.4Z" fill="#F9F0DF"/>
<path d="M3552.94 1860.76C3558.45 1859.37 3563.28 1857.2 3567.42 1854.26C3571.67 1851.32 3575.24 1847.65 3578.13 1843.26C3581.12 1838.97 3583.32 1833.96 3584.74 1828.23C3586.27 1822.6 3587.01 1816.4 3586.96 1809.63C3586.87 1795.06 3583.3 1782.64 3576.26 1772.38C3569.22 1762.23 3559.12 1754.48 3545.97 1749.16C3532.82 1743.93 3516.98 1741.38 3498.45 1741.5C3479.72 1741.63 3463.7 1744.28 3450.41 1749.47C3437.12 1754.66 3426.97 1762.32 3419.96 1772.46C3412.94 1782.61 3409.49 1795.17 3409.59 1810.16C3409.67 1823.38 3411.67 1834.35 3415.58 1843.07C3419.49 1851.89 3424.99 1858.47 3432.1 1862.79C3439.21 1867.12 3447.55 1869.25 3457.13 1869.19L3455.66 1884.19L3455.19 1811.12L3517.02 1810.71L3517.94 1952.49L3473.6 1952.78C3444.45 1952.97 3419.48 1946.93 3398.69 1934.68C3378 1922.53 3362.06 1905.67 3350.89 1884.09C3339.82 1862.61 3334.19 1837.93 3334.01 1810.03C3333.81 1778.91 3340.24 1751.54 3353.3 1727.93C3366.37 1704.32 3385.09 1685.82 3409.47 1672.44C3433.84 1659.17 3462.89 1652.42 3496.62 1652.2C3523.06 1652.03 3546.51 1655.88 3566.96 1663.77C3587.42 1671.75 3604.72 1682.88 3618.86 1697.15C3633.11 1711.43 3643.89 1727.96 3651.2 1746.75C3658.61 1765.55 3662.38 1785.72 3662.52 1807.26C3662.65 1826.21 3660.05 1843.82 3654.75 1860.09C3649.55 1876.47 3642.04 1890.94 3632.23 1903.49C3622.53 1916.15 3610.99 1926.38 3597.61 1934.17C3584.24 1941.96 3569.54 1946.74 3553.52 1948.51L3552.94 1860.76Z" fill="#C95D43"/>
<path d="M3633.17 1497.06L3322.32 1572.1L3305.32 1501.67L3441.52 1349.93L3441.08 1348.11L3277.77 1387.53L3257.39 1303.14L3568.24 1228.1L3585.54 1299.74L3449.5 1449.52L3450.09 1451.95L3612.8 1412.67L3633.17 1497.06Z" fill="#C95D43"/>
<path d="M3519.46 1095.56L3226.66 1224.13L3191.76 1144.64L3484.55 1016.07L3519.46 1095.56Z" fill="#C95D43"/>
<path d="M3012.84 865.468L3280.28 690.157L3355.95 805.596C3368.96 825.445 3376.43 845.381 3378.35 865.404C3380.28 885.427 3376.85 904.225 3368.08 921.797C3359.32 939.369 3345.44 954.376 3326.46 966.817C3307.31 979.372 3287.93 985.977 3268.32 986.633C3248.77 987.377 3230.18 982.569 3212.57 972.212C3195.01 961.942 3179.55 946.621 3166.19 926.25L3121 857.3L3177.41 820.32L3213.02 874.644C3218.61 883.176 3224.86 889.475 3231.76 893.542C3238.8 897.638 3246.16 899.471 3253.84 899.04C3261.58 898.696 3269.24 896.041 3276.81 891.077C3284.48 886.055 3289.92 880.12 3293.15 873.274C3296.52 866.458 3297.65 859.061 3296.53 851.084C3295.55 843.136 3292.26 834.897 3286.67 826.365L3269.89 800.77L3060.43 938.074L3012.84 865.468Z" fill="#C95D43"/>
<path d="M2894.78 322.007L2975.11 394.278L2909.21 578.636L2911.99 581.143L3088.39 496.21L3168.72 568.482L2954.83 806.2L2891.68 749.385L3015.34 611.954L3013.48 610.284L2838.57 698.233L2800.5 663.977L2870.39 479.851L2868.53 478.18L2744.04 616.539L2680.89 559.725L2894.78 322.007Z" fill="#C95D43"/>
<path d="M2405.72 419.163L2321.52 378.084L2556.6 136.967L2663.25 189L2617.9 522.682L2533.7 481.603L2572.44 242.678L2570.19 241.583L2405.72 419.163ZM2445.32 298.107L2603.62 375.335L2575.14 433.713L2416.84 356.484L2445.32 298.107Z" fill="#C95D43"/>
<path d="M2301.39 167.505L2215.09 149.994C2215.92 142.728 2215.61 135.919 2214.13 129.566C2212.76 123.234 2210.21 117.51 2206.47 112.396C2202.85 107.201 2198.05 102.829 2192.08 99.2803C2186.13 95.6299 2179.07 92.9767 2170.91 91.3208C2156.63 88.4229 2143.84 89.4385 2132.53 94.3678C2121.33 99.3177 2111.87 107.753 2104.14 119.674C2096.51 131.616 2090.85 146.666 2087.17 164.825C2083.28 184.004 2082.57 200.589 2085.04 214.58C2087.63 228.49 2093.17 239.703 2101.63 248.219C2110.12 256.633 2121.25 262.237 2135.03 265.032C2142.88 266.626 2150.12 267.085 2156.73 266.409C2163.37 265.632 2169.37 263.821 2174.72 260.978C2180.08 258.135 2184.73 254.351 2188.66 249.625C2192.71 244.819 2195.94 239.153 2198.32 232.626L2284.5 250.75C2280.79 263.805 2274.33 276.567 2265.1 289.035C2255.9 301.401 2244.21 312.199 2230.01 321.427C2215.94 330.575 2199.52 336.908 2180.75 340.429C2161.98 343.949 2141.12 343.38 2118.16 338.723C2089.39 332.886 2064.84 321.477 2044.49 304.496C2024.24 287.536 2009.92 265.724 2001.53 239.059C1993.23 212.415 1992.6 181.751 1999.64 147.065C2006.72 112.176 2019.41 84.1613 2037.72 63.0218C2056.05 41.7804 2077.89 27.357 2103.22 19.7517C2128.58 12.0445 2155.33 11.0473 2183.49 16.7604C2203.28 20.776 2220.94 27.1743 2236.47 35.9551C2252.01 44.736 2264.99 55.6022 2275.43 68.5539C2285.88 81.4035 2293.41 96.1537 2297.99 112.805C2302.58 129.455 2303.72 147.689 2301.39 167.505Z" fill="#C95D43"/>
<path d="M1635.97 103.588C1633.89 98.3003 1631.13 93.7869 1627.69 90.0481C1624.23 86.2061 1620.15 83.1316 1615.42 80.8248C1610.79 78.4009 1605.54 76.8477 1599.67 76.1653C1593.9 75.3659 1587.65 75.4164 1580.95 76.3169C1566.5 78.2564 1554.64 83.3681 1545.35 91.6519C1536.17 99.9219 1529.77 110.917 1526.15 124.636C1522.63 138.342 1522.11 154.377 1524.58 172.741C1527.07 191.312 1531.73 206.86 1538.56 219.387C1545.39 231.914 1554.28 241.013 1565.23 246.685C1576.18 252.356 1589.08 254.195 1603.93 252.2C1617.04 250.44 1627.67 247.07 1635.82 242.089C1644.08 237.094 1649.9 230.798 1653.29 223.201C1656.68 215.604 1657.74 207.059 1656.47 197.568L1671.53 197.12L1599.1 206.846L1590.88 145.563L1731.39 126.694L1737.29 170.644C1741.17 199.532 1738.35 225.065 1728.83 247.244C1719.4 269.306 1704.69 287.246 1684.7 301.064C1664.8 314.764 1641.02 323.471 1613.37 327.183C1582.53 331.326 1554.56 328.411 1529.49 318.44C1504.41 308.468 1483.7 292.24 1467.34 269.754C1451.08 247.255 1440.71 219.292 1436.22 185.866C1432.7 159.661 1433.56 135.914 1438.79 114.627C1444.12 93.325 1452.97 74.7543 1465.34 58.9147C1477.69 42.9719 1492.72 30.1875 1510.44 20.5613C1528.15 10.8319 1547.68 4.53341 1569.03 1.66568C1587.81 -0.855695 1605.6 -0.514577 1622.42 2.68903C1639.32 5.77559 1654.62 11.3882 1668.32 19.5268C1682.11 27.5483 1693.71 37.7009 1703.13 49.9845C1712.55 62.2681 1719.16 76.2431 1722.94 91.9094L1635.97 103.588Z" fill="#C95D43"/>
<path d="M1260.56 72.9219L1379.21 369.873L1311.93 396.756L1142.3 283.613L1140.56 284.308L1202.9 440.324L1122.28 472.536L1003.62 175.585L1072.06 148.239L1239.73 261.497L1242.05 260.57L1179.94 105.135L1260.56 72.9219Z" fill="#C95D43"/>
<path d="M879.503 242.709L1048.45 514.213L974.744 560.081L805.794 288.576L879.503 242.709Z" fill="#C95D43"/>
<path d="M696.284 375.522L909.944 613.447L856.039 661.855L657.815 614.052L656.421 615.304L768.676 740.308L704.083 798.313L490.423 560.388L545.257 511.146L741.67 559.736L743.528 558.067L631.691 433.528L696.284 375.522Z" fill="#C95D43"/>
<path d="M397.269 665.635L649.037 862.795L595.511 931.146L343.743 733.986L397.269 665.635Z" fill="#C95D43"/>
<path d="M449.818 1204.11L406.728 1287.29L171.329 1046.49L225.91 941.118L558.405 994.474L515.315 1077.66L277.39 1033.2L276.241 1035.42L449.818 1204.11ZM329.748 1161.61L410.758 1005.21L468.435 1035.09L387.425 1191.48L329.748 1161.61Z" fill="#C95D43"/>
<path d="M328.289 1603.78L17.3427 1529.14L49.5615 1394.92C55.1014 1371.85 64.1494 1352.66 76.7055 1337.37C89.2616 1322.08 104.589 1311.52 122.687 1305.69C140.786 1299.87 160.868 1299.6 182.934 1304.9C205.202 1310.25 222.788 1319.71 235.691 1333.3C248.618 1346.79 256.84 1363.37 260.358 1383.06C263.9 1402.64 262.828 1424.28 257.142 1447.96L237.898 1528.13L172.308 1512.39L187.47 1449.22C189.851 1439.31 190.665 1430.56 189.913 1422.99C189.083 1415.3 186.385 1408.93 181.818 1403.87C177.275 1398.71 170.601 1395.07 161.795 1392.96C152.888 1390.82 145.189 1391.01 138.698 1393.52C132.131 1395.9 126.681 1400.32 122.349 1406.78C117.939 1413.1 114.544 1421.23 112.163 1431.15L105.019 1460.91L348.553 1519.37L328.289 1603.78ZM229.305 1387.33L390.685 1343.85L368.671 1435.56L207.729 1477.21L229.305 1387.33Z" fill="#C95D43"/>
<path d="M69.9474 1954.25L0 1953.47L3.1011 1675.56L73.0485 1676.34L71.9753 1772.52L321.787 1775.3L320.833 1860.86L71.0206 1858.08L69.9474 1954.25Z" fill="#C95D43"/>
</svg>
